<?xml version="1.0" encoding="UTF-8"?><svg id="Layer_1" xmlns="http://www.w3.org/2000/svg" xmlns:xlink="http://www.w3.org/1999/xlink" viewBox="0 0 1440.79 200.58"><defs><style>.cls-1{fill:#100030;}.cls-2{fill:url(#linear-gradient-2);}.cls-3{fill:url(#linear-gradient);}.cls-4{filter:url(#drop-shadow-72);}.cls-5{fill:#19152d;}.cls-6{fill:#fff;}.cls-7{fill:#ed4397;}.cls-8{fill:#f5f5f5;}</style><filter id="drop-shadow-72" x="-39.04" y="-38.49" width="1518" height="179" filterUnits="userSpaceOnUse"><feOffset dx="0" dy="0"/><feGaussianBlur result="blur" stdDeviation="12.99"/><feFlood flood-color="#000" flood-opacity=".5"/><feComposite in2="blur" operator="in"/><feComposite in="SourceGraphic"/></filter><linearGradient id="linear-gradient" x1="616.21" y1="-2560.29" x2="612.06" y2="-2560.29" gradientTransform="translate(0 -2510.96) scale(1 -1)" gradientUnits="userSpaceOnUse"><stop offset="0" stop-color="#000"/><stop offset=".45" stop-color="#19152d"/><stop offset=".84" stop-color="#272a61"/><stop offset="1" stop-color="#000"/></linearGradient><linearGradient id="linear-gradient-2" x1="621.28" y1="-2560.27" x2="625.34" y2="-2560.27" xlink:href="#linear-gradient"/></defs><rect class="cls-8" y="0" width="1440.79" height="200.58"/><g class="cls-4"><rect class="cls-1" x=".39" y=".58" width="1439.09" height="100"/></g><path class="cls-6" d="M656.98,51.05c0,4.38-3.22,7.93-8.2,7.93-4.53,0-8.04-3.44-8.04-7.82,0-4.61,3.59-7.82,8.12-7.82s8.12,3.34,8.12,7.72ZM648.86,56.03c2.69,0,4.61-2.18,4.61-4.87s-1.72-4.87-4.61-4.87-4.61,2.18-4.61,4.87,1.9,4.87,4.61,4.87Z"/><path class="cls-6" d="M696.35,51.05c0,4.38-3.22,7.93-8.2,7.93-4.53,0-8.04-3.44-8.04-7.82,0-4.61,3.59-7.82,8.12-7.82s8.12,3.34,8.12,7.72ZM688.23,56.03c2.69,0,4.61-2.18,4.61-4.87s-1.72-4.87-4.61-4.87-4.61,2.18-4.61,4.87,1.9,4.87,4.61,4.87Z"/><path class="cls-6" d="M714.26,52.61s0-6,0-7.55c.28-2.17,3.34-1.01,3.34-1.01v8.09h0c0,2.52,1.73,3.75,3.86,3.75s3.86-1.19,3.86-3.76c0,0,0-5.52,0-7.07.28-2.17,3.34-1.01,3.34-1.01v5.2c.43,6.41,6.56,6.89,6.56,6.89,6.1.85,5.57-1.66,5.57-1.66-.16-1.26-1.1-1.55-2.72-1.76-1.01-.13-1.88-.22-1.88-.22-6.54-.41-5.9-4.73-5.9-4.73.08-3.65,3.99-4.21,3.99-4.21,3.45-.61,5.89-.01,5.89-.01,5.37,1.12,2.73,3.66,2.28,3.81,0,0-1.43-1.31-4.78-1.5-4.12-.26-4.05,1.68-4.05,1.68-.13,1.42,1.68,1.68,1.68,1.68l4.42.62c5.22.73,4.58,4.43,4.58,4.43-.34,4.63-5.86,4.66-5.86,4.66-7.54.44-10.38-3.48-10.38-3.48-1.06,2.1-3.17,3.51-6.68,3.51-4.18,0-7.13-2.34-7.13-6.55"/><path class="cls-6" d="M665.23,43.58c-6.03.43-7.41,6.04-7.26,7.67-.08,2.46,1.64,7.73,8.3,7.74.88-.02,1.68-.1,2.42-.23v-2.99c-.64.11-1.41.18-2.34.21-3.11.08-4.88-2.47-4.87-4.72,0-2.61,2.13-4.75,4.87-4.72h5.39s.01,7.38.01,7.38c0,0-.39,6.25,7.52,4.94v-2.98c-4.38.94-4.15-1.81-4.15-1.81v-7.52h4.15v-2.95h-4.15v-3.48h-3.37v3.48h-6.52Z"/><path class="cls-6" d="M700.69,63.47c-.28,2.17-3.34,1.01-3.34,1.01v-13.32c.19-4.25,2.73-7.71,7.97-7.82,4.62-.1,7.94,3.34,7.97,7.72.03,4.64-3.22,8.09-8.03,7.89-1.71-.09-3.39-.77-4.55-2.26,0,0-.01,5.24-.01,6.79ZM705.23,56.05c2.66,0,4.56-2.18,4.56-4.87s-1.7-4.87-4.56-4.87-4.56,2.18-4.56,4.87,1.88,4.87,4.56,4.87Z"/><path class="cls-6" d="M761.26,55.65c-1.3,1.51-3.1,2.31-5.21,2.31-1.94,0-3.59-.69-4.75-2-1.1-1.23-1.7-2.95-1.7-4.85v-.28h12.94v-.12c-.07-1.97-.77-3.78-1.97-5.09-1.27-1.38-2.98-2.11-4.94-2.11-4,0-6.91,3.19-6.91,7.6s3.02,7.66,7.33,7.66c2.37,0,4.38-.87,5.84-2.52l.07-.08-.62-.62-.08.09ZM749.68,50.02c.47-3.46,2.8-5.69,5.95-5.69,1.62,0,3.05.59,4.14,1.71,1,1.03,1.63,2.43,1.78,3.98h-11.87Z"/><path class="cls-6" d="M776.26,45.42c-1.14-1.21-2.8-1.9-4.56-1.9,0,0,0,0,0,0-1.75,0-3.41.69-4.56,1.9-1.09,1.16-1.6,2.67-1.6,4.75v8.28h.88v-8.28c0-1.84.45-3.17,1.41-4.2.94-1.01,2.43-1.63,3.87-1.63,1.44,0,2.93.62,3.87,1.63.96,1.03,1.41,2.37,1.41,4.2v8.28h.88v-8.28c0-2.08-.51-3.59-1.6-4.75Z"/><path class="cls-6" d="M803.82,43.52c-1.75,0-3.41.69-4.56,1.9-1.09,1.16-1.6,2.67-1.6,4.75v8.28h.88v-8.28c0-1.84.45-3.17,1.41-4.2.94-1.01,2.43-1.63,3.87-1.63h.11v-.82h-.11Z"/><path class="cls-6" d="M793.35,55.65c-1.3,1.51-3.1,2.31-5.21,2.31-1.94,0-3.59-.69-4.75-2-1.1-1.23-1.7-2.95-1.7-4.85v-.28h12.94v-.12c-.07-1.97-.77-3.78-1.97-5.09-1.27-1.38-2.98-2.11-4.94-2.11-4,0-6.91,3.19-6.91,7.6s3.02,7.66,7.33,7.66c2.37,0,4.38-.87,5.84-2.52l.07-.08-.62-.62-.08.09ZM781.77,50.02c.47-3.46,2.8-5.69,5.95-5.69,1.62,0,3.05.59,4.14,1.71,1,1.03,1.63,2.43,1.78,3.98h-11.87Z"/><polygon class="cls-6" points="833.51 43.85 827.89 55.73 821.59 43.85 820.65 43.85 827.41 56.74 822.88 66.36 823.85 66.36 834.48 43.85 833.51 43.85"/><path class="cls-6" d="M812.28,43.52c-2.08,0-3.99.79-5.38,2.24-1.37,1.42-2.12,3.33-2.12,5.39s.75,3.98,2.12,5.39c1.39,1.44,3.3,2.24,5.38,2.24,2.73,0,4.93-1.34,6.12-3.71v3.14c0,1.76-.06,3.75-.77,5.01-.95,1.67-2.74,2.59-5.03,2.59-3.06,0-5.17-1.63-6.05-3.02l-.07-.1-.71.53.06.09c.53.78,2.6,3.32,6.76,3.32,2.62,0,4.62-1.01,5.78-2.93.83-1.39.9-3.58.9-5.51v-6.97s0-.04,0-.05c0-4.49-2.88-7.63-7-7.63ZM818.39,51.15c0,4.01-2.51,6.81-6.11,6.81s-6.62-2.99-6.62-6.81,2.91-6.81,6.62-6.81,6.11,2.8,6.11,6.81Z"/><g id="Layer_1-2"><path class="cls-7" d="M625.34,56.07c.03.94.59,2.3,1.53,2.82.85.47,1.53.7,1.53,1.22s-2.54,1.84-5.15.56c-2.61-1.29-2.85-2.89-3.03-3.55,2.85-1.71,5.12-1.04,5.12-1.04Z"/><path class="cls-7" d="M628.37,54.4c.37-1.72,2.99-4.17,3.31-7.55.42-4.44-1.83-12.32-12.79-12.32s-12.58,8.14-12.58,11.54c0,4.54,3.18,6.98,3.21,8.47,2.71,2.14,12.9,4.66,18.85-.14Z"/><path class="cls-7" d="M612.43,56.07c-.03.94-.59,2.3-1.53,2.82-.85.47-1.53.7-1.53,1.22s2.54,1.84,5.15.56c2.61-1.29,2.85-2.89,3.03-3.55-2.85-1.71-5.12-1.04-5.12-1.04Z"/><path class="cls-7" d="M621.84,56.71s-.21,1.84-.52,2.92c-.31,1.08-.7,2.9-2.58,2.9s-2.31-2.07-2.44-2.82c-.14-.8-.35-3.2-.35-3.2,0,0,2.89-2.6,5.88.2Z"/><path class="cls-7" d="M628.37,54.4c-.24,1.95,1.74,2.02,1.64,3.13-.1,1.11-4.25,1.11-5.36-1.08-1.11-2.19,3.72-2.05,3.72-2.05Z"/><path class="cls-7" d="M609.52,54.4c.24,1.95-1.74,2.02-1.64,3.13.1,1.11,4.25,1.11,5.36-1.08,1.11-2.19-3.72-2.05-3.72-2.05Z"/><circle class="cls-6" cx="614.02" cy="48.86" r="2.98"/><circle class="cls-3" cx="614.22" cy="49.33" r="2.1"/><circle class="cls-6" cx="613" cy="48.21" r=".47"/><circle class="cls-6" cx="623.36" cy="48.86" r="2.75"/><circle class="cls-2" cx="623.35" cy="49.32" r="2.09"/><circle class="cls-6" cx="622.28" cy="48.11" r=".48"/><path class="cls-5" d="M626.33,43.36c.07.03.13.06.2.09.06.03.13.07.19.1.06.04.13.08.19.12.06.05.13.1.2.19.07.09.05.22-.04.3-.06.05-.14.06-.21.03l-.08-.04s-.06-.03-.11-.05c-.05-.02-.1-.04-.16-.05-.06-.02-.12-.03-.18-.04-.06-.01-.12-.02-.18-.03-.18-.02-.31-.19-.29-.37.02-.18.19-.31.37-.29.03,0,.06.01.08.02h.01Z"/><path class="cls-5" d="M611.52,44.3c-.05,0-.12.01-.18.02-.06,0-.12.02-.18.03-.06.01-.12.02-.17.04-.05.01-.1.04-.13.05l-.05.02c-.08.04-.18,0-.22-.08-.03-.05-.02-.12.01-.16.06-.09.12-.14.18-.19.06-.05.12-.09.18-.13.06-.04.12-.08.19-.11.06-.04.12-.07.19-.1h.02c.17-.09.36-.02.44.15s.01.36-.15.44c-.04.02-.09.03-.13.03Z"/><path class="cls-5" d="M617.54,53.53c.04.07.08.13.14.18.06.05.14.1.23.13.18.07.38.1.59.09.2,0,.42-.06.61-.14.09-.04.18-.09.25-.14.07-.05.11-.1.14-.15l.06-.1c.07-.11.21-.14.31-.07.06.04.1.1.1.17.01.1,0,.22-.04.31,0,.02-.02.05-.03.07l-.03.06s-.05.08-.07.12c-.11.14-.24.25-.37.34-.28.17-.58.26-.91.28-.32.01-.65-.05-.94-.23-.14-.09-.28-.21-.38-.36-.1-.16-.16-.36-.13-.55.02-.12.14-.2.26-.18.07.01.13.06.16.12l.03.06Z"/></g></svg>