<?xml version="1.0" encoding="UTF-8"?><svg id="Layer_1" xmlns="http://www.w3.org/2000/svg" xmlns:xlink="http://www.w3.org/1999/xlink" viewBox="0 0 1440 399.09"><defs><style>.cls-1,.cls-2,.cls-3,.cls-4,.cls-5,.cls-6,.cls-7,.cls-8,.cls-9,.cls-10,.cls-11,.cls-12,.cls-13,.cls-14,.cls-15{fill:none;}.cls-16{filter:url(#drop-shadow-9);}.cls-17{opacity:.2;}.cls-17,.cls-18,.cls-19,.cls-20,.cls-21,.cls-22,.cls-13{isolation:isolate;}.cls-23,.cls-21,.cls-24,.cls-25,.cls-26{fill:#6675f6;}.cls-27{fill:#100030;}.cls-28{fill:url(#linear-gradient-2);}.cls-29{stroke-width:.23px;}.cls-29,.cls-30,.cls-31,.cls-32,.cls-24,.cls-33,.cls-2,.cls-25,.cls-26,.cls-3,.cls-4,.cls-5,.cls-34,.cls-6,.cls-7,.cls-8,.cls-35,.cls-9,.cls-10,.cls-36,.cls-11,.cls-12,.cls-37,.cls-38,.cls-39,.cls-40,.cls-14,.cls-15{stroke-miterlimit:10;}.cls-29,.cls-30,.cls-31,.cls-32,.cls-36,.cls-37,.cls-38,.cls-39,.cls-40{fill:#bdf2ff;}.cls-29,.cls-30,.cls-25,.cls-26{stroke:#5840ff;}.cls-30,.cls-26{stroke-width:.79px;}.cls-18{fill:#18122d;opacity:.1;}.cls-41{fill:#ff48d8;}.cls-42{fill:url(#linear-gradient);}.cls-43{fill:#ef7f3e;}.cls-44{fill:#75068c;}.cls-19{opacity:.29;}.cls-19,.cls-33{fill:#180048;}.cls-45{fill:#d9ddff;}.cls-46,.cls-20{fill:#949fff;}.cls-47{fill:#60f0f8;}.cls-48{fill:#9804b2;}.cls-49{fill:#fa98ff;}.cls-20,.cls-21{opacity:.77;}.cls-50{fill:#fff;}.cls-51{fill:#ff74e2;}.cls-52{fill:#5840ff;}.cls-31{stroke-width:.15px;}.cls-31,.cls-32,.cls-3,.cls-4,.cls-5,.cls-6{stroke:#6675f6;}.cls-53{fill:#6018c8;}.cls-22{opacity:.35;}.cls-22,.cls-34,.cls-35{fill:#71e3ff;}.cls-54{fill:#ffbaff;}.cls-55{fill:azure;}.cls-32{stroke-width:.61px;}.cls-56{fill:#048e6b;}.cls-24,.cls-37,.cls-39{stroke:#2d19be;}.cls-24,.cls-39{stroke-width:.41px;}.cls-33,.cls-36,.cls-12,.cls-38,.cls-40,.cls-14{stroke:#f050f8;}.cls-33,.cls-12{stroke-width:.77px;}.cls-2{stroke:#bdf2ff;}.cls-2,.cls-6{stroke-width:.37px;}.cls-57{fill:#2d19be;}.cls-25{stroke-width:.49px;}.cls-58{fill:#ffd84f;}.cls-3,.cls-36,.cls-14{stroke-width:.27px;}.cls-4,.cls-15{stroke-width:.31px;}.cls-5,.cls-9{stroke-width:.38px;}.cls-59{fill:#ea76f4;}.cls-34,.cls-7,.cls-8,.cls-35{stroke:azure;}.cls-34,.cls-8{stroke-width:.69px;}.cls-7,.cls-35{stroke-width:.56px;}.cls-60{fill:#2d1a83;}.cls-61{fill:#100030;}.cls-9,.cls-10,.cls-11,.cls-15{stroke:#ffbaff;}.cls-10{stroke-width:.43px;}.cls-11{stroke-width:.26px;}.cls-62{fill:#10c395;}.cls-63{fill:#f484fa;}.cls-37{stroke-width:.24px;}.cls-38{stroke-width:1.11px;}.cls-13{opacity:.69;stroke:#180048;stroke-linecap:round;stroke-linejoin:round;stroke-width:.36px;}.cls-40{stroke-width:.97px;}.cls-64{fill:#00735f;}.cls-65{fill:#9de8ff;}.cls-66{clip-path:url(#clippath);}.cls-67{fill:#f050f8;}</style><filter id="drop-shadow-9" x="-28.44" y="288.6" width="1497" height="111" filterUnits="userSpaceOnUse"><feOffset dx="0" dy="0"/><feGaussianBlur result="blur" stdDeviation="9.51"/><feFlood flood-color="#000" flood-opacity=".5"/><feComposite in2="blur" operator="in"/><feComposite in="SourceGraphic"/></filter><clipPath id="clippath"><rect class="cls-1" x="-15.47" y="39.54" width="1455.47" height="299.51"/></clipPath><linearGradient id="linear-gradient" x1="416.8" y1="-336.9" x2="413.51" y2="-341.12" gradientTransform="translate(0 -163.65) scale(1 -1)" gradientUnits="userSpaceOnUse"><stop offset="0" stop-color="#000"/><stop offset=".45" stop-color="#100030"/><stop offset=".84" stop-color="#180070"/><stop offset="1" stop-color="#000"/></linearGradient><linearGradient id="linear-gradient-2" x1="17354.37" y1="5616.83" x2="17441.45" y2="5647.41" xlink:href="#linear-gradient"/></defs><rect class="cls-61" y="-7.64" width="1440" height="412.58"/><g class="cls-16"><rect class="cls-62" x=".45" y="317.46" width="1439.09" height="53.59" transform="translate(1440 688.52) rotate(180)"/></g><g class="cls-66"><path class="cls-56" d="M657.19,337.38c-44.85-56.13-91.34-79.74-118.21-90.32-126.29-49.8-259.73,14.17-327.86,46.83-27.08,12.97-53.18,27.88-78.1,44.61l524.17-1.12Z"/><path class="cls-17" d="M436.72,158.54c.15.46.26.94.34,1.41,0,.03,0,.06,0,.09,0,.09,0,.18,0,.27.2,2.57-.58,5.12-2.17,7.15l-2.11,2.58c-1.26,2.27-.82,2.48-.78,4.64-2.18-3.09-9.6-4.39-10.65-4.22.56-.34,1.09-.72,1.59-1.13,2.66.59,6.33,1.85,7.79,3.87,0-2.11-.46-2.37.79-4.64l2.11-2.58c1.59-2.02,2.37-4.58,2.17-7.15v-.36c-.07-.48-.19-.95-.35-1.41-.11-.32-.23-.63-.38-.93.81.58,1.4,1.43,1.65,2.4Z"/><path class="cls-41" d="M436.72,158.54c.15.46.26.94.34,1.41,0,.03,0,.06,0,.09,0,.09,0,.18,0,.27.2,2.57-.58,5.12-2.17,7.15l-2.11,2.58c-1.26,2.27-.82,2.48-.78,4.64-1.44-2.03-5.13-3.29-7.79-3.87-.93-.24-1.9-.37-2.86-.37,2.92-1.73,9.28-8.05,10.88-11.32.84-1.71,1.44-2.99,2.51-3.06.4,0,1.06.56,1.53,1.55.17.3.33.61.45.93Z"/><path class="cls-62" d="M1.45,325.56h1440c1.69,0,3.3.67,4.5,1.85,1.19,1.19,1.86,2.8,1.86,4.48s-.67,3.29-1.86,4.48c-1.2,1.19-2.81,1.85-4.5,1.85H1.45c-1.69,0-3.3-.67-4.5-1.85-1.19-1.19-1.86-2.8-1.86-4.48s.67-3.29,1.86-4.48c1.19-1.19,2.81-1.85,4.5-1.85Z"/><path class="cls-62" d="M820.46,338.49c-2.23-3.03-35.88-47.34-81.6-36.21-26.61,6.48-42.79,28.17-48.22,36.21h129.82Z"/><path class="cls-49" d="M724.42,338.49h-84.43c-.17,0-.34-.07-.46-.19-.12-.12-.19-.29-.19-.46v-41.16c0-.09.02-.17.05-.25.03-.08.08-.15.14-.21.06-.06.13-.11.21-.14.08-.03.16-.05.25-.05h83.93c.17,0,.34.07.46.19.12.12.19.28.2.46.15,13.7.3,27.42.46,41.16,0,.17-.07.33-.18.45-.11.12-.27.2-.43.21Z"/><path class="cls-48" d="M645.13,273.25h66.25c.06,0,.12.01.17.04.05.03.1.07.12.13l16.82,29.48c.03.05.04.11.04.17s-.02.12-.05.17c-.03.05-.07.1-.12.13-.05.03-.11.05-.17.05h-67.72c-.06,0-.13-.02-.18-.05-.05-.03-.1-.08-.13-.14l-15.36-29.48c-.03-.05-.04-.11-.04-.17,0-.06.02-.12.05-.17.03-.05.07-.09.13-.12.05-.03.11-.04.17-.04Z"/><path class="cls-67" d="M713.8,309.19h-36.97c-.11,0-.19.09-.19.19v28.93c0,.11.08.19.19.19h36.97c.1,0,.19-.08.19-.19v-28.93c0-.1-.09-.19-.19-.19Z"/><path class="cls-13" d="M680.6,315.3h29.71"/><path class="cls-13" d="M680.6,318.56h29.71"/><path class="cls-13" d="M680.6,321.83h29.71"/><path class="cls-13" d="M680.6,325.09h29.71"/><path class="cls-33" d="M656.34,276.55l37.05.3h9.05l11.43,23.15h-44.23l-13.29-23.44Z"/><path class="cls-23" d="M703.15,299.98l-10.9-23.06,10.9,23.06Z"/><path class="cls-12" d="M703.15,299.98l-10.9-23.06"/><path class="cls-12" d="M663.2,287.73h44.62"/><path class="cls-23" d="M692.99,299.98l-10.89-23.06,10.89,23.06Z"/><path class="cls-12" d="M692.99,299.98l-10.89-23.06"/><path class="cls-23" d="M682.2,299.98l-10.9-23.06,10.9,23.06Z"/><path class="cls-12" d="M682.2,299.98l-10.9-23.06"/><path class="cls-59" d="M510.26,232.1l-24.28-22.95-26.06,22.63c-.25.22-.45.49-.58.79-.14.3-.21.63-.21.96v104.42c0,.15.06.28.16.39s.24.16.39.16h50.79c.05,0,.1-.03.14-.07.04-.04.06-.09.06-.15v-105.27c0-.17-.04-.34-.11-.5-.07-.16-.17-.3-.3-.42Z"/><path class="cls-48" d="M543.91,232.47h-33.26v106.02h33.26v-106.02Z"/><path class="cls-34" d="M491.27,262.3h13.86c.34,0,.61-.27.61-.61v-19.35c0-.34-.27-.61-.61-.61h-13.86c-.34,0-.61.27-.61.61v19.35c0,.34.27.61.61.61Z"/><path class="cls-8" d="M498.2,241.72v20.58"/><path class="cls-8" d="M490.66,252.01h15.08"/><path class="cls-34" d="M465.21,262.3h13.86c.34,0,.61-.27.61-.61v-19.35c0-.34-.27-.61-.61-.61h-13.86c-.34,0-.61.27-.61.61v19.35c0,.34.27.61.61.61Z"/><path class="cls-8" d="M472.14,241.72v20.58"/><path class="cls-8" d="M464.6,252.01h15.08"/><path class="cls-34" d="M522.12,262.99h13.86c.34,0,.61-.27.61-.61v-19.35c0-.34-.27-.61-.61-.61h-13.86c-.34,0-.61.27-.61.61v19.35c0,.34.27.61.61.61Z"/><path class="cls-8" d="M529.06,242.41v20.58"/><path class="cls-8" d="M521.51,252.7h15.08"/><path class="cls-34" d="M522.12,291.78h13.86c.34,0,.61-.27.61-.61v-19.35c0-.34-.27-.61-.61-.61h-13.86c-.34,0-.61.27-.61.61v19.35c0,.34.27.61.61.61Z"/><path class="cls-8" d="M529.06,271.21v20.57"/><path class="cls-8" d="M521.51,281.5h15.08"/><path class="cls-34" d="M522.12,320.58h13.86c.34,0,.61-.27.61-.61v-19.35c0-.34-.27-.61-.61-.61h-13.86c-.34,0-.61.27-.61.61v19.35c0,.34.27.61.61.61Z"/><path class="cls-8" d="M529.06,300.01v20.57"/><path class="cls-8" d="M521.51,310.29h15.08"/><path class="cls-34" d="M491.27,291.43h13.86c.34,0,.61-.27.61-.61v-19.35c0-.34-.27-.61-.61-.61h-13.86c-.34,0-.61.27-.61.61v19.35c0,.34.27.61.61.61Z"/><path class="cls-8" d="M498.2,270.87v20.57"/><path class="cls-8" d="M490.66,281.15h15.08"/><path class="cls-34" d="M465.21,291.43h13.86c.34,0,.61-.27.61-.61v-19.35c0-.34-.27-.61-.61-.61h-13.86c-.34,0-.61.27-.61.61v19.35c0,.34.27.61.61.61Z"/><path class="cls-8" d="M472.14,270.87v20.57"/><path class="cls-8" d="M464.6,281.15h15.08"/><path class="cls-34" d="M465.21,320.58h13.86c.34,0,.61-.27.61-.61v-19.35c0-.34-.27-.61-.61-.61h-13.86c-.34,0-.61.27-.61.61v19.35c0,.34.27.61.61.61Z"/><path class="cls-8" d="M472.14,300.01v20.57"/><path class="cls-8" d="M464.6,310.29h15.08"/><path class="cls-53" d="M487.43,209.65l-29.06,23.47-1-1.24,28.31-22.87c.2-.16.45-.24.71-.21.25.03.49.15.65.35l.41.5h0Z"/><path class="cls-53" d="M485.97,209.15l26.05,24.69h33.98l-30.02-24.69h-30.02Z"/><path class="cls-34" d="M486.31,233.84c3.22,0,5.83-2.61,5.83-5.83s-2.61-5.83-5.83-5.83-5.83,2.61-5.83,5.83,2.61,5.83,5.83,5.83Z"/><path class="cls-67" d="M522.65,228.01v-22.27s0-.09-.03-.14c-.02-.04-.05-.08-.08-.12-.03-.03-.08-.06-.12-.08-.04-.02-.09-.03-.14-.02h-10.92c-.09,0-.19.04-.25.11-.07.07-.1.16-.1.25v14.4l11.65,7.87Z"/><path class="cls-48" d="M489.03,303.54h15.39c.2,0,.39.08.53.22.14.14.22.33.22.53v34.08h-16.89v-34.08c0-.2.08-.39.22-.53.14-.14.33-.22.53-.22Z"/><path class="cls-48" d="M506.5,337.31h-19.59c-.13,0-.23.1-.23.23v.59c0,.13.1.23.23.23h19.59c.13,0,.23-.1.23-.23v-.59c0-.13-.1-.23-.23-.23Z"/><path class="cls-58" d="M501.72,319.37c.58,0,1.06-.47,1.06-1.06s-.47-1.06-1.06-1.06-1.06.47-1.06,1.06.47,1.06,1.06,1.06Z"/><path class="cls-55" d="M238.35,243.91l21.59-20.39,23.17,20.12c.22.19.4.43.52.7.12.26.18.55.18.85v92.88c0,.13-.05.25-.14.34-.09.09-.21.14-.34.14h-45.14c-.05,0-.1-.02-.13-.05-.04-.04-.06-.08-.06-.14v-93.59c0-.16.02-.32.08-.47.06-.15.16-.28.28-.39Z"/><path class="cls-45" d="M237.99,244.24h-29.56v94.25h29.56v-94.25Z"/><path class="cls-32" d="M255.17,252.47h-12.19c-.34,0-.61.27-.61.61v17.07c0,.34.27.61.61.61h12.19c.34,0,.61-.27.61-.61v-17.07c0-.34-.27-.61-.61-.61Z"/><path class="cls-4" d="M249.07,252.47v18.29"/><path class="cls-4" d="M255.77,261.62h-13.4"/><path class="cls-32" d="M278.33,252.47h-12.19c-.34,0-.61.27-.61.61v17.07c0,.34.27.61.61.61h12.19c.34,0,.61-.27.61-.61v-17.07c0-.34-.27-.61-.61-.61Z"/><path class="cls-4" d="M272.24,252.47v18.29"/><path class="cls-4" d="M278.94,261.62h-13.41"/><path class="cls-32" d="M227.73,253.08h-12.19c-.34,0-.61.27-.61.61v17.07c0,.34.27.61.61.61h12.19c.34,0,.61-.27.61-.61v-17.07c0-.34-.27-.61-.61-.61Z"/><path class="cls-4" d="M221.64,253.08v18.29"/><path class="cls-4" d="M228.34,262.22h-13.41"/><path class="cls-32" d="M227.73,278.68h-12.19c-.34,0-.61.27-.61.61v17.07c0,.34.27.61.61.61h12.19c.34,0,.61-.27.61-.61v-17.07c0-.34-.27-.61-.61-.61Z"/><path class="cls-4" d="M221.64,278.68v18.29"/><path class="cls-4" d="M228.34,287.82h-13.41"/><path class="cls-32" d="M227.73,304.29h-12.19c-.34,0-.61.27-.61.61v17.07c0,.34.27.61.61.61h12.19c.34,0,.61-.27.61-.61v-17.07c0-.34-.27-.61-.61-.61Z"/><path class="cls-4" d="M221.64,304.29v18.28"/><path class="cls-4" d="M228.34,313.43h-13.41"/><path class="cls-32" d="M255.17,278.38h-12.19c-.34,0-.61.27-.61.61v17.07c0,.34.27.61.61.61h12.19c.34,0,.61-.27.61-.61v-17.07c0-.34-.27-.61-.61-.61Z"/><path class="cls-4" d="M249.07,278.38v18.29"/><path class="cls-4" d="M255.77,287.52h-13.4"/><path class="cls-32" d="M278.33,278.38h-12.19c-.34,0-.61.27-.61.61v17.07c0,.34.27.61.61.61h12.19c.34,0,.61-.27.61-.61v-17.07c0-.34-.27-.61-.61-.61Z"/><path class="cls-4" d="M272.24,278.38v18.29"/><path class="cls-4" d="M278.94,287.52h-13.41"/><path class="cls-32" d="M255.17,304.29h-12.19c-.34,0-.61.27-.61.61v17.07c0,.34.27.61.61.61h12.19c.34,0,.61-.27.61-.61v-17.07c0-.34-.27-.61-.61-.61Z"/><path class="cls-4" d="M249.07,304.29v18.28"/><path class="cls-4" d="M255.77,313.43h-13.4"/><path class="cls-32" d="M278.33,304.29h-12.19c-.34,0-.61.27-.61.61v17.07c0,.34.27.61.61.61h12.19c.34,0,.61-.27.61-.61v-17.07c0-.34-.27-.61-.61-.61Z"/><path class="cls-4" d="M272.24,304.29v18.28"/><path class="cls-4" d="M278.94,313.43h-13.41"/><path class="cls-57" d="M260.62,223.87l25.07,20.14-.89,1.11-25.82-20.74.29-.36c.16-.2.39-.33.64-.35.25-.03.51.05.71.21Z"/><path class="cls-52" d="M259.94,223.52l-23.17,21.94h-30.21l26.69-21.94h26.68Z"/><path class="cls-31" d="M259.64,245.46c2.86,0,5.18-2.32,5.18-5.18s-2.32-5.18-5.18-5.18-5.18,2.32-5.18,5.18,2.32,5.18,5.18,5.18Z"/><path class="cls-55" d="M227.31,240.28v-19.8c0-.08.03-.16.09-.22.06-.06.14-.09.22-.09h9.72c.08,0,.16.03.22.09s.09.14.09.22v12.8l-10.35,7Z"/><path class="cls-62" d="M271.64,338.49c-3.17-3.45-51.02-53.83-116.1-41.16-37.86,7.39-60.87,32.02-68.6,41.16h184.7Z"/><path class="cls-54" d="M276.58,298.9l20.81-18.68,21.01,18.68c.13.11.23.25.3.4.07.15.1.32.1.49v38.69h-42.62v-38.69c0-.17.03-.33.1-.49.07-.15.17-.29.29-.4Z"/><path class="cls-49" d="M318.58,298.76h34.59c1.08,0,2.12.43,2.89,1.2.77.77,1.2,1.8,1.2,2.89v35.64h-38.67v-39.73Z"/><path class="cls-44" d="M296.87,280.29l-22.45,19.91.6.67,22.45-19.91-.6-.67Z"/><path class="cls-48" d="M296.86,280.17h44.43l17.77,21.73c.07.09.12.19.14.3.02.11,0,.22-.04.32-.04.1-.11.19-.2.26-.09.07-.19.11-.3.12l-38.22.55c-.59.01-1.18-.11-1.73-.34-.54-.23-1.04-.58-1.44-1.01l-20.42-21.93Z"/><path class="cls-48" d="M299.2,316.25h10.15c.2,0,.39.08.53.22s.22.33.22.53v21.5h-11.61v-21.5c0-.19.07-.38.2-.52.13-.14.31-.22.5-.23Z"/><path class="cls-58" d="M307.72,328.43c.44,0,.79-.35.79-.79s-.35-.79-.79-.79-.79.35-.79.79.35.79.79.79Z"/><path class="cls-35" d="M281.45,332.27h11.09c.34,0,.61-.27.61-.61v-15.57c0-.34-.27-.61-.61-.61h-11.09c-.34,0-.61.27-.61.61v15.57c0,.34.27.61.61.61Z"/><path class="cls-7" d="M286.99,315.48v16.79"/><path class="cls-7" d="M280.84,323.88h12.32"/><path class="cls-35" d="M324.89,329.09h11.09c.34,0,.61-.27.61-.61v-15.57c0-.34-.27-.61-.61-.61h-11.09c-.34,0-.61.27-.61.61v15.57c0,.34.27.61.61.61Z"/><path class="cls-7" d="M330.43,312.3v16.79"/><path class="cls-7" d="M324.28,320.69h12.32"/><path class="cls-35" d="M341.32,329.09h11.09c.34,0,.61-.27.61-.61v-15.57c0-.34-.27-.61-.61-.61h-11.09c-.34,0-.61.27-.61.61v15.57c0,.34.27.61.61.61Z"/><path class="cls-7" d="M346.86,312.3v16.79"/><path class="cls-7" d="M340.7,320.69h12.32"/><path class="cls-35" d="M297.39,304.32c2.78,0,5.03-2.25,5.03-5.03s-2.25-5.03-5.03-5.03-5.03,2.25-5.03,5.03,2.25,5.03,5.03,5.03Z"/><path class="cls-7" d="M297.39,294.25v10.05"/><path class="cls-7" d="M292.62,299.55h10.07"/><path class="cls-47" d="M79.98,266.23h-7.16v14.36h7.16v-14.36Z"/><path class="cls-47" d="M107.74,270.43l9.68-7.54,9.33,7.54v13.5h-19.01v-13.5Z"/><path class="cls-23" d="M104.69,271.03l12.67-10.28s.05-.02.07-.02.05,0,.07.02l12.34,10.3s.03.03.04.06c0,.02,0,.05,0,.07,0,.02-.02.04-.04.05-.02.01-.04.02-.07.01l-3.09.07h-.07l-9.32-7.39s-.04-.03-.07-.03-.05,0-.07.03l-9.33,7.24h-.06l-2.98.11s-.07,0-.1,0c-.03-.01-.05-.04-.07-.07-.01-.03,0-.07,0-.1.01-.03.04-.05.07-.07Z"/><path class="cls-47" d="M64.92,290.37l32.1-25.01,30.91,25.01v44.75h-63.01v-44.75Z"/><path class="cls-23" d="M80.71,263.69h-8.62c-.14,0-.25.11-.25.25v2.83c0,.14.11.25.25.25h8.62c.14,0,.25-.11.25-.25v-2.83c0-.14-.11-.25-.25-.25Z"/><path class="cls-52" d="M129.1,335.12H63.76c-.25,0-.45.2-.45.45v2.47c0,.25.2.45.45.45h65.34c.25,0,.45-.2.45-.45v-2.47c0-.25-.2-.45-.45-.45Z"/><path class="cls-52" d="M128,301.21h-63.16v3.38h63.16v-3.38Z"/><path class="cls-25" d="M73.92,314.69h10.48c.34,0,.66.14.9.37.24.24.37.56.37.9v19.15h-12.86v-19.33c0-.15.02-.29.07-.43.05-.14.13-.26.24-.36.1-.1.23-.18.36-.24.14-.05.28-.08.43-.07Z"/><path class="cls-26" d="M117.24,278.57c2.46,0,4.45-1.99,4.45-4.45s-1.99-4.45-4.45-4.45-4.45,1.99-4.45,4.45,1.99,4.45,4.45,4.45Z"/><path class="cls-2" d="M117.24,270.05v8.52"/><path class="cls-2" d="M121.28,274.11h-8.49"/><path class="cls-23" d="M56.41,291.59l40.37-32.72c.05-.04.12-.07.2-.07s.14.02.2.07l39.26,32.72s.08.1.1.16c.01.06.01.12,0,.18-.02.06-.06.11-.11.14-.05.03-.11.05-.18.05h-6.73c-.07,0-.14-.02-.19-.06l-32.72-26.09c-.05-.05-.12-.07-.19-.07s-.14.03-.19.07l-32.58,26.09c-.05.04-.12.07-.19.06h-6.85c-.06,0-.12-.03-.17-.06-.05-.04-.08-.09-.1-.15-.02-.06-.02-.12,0-.18.02-.06.05-.11.1-.15Z"/><path class="cls-30" d="M119.82,311.24h-24.16c-.16,0-.3.13-.3.3v14.82c0,.16.13.3.3.3h24.16c.16,0,.3-.13.3-.3v-14.82c0-.16-.13-.3-.3-.3Z"/><path class="cls-22" d="M112.65,311.63h4.46l-10.42,14.67h-4.79l10.74-14.67Z"/><path class="cls-22" d="M103.12,311.63h-3.12l-4.22,4.33v3.23l7.35-7.56Z"/><path class="cls-6" d="M103.9,311.63v14.63"/><path class="cls-6" d="M112.2,326.23v-14.6"/><path class="cls-5" d="M95.77,316.64h23.95"/><path class="cls-5" d="M95.77,321.95h23.95"/><path class="cls-30" d="M101.88,281.53h-10.97c-.23,0-.41.18-.41.41v13.45c0,.23.18.41.41.41h10.97c.23,0,.41-.18.41-.41v-13.45c0-.23-.18-.41-.41-.41Z"/><path class="cls-52" d="M106.05,295.55h-19.25c-.13,0-.23.1-.23.23v.33c0,.13.1.23.23.23h19.25c.13,0,.23-.1.23-.23v-.33c0-.13-.1-.23-.23-.23Z"/><path class="cls-22" d="M96.99,281.92h3.2l-4.1,13.49h-3.69l4.59-13.49Z"/><path class="cls-22" d="M92.24,281.92h2.32l-3.68,5.93v-4.14l1.36-1.79Z"/><path class="cls-5" d="M96.45,281.92v13.49"/><path class="cls-6" d="M90.93,288.67h10.99"/><path class="cls-29" d="M83.35,316.44h-8.23c-.16,0-.28.13-.28.28v8.67c0,.16.13.28.28.28h8.23c.16,0,.28-.13.28-.28v-8.67c0-.16-.13-.28-.28-.28Z"/><path class="cls-22" d="M79.68,316.69h2.39l-3.06,8.73h-2.75l3.43-8.73Z"/><path class="cls-22" d="M76.14,316.69h1.73l-2.75,3.84v-2.69l1.02-1.15Z"/><path class="cls-3" d="M79.25,316.53v9.06"/><path class="cls-3" d="M74.93,321.06h8.59"/><path class="cls-58" d="M83.64,328.61c.33,0,.6-.27.6-.6s-.27-.6-.6-.6-.6.27-.6.6.27.6.6.6Z"/><path class="cls-48" d="M657.63,258.06h-6.92c-.19,0-.34.15-.34.34v8.6c0,.19.15.34.34.34h6.92c.19,0,.34-.15.34-.34v-8.6c0-.19-.15-.34-.34-.34Z"/><path class="cls-67" d="M656.81,258.06h-6.36s-.07.03-.07.07v10.42s.03.07.07.07h6.36s.07-.03.07-.07v-10.42s-.03-.07-.07-.07Z"/><path class="cls-63" d="M603.66,279.54l32.33-26.85,32.91,26.85v58.84h-65.24v-58.84Z"/><path class="cls-67" d="M670.69,334.38h-68.6c-.51,0-.92.41-.92.92v2.28c0,.51.41.92.92.92h68.6c.51,0,.92-.41.92-.92v-2.28c0-.51-.41-.92-.92-.92Z"/><path class="cls-67" d="M630.39,337.91h-19.49v-22.66c.02-.99.32-1.96.85-2.8.54-.83,1.3-1.5,2.2-1.93,1.81-.93,3.79-1.46,5.82-1.57,2.64-.15,5.28.42,7.63,1.63.89.43,1.64,1.09,2.17,1.92.53.83.82,1.79.83,2.77v22.65Z"/><path class="cls-48" d="M628.98,337.91h-16.7v-21.47c0-.91.24-1.81.7-2.6.46-.79,1.12-1.44,1.92-1.89,1.53-.86,3.23-1.37,4.98-1.49,2.28-.13,4.55.41,6.53,1.54.78.45,1.43,1.1,1.88,1.88.45.78.69,1.67.69,2.57v21.46Z"/><path class="cls-48" d="M599.06,279.29l36.72-30.02s.1-.05.15-.05.11.02.15.05l36.45,30.04s.06.07.07.12c.01.05,0,.1,0,.14-.02.04-.04.08-.08.11-.04.03-.08.05-.13.05l-3.29.13c-.05.01-.11.01-.16,0l-33-26.86s-.1-.05-.15-.05-.11.02-.15.05l-32.01,26.69s-.09.06-.15.06h-4.22c-.06.03-.13.03-.19,0-.06-.03-.11-.07-.14-.14-.03-.06-.03-.13,0-.19.03-.06.07-.11.14-.14Z"/><path class="cls-67" d="M669.05,296.81h-65.28v3.12h65.28v-3.12Z"/><path class="cls-38" d="M657.37,296.95h-14.01v-16.44c.01-.72.22-1.42.61-2.03.39-.61.94-1.1,1.58-1.41,1.31-.67,2.75-1.05,4.22-1.14,1.9-.11,3.79.3,5.48,1.18.63.32,1.16.81,1.53,1.41.37.6.57,1.29.58,2v16.43Z"/><path class="cls-22" d="M652.1,276.59l-6.27,19.73h3.31l4.99-19c-.26-.13-.53-.25-.8-.36-.4-.16-.81-.29-1.23-.37Z"/><path class="cls-10" d="M643.92,280.68h12.91"/><path class="cls-10" d="M650.33,280.68v15.64"/><path class="cls-10" d="M643.92,285.94h12.9"/><path class="cls-10" d="M656.82,291.21h-12.9"/><path class="cls-38" d="M628.98,296.97h-14.01v-16.44c.01-.72.23-1.42.61-2.02.39-.61.94-1.09,1.58-1.41,1.31-.68,2.75-1.07,4.22-1.14,1.9-.11,3.79.3,5.48,1.18.63.32,1.16.8,1.53,1.4.37.6.57,1.29.58,2v16.43Z"/><path class="cls-22" d="M623.72,276.61c-2.11,6.57-4.22,13.15-6.33,19.73h3.31l5-19c-.26-.14-.53-.26-.81-.37-.38-.15-.77-.27-1.17-.36Z"/><path class="cls-10" d="M615.53,280.7h12.91"/><path class="cls-10" d="M621.95,280.7v15.64"/><path class="cls-10" d="M615.53,285.97h12.9"/><path class="cls-10" d="M628.43,291.24h-12.9"/><path class="cls-40" d="M659.09,324.29h-14.01v-12.81c.05-.61.29-1.2.68-1.67.39-.48.91-.82,1.51-1,1.35-.54,2.77-.84,4.22-.9,1.87-.08,3.74.23,5.48.93.58.18,1.08.53,1.46,1,.38.47.6,1.04.65,1.65v12.8Z"/><path class="cls-22" d="M655.1,308.76l-4.35,15.05h2.17l4.02-14.44-1.85-.61Z"/><path class="cls-22" d="M649.76,308.67c-1.41,5.07-2.85,10.14-4.32,15.21h2.17l4.46-15.41h-.77c-.52.04-1.04.1-1.55.2Z"/><path class="cls-9" d="M652.05,311.98v11.83"/><path class="cls-10" d="M645.57,318.73h13.03"/><path class="cls-10" d="M645.61,311.98h13.03"/><path class="cls-36" d="M625.76,325.09h-10.24v-8.44c0-.74.61-1.41,1.6-1.77.98-.35,2.02-.54,3.06-.58,1.36-.06,2.72.14,4,.6.41.1.77.33,1.05.64.28.31.46.7.52,1.12v8.44Z"/><path class="cls-22" d="M622.97,314.68l-3.3,10.27h1.58c1.01-3.29,2.03-6.57,3.05-9.86l-.57-.21c-.27-.08-.53-.15-.76-.2Z"/><path class="cls-22" d="M618.97,314.55c-1.06,3.47-2.11,6.94-3.17,10.41h1.58c1.08-3.52,2.13-7.04,3.17-10.55h-.6l-.98.15Z"/><path class="cls-11" d="M620.62,316.97v7.98"/><path class="cls-15" d="M615.67,321.42h9.95"/><path class="cls-15" d="M615.67,316.97h9.95"/><path class="cls-58" d="M626.26,329.15c.35,0,.63-.28.63-.63s-.28-.63-.63-.63-.63.28-.63.63.28.63.63.63Z"/><path class="cls-46" d="M421.09,288.02h5.99v-10.45h-5.99v10.45Z"/><path class="cls-52" d="M427.73,276.26h-7.31c-.09,0-.17.08-.17.17v1.57c0,.09.07.17.17.17h7.31c.09,0,.17-.07.17-.17v-1.57c0-.09-.08-.17-.17-.17Z"/><path class="cls-60" d="M458.88,323.33h13.16v-.6h-13.16v.6Z"/><path class="cls-46" d="M475.33,295.53v41.64h-59.32v-41.62l29.67-27.85,29.65,27.83Z"/><path class="cls-24" d="M438.82,337.11h13.74c.14,0,.25-.11.25-.25v-21.66c0-.14-.11-.25-.25-.25h-13.74c-.14,0-.25.11-.25.25v21.66c0,.14.11.25.25.25Z"/><path class="cls-52" d="M481.72,299.09l-36.02-36.86c-.06-.05-.14-.09-.22-.09s-.16.03-.22.09l-35.6,36.81s-.07.1-.08.16,0,.12.02.17c.02.06.06.1.11.14.05.03.11.05.17.05h2.9s.08,0,.11-.02c.04-.01.07-.04.1-.06l32.49-31.66c.06-.05.14-.09.22-.09s.16.03.22.09l31.9,31.66s.06.05.1.06c.04.01.07.02.11.02h3.49c.05,0,.1-.03.14-.06.04-.03.07-.07.1-.12.02-.05.03-.1.03-.15,0-.05-.02-.1-.05-.14Z"/><path class="cls-52" d="M477.15,336.68h-63.22c-.26,0-.46.21-.46.46v.89c0,.26.21.46.46.46h63.22c.26,0,.46-.21.46-.46v-.89c0-.26-.21-.46-.46-.46Z"/><path class="cls-39" d="M421.68,324.61h10.8c.23,0,.41-.18.41-.41v-15.35c0-.23-.18-.41-.41-.41h-10.8c-.23,0-.41.18-.41.41v15.35c0,.23.18.41.41.41Z"/><path class="cls-23" d="M420.24,325.01h13.68s.08-.04.08-.08v-.63s-.04-.08-.08-.08h-13.68s-.08.04-.08.08v.63s.04.08.08.08Z"/><path class="cls-22" d="M425.72,308.65h-2.94l3.62,15.56h3.31l-3.99-15.56Z"/><path class="cls-14" d="M427.07,308.68v15.49"/><path class="cls-14" d="M432.66,316.49h-11.18"/><path class="cls-39" d="M458.48,324.61h10.8c.23,0,.41-.18.41-.41v-15.35c0-.23-.18-.41-.41-.41h-10.8c-.23,0-.41.18-.41.41v15.35c0,.23.18.41.41.41Z"/><path class="cls-23" d="M457.03,325.01h13.68s.08-.04.08-.08v-.63s-.04-.08-.08-.08h-13.68s-.08.04-.08.08v.63s.04.08.08.08Z"/><path class="cls-22" d="M462.52,308.65h-2.96l3.63,15.56h3.31l-3.99-15.56Z"/><path class="cls-14" d="M463.86,308.68v15.49"/><path class="cls-14" d="M469.47,316.49h-11.18"/><path class="cls-39" d="M439.71,299.77h11.65c.22,0,.39-.17.39-.39v-11.65c0-.22-.18-.39-.39-.39h-11.65c-.22,0-.39.18-.39.39v11.65c0,.22.17.39.39.39Z"/><path class="cls-22" d="M444.58,287.53h-3.02l4.29,12.03h3.15l-4.41-12.03Z"/><path class="cls-14" d="M445.54,287.67v11.77"/><path class="cls-14" d="M451.52,293.61l-11.98.08"/><path class="cls-37" d="M442.12,325.68h7.15c.13,0,.23-.1.23-.23v-7.15c0-.13-.1-.23-.23-.23h-7.15c-.13,0-.23.1-.23.23v7.15c0,.13.1.23.23.23Z"/><path class="cls-22" d="M445.11,318.2h-1.85l2.63,7.37h1.92l-2.7-7.37Z"/><path class="cls-14" d="M445.7,318.27v7.21"/><path class="cls-14" d="M449.36,321.91l-7.34.05"/><path class="cls-58" d="M441.69,329.12c.33,0,.6-.27.6-.6s-.27-.6-.6-.6-.6.27-.6.6.27.6.6.6Z"/><path class="cls-18" d="M586,337.63c.17,0,.15,0,0,0h0ZM596.36,314.94c-.24-.48-.53-.92-.88-1.33.69-2.61,1.21-6.33-3.63-7.6-.21-.06-.4-.08-.61-.13.06.01.13.01.19,0,.44-.13.83-.39,1.12-.75.29-.36.46-.8.48-1.26.27-1.75-.7-3.98-2.47-3.85-.16,0-.31.04-.46.08l.13-.32c.12-.31.17-.64.17-.97.02-.67-.22-1.33-.68-1.82-.46-.49-1.09-.79-1.76-.82-.34.01-.67.11-.97.27-.21-.26-.46-.49-.74-.68-.38-.23-.8-.37-1.25-.4h-.17c-.72,0-1.42.27-1.95.76-.16.15-.3.31-.42.49-.13.17-.24.35-.32.55l-.38-.23c-.2-.11-.43-.18-.65-.21-.11-.01-.21-.01-.32,0-.6.04-1.18.27-1.65.65-.07.05-.14.1-.21.15-.35.27-.61.64-.74,1.06-.02.14-.02.28,0,.42,0,.34.08.68.21.99-.38.01-.75.14-1.07.36-.31.22-.55.53-.69.89-.14.36-.17.75-.09,1.12.08.37.27.72.54.98-.5.02-.98.18-1.38.46-.41.28-.73.67-.93,1.13s-.26.96-.19,1.45c.07.49.29.95.61,1.32-.57-.12-1.17-.07-1.71.15h-.06c-.44.15-.82.42-1.11.79-.28.36-.46.8-.5,1.26,0,.17.03.35.08.51.06.21.15.41.27.59l.15.21s.06.07.08.11c-.57.06-1.11.25-1.59.55l-.21.19c-.14.12-.27.25-.38.39v.06c-.24.3-.39.67-.42,1.06,0,.15.05.3.14.42.09.12.22.2.37.24l.06.06c-.17.07-.33.17-.46.3-.47.44-.76,1.04-.8,1.69-.12.99.15,1.98.74,2.78.31.43.46.95.4,1.48-.15.78-.07,1.58.24,2.31.31.73.82,1.35,1.48,1.79.14.06.26.16.36.28.09.12.15.27.17.42.24.88.71,1.69,1.37,2.32l.51.53c.21.58.55,1.11.99,1.54.12.11.25.2.4.27.31.15.65.22.99.19.21,0,.28.08.37.27.12.35.34.65.62.89.28.24.62.39.99.45.36.05.69.23.93.51l.06.06c.06.06.11.11.15.17.12.16.28.29.47.38.18.09.38.13.59.13h.15c.02.71-.07,1.43-.27,2.11-.11.27.89,1.93.82,2.11.25,0,1.06.08,1.99.11h.36c.33-.01.66.01.99.06.57,0,1.06.06,1.27.06-.17-1.28-.57-4.22-.63-5.52.54.21,1.13.2,1.67-.02.53-.22.96-.64,1.18-1.17.15-.25.25-.32.51-.23.85.28,1.66-.44,1.89-1.69.32-.5.57-1.04.74-1.6,0-.25.11-.27.3-.25,1.37.27,2.47-.95,2.6-2.78.05-1.07-.07-2.14-.36-3.17-.09-.28-.15-.57-.17-.87,1.06.08,1.89-.57,2.31-1.85.56-1.11.67-2.38.32-3.57l-.23.16Z"/><path class="cls-62" d="M593.54,315.34c.21-1.88,3.7-8.58-3.74-9.92,3.08-.44,2.03-6.7-1.13-5.82,1.13-2.39-1.2-4.77-3.17-3.65-.31-.39-.72-.7-1.18-.89-.46-.19-.97-.25-1.47-.18-.5.07-.97.26-1.36.57-.4.31-.71.71-.9,1.17-.48-.33-1.07-.47-1.65-.41-.58.07-1.12.34-1.52.77-.37.28-.64.68-.74,1.14-.11.45-.05.93.16,1.35-.39,0-.76.13-1.08.35-.32.22-.56.53-.7.89-.14.36-.17.75-.09,1.13.08.38.28.72.56.98-.5.02-.98.18-1.39.46-.41.28-.73.67-.93,1.13-.2.45-.26.96-.19,1.45.07.49.28.95.61,1.33-2.11-.46-4.53,1.67-2.77,3.63-.64,0-1.27.23-1.76.65-.49.42-.81,1-.91,1.64.4.63.96,1.14,1.61,1.49.66.35,1.39.53,2.13.52.82.91.95,4.84,3.46,3.06.7,1.23,2.11,3.49,4.08,2.02.42-.27.49-.21.61.23.78,2.64,3.79,2.36,4-.4.29.37.68.65,1.12.79.45.14.93.15,1.37.01.45-.14.85-.4,1.14-.77.29-.37.47-.81.5-1.28-.51-2.75,2.59-.08,2.56-2.44.23.18.51.29.8.33.29.04.58,0,.86-.1.27-.11.51-.28.7-.5.19-.22.31-.49.37-.78v.06Z"/><path class="cls-62" d="M594.09,313.16c-.16.46-.42.88-.76,1.22-.34.34-.76.6-1.22.76-.51.11-.84-.38-1.29-.46-.11,1.35-.13,1.37-1.18,1.35-.45,0-.94,0-1.4-.08.03.59.03,1.18,0,1.77,0,.48-.11.95-.33,1.38-.23.42-.56.78-.96,1.04-.34.2-.74.29-1.14.25-.4-.04-.77-.21-1.06-.48-.21-.17-.4-.4-.65-.63-.08.64-.35,1.23-.78,1.71-1.15,1.44-2.82.38-3.17-1.22-.13-.57-.19-.65-.61-.3-1.41,1.18-3.49.32-3.79-2.27,0-.25,0-.59-.3-.25-.87,1.06-2.11.3-2.6-.82-.31-.7-.46-1.45-.42-2.22,0-.4,0-.82-.44-.8-1.61.13-1.72-.19-2.69-1.74-.61.44-1.82,1.93-.46,2.35-.39.18-.72.47-.95.83-.23.36-.37.77-.38,1.2-.1,1.08.22,2.16.89,3.01.14.17.23.38.28.59s.04.44-.02.65c-.15.78-.07,1.58.24,2.31.31.73.83,1.35,1.49,1.78.14.07.26.17.35.29.09.12.15.27.17.42.23.88.7,1.69,1.35,2.32.17.17.34.36.51.55.17.19.44.21.68.3.52.28,1.13.36,1.71.23.34-.11.51,0,.76.3.24.39.59.7,1,.89.42.19.88.25,1.33.17.52-.18,1.01-.44,1.46-.76.08-.46.42-.7.57-1.12l.13.08c.78,1.35,1.69,1.56,2.74.65.12-.13.22-.17.28,0,.06.17.42.44.57.76.53,0,1.12.17,1.54-.49.08-.13.21,0,.3,0,.24.22.52.4.83.51.31.11.64.15.96.12.33-.03.64-.12.93-.28.29-.16.54-.37.74-.63.31-.5.55-1.04.71-1.6,0-.23.13-.27.32-.23,1.35.25,2.47-.95,2.6-2.78.05-1.07-.07-2.14-.36-3.17-.1-.28-.16-.57-.17-.87,1.06.08,1.9-.57,2.32-1.85.56-1.11.67-2.39.32-3.59-.25-.48-.55-.94-.91-1.35v.19Z"/><path class="cls-43" d="M579.21,334.81c-1.63,4.3,2.51,2.37,5.5,2.75-1.12-3.07-.23-6.73-1.37-9.5-1.06.19-2.23,1.29-3.17-.74-1.55,1.48-.14,5.22-.96,7.48Z"/><path class="cls-64" d="M189.2,328.31c.08-1.1.36-2.17.82-3.17.35-.88.75-1.74,1.2-2.58.46.19.96.25,1.45.18.49-.07.96-.27,1.34-.58.18-.13.32-.16.39.08.61,1.55,2.03.97,3.69.84.07,0,.65,1.06.76,1.06.04.29.03.58-.05.85-.08.28-.22.54-.4.75-.19.22-.42.4-.68.52-.26.12-.55.18-.83.19-.12,0-.24.05-.33.13-.1.07-.16.18-.2.29-.12.2-.28.37-.47.49-.2.12-.42.19-.65.21-.23.02-.46-.03-.67-.12-.21-.09-.39-.24-.53-.42-.34,1.37-3.13,2.43-4.84,1.27Z"/><path class="cls-64" d="M200.68,309.66c.91-.72,1.51-1.77,1.66-2.92.2-.83.09-1.7-.31-2.45-.4-.75-1.07-1.32-1.87-1.61-.28-.07-.39-.11-.32-.53.04-.23.04-.47-.01-.69-.05-.23-.15-.44-.29-.63-.14-.19-.31-.35-.51-.47s-.42-.2-.65-.23c-.52-.02-1.04.12-1.48.4-.37.21-.72.42-1.06.65-.14-1.58-.74-2.5-1.83-2.74s-2.03.56-3.03,2.71c-.68-2.11-1.71-2.73-3.53-2.11,0-1.71-1.06-2.92-3.05-2.11-1.08.41-1.99,1.17-2.59,2.16-.33.52-.52,1.12-.56,1.73-.05.61.06,1.23.3,1.79-.73-.17-1.49-.22-2.24-.16-.86.12-1.66.53-2.26,1.16-.66.64-1.05,1.51-1.09,2.42-.04.92.28,1.82.88,2.51-2.45-.51-4.72,2.47-4.58,4.92.71.65,2.79-.11,3.74-.44.13,0,.18.05.21.18.28,1.5.92,3.17,2.11,2.59.58-.26.81-1.51.74-.72-.08.53.03,1.08.32,1.54.29.46.73.79,1.25.94.5.08,1.02.02,1.49-.16.47-.19.89-.49,1.2-.89.21-.24.26-.21.32.13.21,2.01,1.99,3.17,3.58,2.29.9-.47,1.16-.47,1.64-1.45.26-.53.81-.26,1.06.21.24.47.79,0,1.29.34,1.74,1.19,3.56.61,3.85-1.73,0,0,.34,2.24-.11.62,0,0,.65,1.06,0-.62.23,0,0,.71.21.83.44.4,1.36-.34,1.89-.11.36.14.75.17,1.14.12.38-.06.74-.21,1.05-.45.31-.24.55-.55.7-.9.15-.36.21-.74.18-1.13.18,0,.47.81.63.9.37.18.79.25,1.2.21.41-.04.8-.18,1.14-.42.34-.24.6-.56.78-.94.17-.37.24-.79.2-1.2.06-.65-.01-1.3-.21-1.92-.21-.56-.61-1.04-1.14-1.33-.53-.29-1.14-.38-1.73-.26-.08-.01-.16-.04-.23-.08l-.06.04Z"/><path class="cls-64" d="M182.32,313.75c0,.42.09.84.3,1.2.2.37.5.68.86.89.36.22.77.33,1.19.33.42,0,.83-.11,1.2-.32.55-.22,1.03-.56,1.42-1,.32-.37.5-.37.71.11.33.85.95,1.55,1.74,1.99.34.2.72.31,1.11.34.39.03.79-.03,1.15-.17.37-.14.69-.37.96-.66.27-.29.47-.63.58-1.01.08-.28.14-.28.32-.07.31.36.7.65,1.14.83.44.18.92.26,1.39.22.49-.03.95-.24,1.29-.58.34-.35.55-.81.58-1.3,0-.43.19-.56.55-.37.21.15.45.25.7.29.25.04.51.01.75-.07.24-.09.46-.23.63-.42.17-.19.3-.41.36-.66.05-.13.08-.18.21-.13.41.14.85.18,1.29.12s.84-.23,1.19-.49c-.14.94-.64,1.79-1.39,2.36.3.06.59.19.84.37.25.18.45.42.6.69.15.27.23.57.25.88.02.31-.03.62-.14.91-.1.76-.38,1.49-.83,2.11-.45.62-1.04,1.13-1.73,1.47-.2.1-.38.25-.51.43-.13.18-.22.4-.25.62-.08.31-.23.6-.43.85-.2.25-.45.46-.73.61-.4.19-.85.26-1.3.19-.44-.07-.85-.26-1.18-.56-.16-.16-.37,0-.53.13-.45.5-1.03.86-1.68,1.06-.57.24-1.18.36-1.79.36s-1.23-.12-1.79-.36c-.34,0-.58-.37-.94-.32-.27-.39-.63-.72-1.06-.94-.51-.61-.98-1.21-1.45-1.83-.11-.15-.21-.25-.35,0-.59.88-1.49,1.5-2.52,1.74-.75.17-1.53.1-2.24-.21-.47-.28-.58-.07-.69.32-.38.48-.86.89-1.4,1.18-.39.19-.81.28-1.23.28s-.85-.1-1.23-.28c-.27-.22-.6-.34-.95-.34s-.68.12-.95.34c-.8.27-1.67.24-2.45-.09-.78-.33-1.41-.93-1.77-1.69-.41-.86-.64-1.79-.66-2.74-.03-.95.15-1.89.51-2.77.09-.31.27-.58.52-.79.25-.21.55-.33.87-.36-.47-.43-.84-.97-1.07-1.57s-.31-1.24-.25-1.88c.11-1.29.7-2.48,1.66-3.35v.53c-.03.38.05.76.21,1.11.16.35.4.65.71.88.31.23.66.38,1.04.44.38.06.76.02,1.12-.11.15-.09.33-.12.51-.11-.04.35.02.71.15,1.03.14.32.35.61.63.83.27.22.6.37.95.43.35.06.7.04,1.04-.07.53-.13,1.04-.33,1.52-.6.18-.12.39-.19.61-.19l.12-.06Z"/><path class="cls-43" d="M184.33,320.54c1.18-2.34,2.55,1.32,3.45,3.95.44-1.27-.72-5.87.94-5.74,1.9-.5,1.21.19.79,1.53-1.23,5.76,6.11.39,2.98,2.84-6.01,4.69-1.18,14.88-2.79,15.09-6.98.42-1.92-2.98-2.59-9.77-.28-2.98-5.58-5.97-4.08-7.66,1.58,1.82,2.55,2.61,1.27-.21l.03-.02Z"/><path class="cls-62" d="M401.21,308.99c.91-.72,1.51-1.77,1.66-2.92.2-.83.09-1.7-.31-2.45-.4-.75-1.07-1.32-1.87-1.61-.28-.07-.39-.11-.32-.53.04-.23.04-.47-.01-.69s-.15-.44-.29-.63c-.14-.19-.31-.35-.51-.47-.2-.12-.42-.2-.65-.23-.52-.02-1.04.12-1.48.4-.37.21-.72.42-1.06.65-.14-1.58-.74-2.5-1.83-2.74-1.09-.24-2.03.56-3.03,2.71-.68-2.11-1.71-2.73-3.53-2.11,0-1.71-1.06-2.92-3.05-2.11-1.08.41-1.99,1.17-2.59,2.16-.33.52-.52,1.12-.56,1.73-.05.61.06,1.23.3,1.8-.73-.17-1.49-.22-2.24-.16-.86.12-1.66.53-2.26,1.16-.66.64-1.05,1.51-1.09,2.42-.04.92.28,1.82.88,2.51-2.45-.51-4.72,2.47-4.58,4.92.71.65,2.79-.11,3.74-.44.13,0,.18.05.21.18.28,1.5.92,3.17,2.11,2.59.58-.26.81-1.51.74-.72-.08.53.03,1.08.32,1.54.29.46.73.79,1.25.94.5.08,1.02.02,1.49-.16.47-.18.89-.49,1.2-.89.21-.24.26-.21.32.13.21,2.01,1.99,3.17,3.58,2.29.9-.47,1.16-.47,1.64-1.45.26-.53.81-.26,1.06.21.24.47.79,0,1.29.34,1.74,1.19,3.56.61,3.85-1.73,0,0,.34,2.24-.11.62,0,0,.65,1.06,0-.62.23,0,0,.71.21.83.44.4,1.36-.34,1.89-.11.36.13.75.17,1.14.12.38-.06.74-.21,1.05-.45.31-.24.55-.55.7-.9.15-.35.21-.74.18-1.13.18,0,.47.81.63.9.37.18.79.25,1.2.21.41-.04.81-.18,1.14-.42.34-.24.6-.56.78-.94.17-.38.24-.79.2-1.2.06-.65-.01-1.3-.21-1.92-.21-.57-.61-1.04-1.14-1.33-.53-.29-1.14-.38-1.73-.26-.08-.01-.16-.04-.23-.08l-.06.04Z"/><path class="cls-62" d="M382.86,313.08c0,.42.09.84.3,1.2.2.37.5.67.86.89.36.21.77.33,1.19.33.42,0,.83-.11,1.2-.32.55-.22,1.03-.56,1.42-1,.32-.37.5-.37.71.11.33.85.95,1.55,1.74,1.99.34.2.72.31,1.11.34.39.03.79-.03,1.15-.17.37-.14.69-.37.96-.66.27-.29.47-.63.58-1.01.08-.28.14-.28.32-.07.31.36.7.65,1.14.83.44.18.92.26,1.39.23.49-.03.95-.24,1.29-.58.34-.35.55-.81.58-1.29,0-.43.19-.56.55-.37.21.15.45.25.7.29.25.04.51.01.75-.07s.46-.23.63-.42c.17-.19.3-.42.37-.66.05-.13.08-.18.21-.13.41.14.85.18,1.29.12.43-.06.84-.23,1.19-.49-.14.94-.64,1.79-1.39,2.36.3.06.59.19.84.37.25.18.46.42.6.69.15.27.24.57.25.88.02.31-.03.62-.14.91-.1.76-.38,1.49-.83,2.11-.45.62-1.04,1.13-1.73,1.47-.2.1-.38.25-.51.43-.13.18-.22.4-.25.62-.08.31-.23.6-.43.85-.2.25-.45.46-.73.61-.4.19-.85.26-1.3.19-.44-.07-.85-.26-1.18-.56-.16-.16-.37,0-.53.13-.45.5-1.03.86-1.68,1.06-.57.24-1.18.36-1.79.36s-1.23-.12-1.79-.36c-.34,0-.58-.37-.94-.32-.27-.39-.63-.72-1.06-.94-.51-.61-.98-1.21-1.45-1.83-.11-.15-.21-.25-.35,0-.59.88-1.49,1.5-2.52,1.74-.75.17-1.53.1-2.24-.21-.47-.28-.58-.07-.69.32-.38.48-.86.89-1.4,1.18-.39.18-.81.28-1.23.28s-.85-.1-1.23-.28c-.27-.22-.6-.34-.95-.34s-.68.12-.95.34c-.8.27-1.67.24-2.45-.09-.78-.33-1.41-.93-1.77-1.69-.41-.86-.64-1.79-.66-2.74-.03-.95.14-1.89.51-2.77.09-.31.27-.58.52-.79.25-.2.55-.33.87-.36-.47-.43-.84-.97-1.07-1.57-.23-.6-.31-1.24-.25-1.88.1-1.29.7-2.48,1.66-3.35v.53c-.03.38.05.76.21,1.11.16.35.4.65.71.88.31.23.66.38,1.04.43.38.06.76.02,1.12-.11.15-.09.33-.13.51-.11-.04.35.02.7.15,1.03.14.33.35.61.63.83.28.22.6.37.95.43.35.06.7.04,1.04-.07.53-.13,1.04-.33,1.52-.6.18-.13.39-.19.61-.19l.12-.06Z"/><path class="cls-43" d="M384.86,319.88c1.18-2.34,2.55,1.32,3.45,3.95.44-1.27-.72-5.87.94-5.74,1.9-.5,1.21.19.79,1.53-1.23,5.76,6.11.39,2.98,2.84-6.01,4.69-1.18,14.88-2.79,15.09-6.98.42-1.92-2.98-2.59-9.77-.28-2.98-5.58-5.97-4.08-7.66,1.58,1.82,2.55,2.61,1.27-.21l.03-.02Z"/><path class="cls-18" d="M187.24,310.55c-.29-.59-.65-1.14-1.06-1.66.6-1.81.7-3.74.3-5.6-.35-1.14-1.1-2.12-2.11-2.74-.86-.56-1.81-.96-2.82-1.18h-.07l-.71-.14c.08.02.16.02.23,0,2.66-.63,2.55-5.02.71-6.69-.24-.22-.51-.39-.82-.5s-.63-.15-.95-.13c-.19,0-.37.05-.55.11.05-.13.11-.26.16-.36.31-.81.3-1.72-.03-2.52-.33-.81-.96-1.45-1.76-1.81-.33-.14-.69-.21-1.06-.21-.43,0-.86.12-1.23.35-.25-.34-.57-.62-.93-.84-.37-.23-.78-.39-1.2-.47-.14.02-.28.02-.42,0h-.19c-.09-.01-.19-.01-.28,0-.66.05-1.3.28-1.85.66-.54.39-.97.91-1.24,1.52-.49-.37-1.08-.56-1.69-.56-.86.08-1.67.45-2.29,1.06-.45,2.54-1.25,5-2.37,7.31-.62.02-1.22.22-1.74.57-.51.35-.92.84-1.16,1.41-.25.57-.33,1.2-.24,1.81.09.62.36,1.19.76,1.66-2.58-.58-5.66,2.11-3.44,4.53-.71.07-1.4.31-2.01.69-.09.07-.18.15-.26.23-.18.15-.34.33-.47.53v.07c-.55.74-.92,1.69.11,2.11l.08.08c-.22.09-.42.22-.61.36-.6.55-.97,1.3-1.06,2.11-.14,1.34.24,2.68,1.06,3.76.18.21.3.47.36.74.06.27.05.55-.02.82-.37,2.05.61,4.37,2.11,5.11.18.08.33.2.45.36.12.16.19.34.22.53.29,1.1.87,2.1,1.68,2.9.24.21.42.47.63.69v.11c.27.73.7,1.39,1.27,1.92.16.14.33.26.53.34.33.17.69.25,1.06.24h.21c.26,0,.37.11.5.37.15.44.42.82.77,1.12.35.3.78.49,1.24.56.23.03.45.1.64.21.2.11.37.27.51.45l.08.07s.11.16.18.24c.23.27.54.47.88.58.18.05.36.06.55.05.04.9-.07,1.79-.34,2.65-.14.35,1.06,2.41,1.06,2.71.32,0,1.42.08,2.58.14h.88c.24-.02.47-.02.71,0,.72,0,1.29.07,1.58.11-.21-1.6-.72-5.28-.79-6.9,1.42.51,2.63,0,3.58-1.5.19-.32.32-.37.61-.28.35.11.73.09,1.07-.05.34-.14.62-.4.8-.72.26-.4.44-.85.53-1.32.4-.62.7-1.29.9-1.99.07-.3.16-.35.39-.3.55.11,1.12,0,1.6-.28.43-.29.8-.68,1.07-1.13.27-.45.43-.96.48-1.48,0-.18,0-.39.08-.58v-1.37c-.01-.21-.04-.42-.08-.63v-.07c-.07-.55-.18-1.11-.32-1.69l-.05-.16-.07-.32c-.1-.24-.13-.5-.11-.76h.55c.23,0,.46-.06.66-.18.41-.21.77-.51,1.06-.88.29-.36.5-.78.61-1.23.14-.36.24-.73.35-1.06.1-.3.18-.61.23-.92.14-.85.08-1.72-.18-2.53l-.05-.19Z"/><path class="cls-64" d="M183.77,311.05c.25-2.34,4.63-10.72-4.67-12.4,3.84-.56,2.52-8.38-1.42-7.27,1.42-2.98-1.5-5.95-3.89-4.56-.39-.49-.9-.87-1.48-1.1-.58-.23-1.21-.31-1.83-.22-.62.09-1.2.33-1.7.71-.49.38-.88.88-1.13,1.46-1.25-.9-2.61-.71-4.01.45-.47.35-.8.85-.93,1.42-.13.57-.06,1.16.2,1.68-.49,0-.96.16-1.36.43-.4.28-.71.67-.89,1.12-.18.45-.21.95-.1,1.43s.36.91.71,1.24c-.62.02-1.22.22-1.74.57-.51.35-.92.84-1.17,1.41-.25.57-.33,1.2-.24,1.81.09.61.36,1.19.77,1.66-2.61-.58-5.66,2.11-3.45,4.53-1.71.24-3,.95-3.34,2.87.5.79,1.19,1.43,2.01,1.87.82.44,1.74.66,2.67.63,1.06,1.14,1.18,6.06,4.32,3.82.87,1.55,2.61,4.37,5.11,2.53.53-.35.6-.26.76.28.98,3.29,4.74,2.94,5-.5,1.66,1.94,5.06,1.18,5.16-1.56-.63-3.44,3.24-.11,3.17-3.05.29.23.63.38.99.44.36.06.73.02,1.08-.11.34-.13.65-.35.88-.63.23-.28.39-.62.45-.98l.05.02Z"/><path class="cls-64" d="M184.43,308.31c-.2.58-.53,1.1-.96,1.53-.43.43-.96.75-1.54.94-.63.13-1.06-.47-1.6-.58-.13,1.69-.16,1.71-1.48,1.69-.57,0-1.18,0-1.76-.11.04.73.04,1.47,0,2.21.01.6-.13,1.19-.41,1.72-.28.53-.69.98-1.2,1.3-.43.25-.92.36-1.41.31-.49-.05-.96-.26-1.32-.6-.26-.21-.51-.51-.82-.79-.1.79-.44,1.52-.97,2.11-1.45,1.79-3.53.47-4.03-1.53-.16-.71-.23-.81-.76-.37-1.76,1.48-4.37.4-4.74-2.84,0-.32,0-.74-.37-.32-1.06,1.37-2.64.37-3.24-1.06-.39-.87-.57-1.81-.53-2.77,0-.51,0-1.06-.55-1.06-2.03.16-2.16-.24-3.38-2.18-.76.55-2.26,2.42-.58,2.94-.48.23-.89.59-1.18,1.03-.29.45-.46.97-.47,1.5-.13,1.35.27,2.69,1.11,3.76.17.22.29.47.34.74.05.27.05.55-.02.82-.37,2.03.63,4.37,2.11,5.11.17.09.32.21.44.37.11.16.19.34.22.53.29,1.1.87,2.1,1.69,2.89.21.21.42.44.63.69s.55.26.83.37c.65.34,1.4.44,2.11.28.42-.13.63,0,.95.37.29.5.73.89,1.25,1.14.52.24,1.11.33,1.67.23.65-.23,1.26-.55,1.82-.95.11-.58.53-.87.72-1.39l.16.11c.97,1.68,2.11,1.94,3.42.81.16-.16.28-.21.37,0,.13.45.53.56.71.95.66,0,1.4.21,1.92-.6.11-.16.26-.05.37,0,.3.28.65.49,1.04.62.39.13.79.19,1.2.15.41-.03.8-.15,1.16-.34.36-.19.67-.46.93-.78.39-.62.69-1.29.89-1.99,0-.3.16-.35.4-.3,1.68.32,3.08-1.18,3.24-3.47.06-1.32-.09-2.65-.45-3.93-.12-.34-.19-.69-.21-1.06,1.37.11,2.37-.72,2.9-2.32.53-1.6.95-2.61.39-4.48-.31-.6-.69-1.17-1.13-1.69l.15.25Z"/><path class="cls-64" d="M166.44,332.65c.16-1.58.16-3.16,0-4.74-.56.4-1.17.72-1.82.97-.57.09-1.16.01-1.68-.24s-.96-.65-1.24-1.16c-.3-.42-.53-.53-.95-.4-.72.16-1.46.06-2.11-.28-.3-.11-.56-.24-.84-.37.65,1.69,1.6,2.73,3.08,2.63.26,0,.37.11.47.37.14.44.41.83.76,1.13.35.3.78.49,1.24.56.24.03.48.11.69.24.21.13.39.3.53.5.18.32.46.57.8.71.34.14.71.17,1.07.08h.01Z"/><path class="cls-43" d="M165.83,335.36c-2.03,5.37,3.17,2.98,6.88,3.44-1.4-3.84-.3-8.44-1.72-11.89-1.39.23-2.79,1.6-3.97-.93-1.92,1.88-.16,6.56-1.19,9.38Z"/><path class="cls-19" d="M390.9,251.15c.09,1.12-5.79,3.01-11.61,3.01s-11.7-1.89-11.61-3.01c.11-1.3,8.17-1.58,11.61-1.58s11.5.28,11.61,1.58Z"/><path class="cls-55" d="M375.12,125.79h6.42l2.84,125.26c-.75.84-1.67,1.51-2.7,1.97-1.03.46-2.14.7-3.26.7s-2.24-.24-3.26-.7c-1.03-.46-1.94-1.13-2.69-1.97l2.66-125.26Z"/><path class="cls-21" d="M378.46,253.71c-1.13-.01-2.24-.25-3.27-.71-1.03-.46-1.96-1.12-2.72-1.95l2.66-125.26h3.29"/><path class="cls-23" d="M382.17,124.45h-7.38c-.3,0-.54.24-.54.54v7.53c0,.3.24.54.54.54h7.38c.3,0,.54-.24.54-.54v-7.53c0-.3-.24-.54-.54-.54Z"/><path class="cls-50" d="M381.61,125.34l3.05,1.77c.18.11.33.25.46.42.12.17.21.36.25.57l1.41,6.67c.09.41.27.8.52,1.13.26.33.58.61.96.8l55.8,28.43c.33.17.7.22,1.06.14l1.97-.41c.08-.02.16-.06.22-.12.06-.06.1-.14.12-.23.02-.09,0-.17-.03-.25-.03-.08-.09-.15-.16-.2l-63.33-41.83"/><path class="cls-20" d="M385.37,128.1l1.41,6.67c.08.41.26.8.52,1.13.26.34.58.61.96.8.88.47,14.16,7.24,32.38,16.48"/><path class="cls-50" d="M375.23,125.31l-3.05,1.77c-.18.11-.34.25-.46.42s-.21.37-.25.57l-1.4,6.66c-.09.41-.27.8-.52,1.14-.26.34-.58.61-.95.81l-55.78,28.39c-.33.17-.7.22-1.06.15l-1.96-.42c-.09-.02-.16-.06-.23-.12-.06-.06-.1-.14-.12-.23-.02-.09,0-.17.03-.26.03-.08.09-.15.16-.2l63.33-41.82"/><path class="cls-20" d="M371.48,128.19l-1.4,6.67c-.09.41-.27.79-.53,1.13-.26.33-.58.61-.95.8-.88.47-14.13,7.19-32.3,16.35"/><path class="cls-50" d="M376.68,116.1l.14-3.53c.01-.21-.02-.42-.1-.61-.08-.19-.19-.37-.34-.52l-4.87-4.77c-.3-.29-.53-.65-.68-1.04-.15-.39-.2-.82-.16-1.24l6.01-62.33c.03-.36.19-.7.44-.96l1.41-1.44c.06-.06.14-.1.22-.12.09-.02.17-.01.25.02.08.03.15.09.2.16.05.07.08.15.08.24l1.29,75.86"/><path class="cls-20" d="M376.29,111.43l-4.87-4.77c-.3-.3-.53-.66-.68-1.06-.14-.4-.19-.82-.16-1.25.06-.99,1.52-15.78,3.55-36.01"/><path class="cls-45" d="M380.81,114.88c.15.69.28,1.37.42,2.11,0,.03,0,.05,0,.08,0,.03-.02.05-.04.07-.02.02-.04.03-.06.04-.02,0-.05.01-.08.01-1.65-.68-3.49-.68-5.14,0,0,0-.2-.08-.18-.19.11-.69.21-1.36.31-2.04,0-.03.02-.05.03-.07.02-.02.04-.04.06-.05.02-.01.05-.02.07-.02.03,0,.05,0,.08,0,.72.23,1.47.34,2.23.32.72,0,1.43-.12,2.11-.35.04,0,.07,0,.11.01.03.02.06.04.08.07Z"/><path class="cls-45" d="M381.96,126.08l-1.93-.87s-.04-.03-.05-.06c-.01-.02-.02-.05-.02-.07s0-.05.02-.07c.01-.02.03-.04.05-.06.75-.48,1.4-1.1,1.92-1.83.49-.72.85-1.52,1.06-2.36,0,0,.18-.12.25,0l1.48,1.42s.04.04.05.06c.01.02.02.05.02.08s0,.05-.02.08c-.01.02-.03.04-.05.06-1.17.88-2.03,2.11-2.46,3.51,0,.03-.02.06-.05.09-.02.02-.05.04-.08.05-.03,0-.07.01-.1,0-.03,0-.06-.02-.09-.05Z"/><path class="cls-45" d="M375.07,126.08l1.93-.87s.03-.04.04-.06c0-.02.01-.05.01-.07s0-.05-.01-.07c-.01-.02-.02-.04-.04-.06-.75-.48-1.41-1.1-1.92-1.83-.5-.72-.85-1.52-1.06-2.36,0,0-.18-.12-.25,0l-1.48,1.42s-.04.04-.05.06c-.01.02-.02.05-.02.08s0,.05.02.08c.01.02.03.04.05.06,1.17.88,2.03,2.11,2.46,3.51,0,.03.02.06.05.09.02.02.05.04.08.05.03,0,.07.01.1,0,.03,0,.06-.02.09-.05Z"/><path class="cls-52" d="M378.49,125.24c2.5,0,4.53-2.03,4.53-4.53s-2.03-4.53-4.53-4.53-4.53,2.03-4.53,4.53,2.03,4.53,4.53,4.53Z"/><path class="cls-23" d="M378.49,124.5c2.09,0,3.79-1.7,3.79-3.79s-1.7-3.79-3.79-3.79-3.79,1.7-3.79,3.79,1.7,3.79,3.79,3.79Z"/><path class="cls-50" d="M378.4,123.52c1.56,0,2.82-1.26,2.82-2.82s-1.26-2.82-2.82-2.82-2.82,1.26-2.82,2.82,1.26,2.82,2.82,2.82Z"/><path class="cls-41" d="M433.43,174.63c.46,1.34,1.24,2.54,2.27,3.52,1.03.97,2.27,1.69,3.63,2.08,1.69.28,2.96.26,3.26,1.14.31.88-3.17,4.55-8.22,3.95-5.06-.6-6.44-3.17-7.11-4.14,1.88-2.35,3.94-4.54,6.17-6.55Z"/><path class="cls-41" d="M430.78,167.81c.47,9.56-9.65,16.18-13.86,17.09-1.17-1.06-4.29-.57-7.75-1.84-1.21-.44-2.34-1.07-3.36-1.86-1.56-1.23-2.92-2.7-4-4.37-2.54-3.98-3.89-9.88,1.56-16.94,8.2-10.55,17.94-6.45,22.16-2.52,3.27,3,4.31,6.7,5.23,10.44Z"/><path class="cls-41" d="M432.96,181.66s1.06,4.83,1.18,6.33c.15,2.48-2.11,6.16-4.4,6.98-2.29.81-1.21-3.86-1.69-4.72-.47-.85-1.82-3.77-1.82-3.77,0,0,1.86-6.97,6.72-4.82Z"/><path class="cls-50" d="M417.57,177.71c.72-.26,1.35-.72,1.8-1.33.46-.61.72-1.35.76-2.11.04-.76-.15-1.52-.54-2.18-.39-.66-.97-1.18-1.66-1.51-.69-.33-1.46-.45-2.22-.34-.76.11-1.46.44-2.03.95-.57.51-.97,1.18-1.16,1.92-.19.74-.15,1.52.1,2.24.34.97,1.06,1.76,1.98,2.2.93.44,1.99.5,2.96.16Z"/><path class="cls-42" d="M416.52,177.33c.51-.18.96-.5,1.28-.93.33-.43.52-.95.55-1.49.03-.54-.1-1.08-.38-1.54-.28-.46-.68-.84-1.17-1.07-.49-.23-1.03-.32-1.57-.24-.53.08-1.03.31-1.43.68s-.68.84-.81,1.36c-.13.52-.1,1.08.08,1.58.25.67.74,1.22,1.39,1.53.64.31,1.38.35,2.06.12Z"/><path class="cls-50" d="M415.39,176.9c.08-.02.15-.06.21-.12.06-.05.11-.12.15-.19.03-.07.05-.15.06-.23,0-.08,0-.16-.04-.24-.05-.15-.17-.28-.31-.35-.15-.07-.31-.08-.47-.02-.15.05-.28.17-.35.31-.07.15-.08.31-.03.47.05.15.17.28.31.35.15.07.31.08.47.02Z"/><path class="cls-50" d="M424.91,167.85c.66-.23,1.25-.66,1.67-1.22.42-.56.67-1.24.71-1.95s-.13-1.4-.49-2.01c-.36-.61-.89-1.09-1.53-1.4-.64-.31-1.35-.42-2.05-.32-.7.1-1.35.4-1.88.87-.53.47-.9,1.09-1.08,1.77-.18.68-.14,1.4.09,2.07.32.89.97,1.62,1.82,2.03.85.41,1.83.46,2.73.15Z"/><path class="cls-28" d="M424.1,167.53c.51-.18.95-.5,1.27-.93.32-.43.51-.94.54-1.48.03-.54-.1-1.07-.38-1.53-.27-.46-.68-.83-1.16-1.06-.48-.23-1.02-.31-1.56-.24-.53.08-1.03.31-1.43.67-.4.36-.68.83-.82,1.35-.13.52-.11,1.07.07,1.57.12.34.3.65.54.91.24.27.53.48.85.64.32.15.67.24,1.03.26.36.02.71-.03,1.05-.15Z"/><path class="cls-50" d="M422.7,166.89c.16-.06.28-.17.36-.32.07-.15.08-.32.03-.48-.03-.08-.07-.15-.13-.21-.05-.06-.12-.11-.2-.15-.07-.04-.16-.06-.24-.06-.08,0-.16,0-.24.04-.08.03-.15.07-.21.13-.06.06-.11.12-.15.2-.03.07-.05.16-.06.24,0,.08,0,.16.04.24.05.16.17.28.32.35.15.07.32.08.47.03Z"/><path class="cls-27" d="M410.95,173.64l-.14.2c0,.06-.07.14-.12.21-.04.07-.07.14-.1.2-.03.05-.05.11-.06.17v.09c-.02.05-.06.1-.11.13-.05.02-.12.02-.17,0h-.09s0-.06,0-.09c-.03-.11-.05-.22-.05-.34v-.87c-.02-.06-.02-.13,0-.19.03-.06.07-.12.13-.16.06-.03.12-.06.19-.07.06-.02.13-.02.19,0,.06.02.12.05.18.08.06.04.11.09.14.15.03.06.05.12.06.19.01.06.01.13,0,.19-.01.04-.03.07-.05.11Z"/><path class="cls-27" d="M425.88,171.15c.1-.03.18-.1.24-.18.06-.08.09-.18.1-.28,0-.1-.02-.2-.07-.29-.05-.09-.13-.16-.22-.2-.09-.04-.19-.06-.3-.04-.1.01-.2.06-.27.13-.08.07-.13.16-.16.26-.03.1-.02.2.01.3.02.07.05.13.1.18.05.05.1.09.16.12.06.03.13.05.2.05.07,0,.14,0,.2-.03Z"/><path class="cls-27" d="M427.11,169.46c.19.17.33.38.41.61.06.25.06.51,0,.76-.04.25-.15.49-.31.7-.15.19-.34.36-.55.47h-.15v-.05c0-.09.13-.17.19-.26l.16-.26c.1-.17.16-.36.18-.56.04-.41,0-.82-.14-1.2h.11l.09-.2Z"/><path class="cls-65" d="M418.63,186.71c.18.83.06,1.7-.34,2.45-.66.93-2.29,1.68-2.8,1.06-.51-.62.15-1.4,1.48-1.26,1.33.15,1.66-2.25,1.66-2.25Z"/><path class="cls-65" d="M417.92,187.29c-.3.26-.67.43-1.06.51-.56.08-.54.75,0,.76.54.01,1.06-1.27,1.06-1.27Z"/><path class="cls-41" d="M423.48,186.95c-.18.43-.39.85-.62,1.26-.87,1.46-2.03,2.73-3.42,3.72-1.39.99-2.96,1.67-4.63,2.01-.95.08-1.91-.07-2.79-.44-.88-.37-1.66-.94-2.28-1.67-.53-.62-.76-1.22-.49-1.6.84-1.18,2.73-.15,4.59-1.68,0,0,.3.26.69.66l3.17-3.57,5.78,1.31Z"/><path class="cls-27" d="M421.14,158.14l.25-.14.26-.11.28-.11c.12-.01.25-.01.37,0,.03,0,.07,0,.11,0,.04.01.07.04.09.06l.06.08s0,.08,0,.12c.01.04.01.08,0,.12-.02.04-.05.08-.08.11l-.14.12c-.05,0-.1.03-.14.07-.06.04-.12.08-.17.13l-.18.15c0,.05-.13.11-.17.16-.09.09-.2.14-.33.14-.12,0-.24-.05-.33-.13-.04-.04-.07-.09-.09-.15-.02-.06-.02-.12,0-.18-.01-.06-.01-.11,0-.17.02-.06.05-.11.09-.16l.11-.08v-.03Z"/><path class="cls-41" d="M416.23,184.13l-.12-.11.65-.39c-.22.2-.39.37-.54.5Z"/><path class="cls-41" d="M430.76,183.22l-2.35,5.08-12.78,1.5-1.54-.51-.23-.73s2.26-1.31,2.78-2.49c.14-.31.18-.66.11-.99.33-.29.64-.61.93-.94.1-.15.15-.33.13-.51-.02-.18-.1-.35-.22-.48l4.32-2.59,8.88,2.66Z"/><path class="cls-41" d="M432.17,167.73s2.65,10.55,1.59,19l-10.89-4.39,9.3-14.61Z"/><path class="cls-17" d="M423.48,186.95c-.77,1.78-1.97,3.34-3.48,4.56-1.51,1.22-3.29,2.05-5.19,2.43-2.8.53-6.16-2.43-5.6-3.59.61.73,1.4,1.3,2.28,1.67.88.37,1.84.52,2.79.44,1.67-.34,3.25-1.02,4.63-2.01,1.39-.99,2.55-2.25,3.42-3.72l1.15.22Z"/><path class="cls-41" d="M421.28,186.9c0,1.22-1.2,6.49-2.4,7.21-1.19.72-1.95.96-1.94,1.65.01.69,3.37,2.28,6.71.51,3.35-1.77,5.55-9.5,5.75-10.37-3.78-2.1-8.13,1.01-8.13,1.01Z"/><path class="cls-17" d="M408.08,181.71c2.54.52,5.16.48,7.68-.11-.84.21-5.11,1.26-6.6,1.45-1.2-.44-2.33-1.06-3.35-1.85-1.57-1.23-2.92-2.71-4-4.38.69.74,4.22,4.34,6.26,4.89Z"/><path class="cls-41" d="M417.89,183.24c.04.16.04.32,0,.47-.03.16-.1.31-.2.43-3.97,4.56-9.21,2.77-10.23,2.63-1.01-.14-2.44,1.35-3.53,1.73-.06.01-.12.01-.18,0-.8,0-.15-2.34-.15-2.34.98-2.78,1.96-3.37,3.25-3.75,1.56-.46,3.17.53,8.36-1.82,1.01-.4,2.51,1.34,2.67,2.64Z"/><path class="cls-17" d="M416.23,184.13c.26.26.45.58.54.94-3.81,3.35-8.35,1.82-9.29,1.7-.94-.12-2.44,1.35-3.51,1.73-.55.19-.62-.41-.57-1.06.06.01.13.01.19,0,1.06-.38,2.49-1.86,3.51-1.72,1.02.14,5.31,1.57,9.13-1.59Z"/><path class="cls-51" d="M432.38,154.73c-.34.9-1.06,2.11-.57,2.86.49.75,1.93-.32,3.75-.82.51-.13.78.16.83.11.05-.05-.13-.45-.5-1.16-.77-1.48-3.2-1.85-3.51-.98Z"/></g><path class="cls-50" d="M832.39,173.37c0,9.55-7.01,17.29-17.88,17.29-9.88,0-17.52-7.51-17.52-17.06,0-10.04,7.82-17.06,17.7-17.06s17.7,7.27,17.7,16.82ZM814.69,184.23c5.86,0,10.04-4.75,10.04-10.62s-3.75-10.62-10.04-10.62-10.04,4.75-10.04,10.62,4.14,10.62,10.04,10.62Z"/><path class="cls-50" d="M918.21,173.37c0,9.55-7.01,17.29-17.88,17.29-9.88,0-17.52-7.51-17.52-17.06,0-10.04,7.82-17.06,17.7-17.06s17.7,7.27,17.7,16.82ZM900.51,184.23c5.86,0,10.04-4.75,10.04-10.62s-3.75-10.62-10.04-10.62-10.04,4.75-10.04,10.62,4.14,10.62,10.04,10.62Z"/><path class="cls-50" d="M957.25,176.77s0-13.07,0-16.45c.62-4.73,7.28-2.19,7.28-2.19v17.63h0c0,5.49,3.77,8.18,8.41,8.18s8.41-2.6,8.41-8.19c0,0,.02-12.04.02-15.42.62-4.73,7.28-2.19,7.28-2.19v11.34c.95,13.97,14.31,15.02,14.31,15.02,13.3,1.84,12.13-3.62,12.13-3.62-.34-2.75-2.39-3.37-5.93-3.83-2.2-.28-4.11-.47-4.11-.47-14.26-.9-12.86-10.31-12.86-10.31.18-7.96,8.7-9.17,8.7-9.17,7.52-1.34,12.84-.02,12.84-.02,11.71,2.44,5.94,7.98,4.98,8.3,0,0-3.12-2.86-10.41-3.27-8.98-.57-8.83,3.67-8.83,3.67-.29,3.09,3.67,3.66,3.67,3.66l9.63,1.35c11.37,1.59,9.99,9.66,9.99,9.66-.75,10.09-12.77,10.17-12.77,10.17-16.45.95-22.64-7.58-22.64-7.58-2.3,4.59-6.91,7.65-14.55,7.65-9.12,0-15.54-5.11-15.54-14.28"/><path class="cls-50" d="M850.38,157.09c-13.15.94-16.15,13.16-15.83,16.72-.18,5.37,3.57,16.85,18.1,16.86,1.91-.04,3.67-.21,5.27-.5v-6.52c-1.39.25-3.07.4-5.1.45-6.78.17-10.63-5.39-10.61-10.3,0-5.69,4.65-10.36,10.61-10.3h11.75s.03,16.09.03,16.09c0,0-.85,13.63,16.38,10.77v-6.49c-9.56,2.06-9.04-3.95-9.04-3.95v-16.4h9.04v-6.44h-9.04v-7.59h-7.34v7.59h-14.21Z"/><path class="cls-50" d="M927.66,200.44c-.62,4.73-7.28,2.19-7.28,2.19v-29.03c.42-9.26,5.96-16.8,17.37-17.06,10.07-.22,17.3,7.27,17.37,16.82.07,10.12-7.03,17.64-17.51,17.2-3.74-.21-7.39-1.68-9.91-4.92,0,0-.03,11.41-.03,14.79ZM937.56,184.26c5.8,0,9.94-4.75,9.94-10.62s-3.71-10.62-9.94-10.62-9.94,4.75-9.94,10.62,4.1,10.62,9.94,10.62Z"/><path class="cls-50" d="M1059.7,183.4c-2.84,3.3-6.76,5.04-11.35,5.04-4.24,0-7.82-1.5-10.37-4.35-2.39-2.67-3.7-6.43-3.7-10.57v-.61h28.21v-.26c-.15-4.3-1.68-8.24-4.3-11.09-2.77-3.01-6.49-4.6-10.77-4.6-8.73,0-15.06,6.96-15.06,16.56s6.57,16.7,15.99,16.7c5.16,0,9.56-1.9,12.72-5.5l.15-.17-1.35-1.35-.17.2ZM1034.46,171.13c1.03-7.54,6.1-12.4,12.97-12.4,3.53,0,6.65,1.29,9.03,3.73,2.18,2.24,3.55,5.31,3.88,8.67h-25.87Z"/><path class="cls-50" d="M1092.39,161.1c-2.49-2.63-6.11-4.14-9.93-4.14,0,0,0,0,0,0-3.82,0-7.44,1.51-9.93,4.14-2.38,2.54-3.49,5.83-3.49,10.35v18.05h1.92v-18.05c0-4,.97-6.91,3.07-9.16,2.05-2.19,5.29-3.55,8.44-3.55,3.15,0,6.38,1.36,8.44,3.55,2.09,2.25,3.07,5.16,3.07,9.16v18.05h1.92v-18.05c0-4.53-1.11-7.82-3.49-10.35Z"/><path class="cls-50" d="M1152.48,156.96c-3.82,0-7.44,1.51-9.94,4.14-2.38,2.54-3.49,5.83-3.49,10.35v18.05h1.92v-18.05c0-4,.97-6.91,3.07-9.16,2.06-2.19,5.29-3.55,8.44-3.55h.25v-1.78h-.25Z"/><path class="cls-50" d="M1129.66,183.4c-2.84,3.3-6.76,5.04-11.35,5.04-4.24,0-7.82-1.5-10.37-4.35-2.39-2.67-3.7-6.43-3.7-10.57v-.61h28.21v-.26c-.15-4.3-1.68-8.24-4.3-11.09-2.77-3.01-6.49-4.6-10.77-4.6-8.73,0-15.06,6.96-15.06,16.56s6.57,16.7,15.99,16.7c5.16,0,9.56-1.9,12.72-5.5l.15-.17-1.35-1.35-.17.2ZM1104.42,171.13c1.03-7.54,6.1-12.4,12.97-12.4,3.53,0,6.65,1.29,9.03,3.73,2.18,2.24,3.55,5.31,3.88,8.67h-25.87Z"/><polygon class="cls-50" points="1217.2 157.67 1204.95 183.58 1191.22 157.67 1189.17 157.67 1203.9 185.77 1194.03 206.74 1196.14 206.74 1219.31 157.67 1217.2 157.67"/><path class="cls-50" d="M1170.92,156.96c-4.54,0-8.71,1.73-11.74,4.87-2.98,3.09-4.62,7.26-4.62,11.75s1.64,8.67,4.62,11.75c3.03,3.14,7.2,4.87,11.74,4.87,5.95,0,10.75-2.93,13.33-8.09v6.84c0,3.84-.13,8.17-1.68,10.92-2.07,3.64-5.96,5.64-10.97,5.64-6.67,0-11.27-3.54-13.18-6.58l-.14-.23-1.55,1.16.14.2c1.17,1.7,5.67,7.23,14.73,7.23,5.71,0,10.07-2.21,12.61-6.39,1.81-3.04,1.96-7.8,1.96-12.02v-15.19s0-.08,0-.12c0-9.79-6.27-16.63-15.26-16.63ZM1184.24,173.59c0,8.74-5.48,14.85-13.32,14.85s-14.42-6.52-14.42-14.85,6.33-14.85,14.42-14.85,13.32,6.11,13.32,14.85Z"/></svg>