<?xml version="1.0" encoding="UTF-8"?><svg id="Layer_1" xmlns="http://www.w3.org/2000/svg" xmlns:xlink="http://www.w3.org/1999/xlink" version="1.1" viewBox="0 0 1903 767"><!--Generator: Adobe Illustrator 29.2.1, SVG Export Plug-In . SVG Version: 2.1.0 Build 116)--><defs><clipPath id="clippath"><rect x="723.9" y="575.8" width="62" height="61.4" fill="none"/></clipPath><linearGradient id="linear-gradient" x1="759.6" y1="156.1" x2="752.2" y2="154.2" gradientTransform="translate(1519 767) rotate(-180)" gradientUnits="userSpaceOnUse"><stop offset="0" stop-color="#000"/><stop offset=".5" stop-color="#100030"/><stop offset=".8" stop-color="#180070"/><stop offset="1" stop-color="#000"/></linearGradient><linearGradient id="linear-gradient1" x1="433" y1="159.3" x2="636.9" y2="159.3" xlink:href="#linear-gradient"/><linearGradient id="linear-gradient2" x1="775.7" y1="160.1" x2="768.4" y2="158.3" xlink:href="#linear-gradient"/><clipPath id="clippath-1"><rect x="967" y="407.2" width="121.4" height="7.7" fill="none"/></clipPath><clipPath id="clippath-2"><rect x="989.6" y="427" width="122.1" height="9.7" fill="none"/></clipPath><clipPath id="clippath-3"><rect x="1003.1" y="440.8" width="123.5" height="10.4" fill="none"/></clipPath><clipPath id="clippath-4"><rect x="912.7" y="508.5" width="10.7" height="1.6" fill="none"/></clipPath><clipPath id="clippath-5"><rect x="925.5" y="508.5" width="10.5" height="1.6" fill="none"/></clipPath><clipPath id="clippath-6"><rect x="920.3" y="510.9" width="2.8" height="29.8" fill="none"/></clipPath><clipPath id="clippath-7"><rect x="915.1" y="515.7" width="3.5" height="3.1" fill="none"/></clipPath><clipPath id="clippath-8"><rect x="925.8" y="520.7" width="10.3" height="2.6" fill="none"/></clipPath><clipPath id="clippath-9"><rect x="911.4" y="507.8" width="24.6" height="32.2" fill="none"/></clipPath><clipPath id="clippath-10"><rect x="839.3" y="508.5" width="10.7" height="1.6" fill="none"/></clipPath><clipPath id="clippath-11"><rect x="852.2" y="508.5" width="10.5" height="1.6" fill="none"/></clipPath><clipPath id="clippath-12"><rect x="846.9" y="510.9" width="2.8" height="29.8" fill="none"/></clipPath><clipPath id="clippath-13"><rect x="838.8" y="508.5" width="24.6" height="32.7" fill="none"/></clipPath><clipPath id="clippath-14"><rect x="866.7" y="572" width="10.6" height="4.6" fill="none"/></clipPath><clipPath id="clippath-15"><rect x="520.3" y="643.2" width="209.1" height="19.4" fill="none"/></clipPath><clipPath id="clippath-16"><rect x="1190.1" y="438.2" width="31.5" height="3.9" fill="none"/></clipPath><clipPath id="clippath-17"><rect x="1192.2" y="427.5" width="19.3" height="3.8" fill="none"/></clipPath><clipPath id="clippath-18"><rect x="1190.4" y="429.8" width="20.3" height="3.9" fill="none"/></clipPath><clipPath id="clippath-19"><rect x="1192.3" y="433.7" width="17.2" height="3" fill="none"/></clipPath><clipPath id="clippath-20"><rect x="1162.8" y="434.7" width="31.5" height="3.9" fill="none"/></clipPath><clipPath id="clippath-21"><rect x="1164.9" y="424" width="19.3" height="3.8" fill="none"/></clipPath><clipPath id="clippath-22"><rect x="1163.1" y="426.2" width="20.3" height="3.9" fill="none"/></clipPath><clipPath id="clippath-23"><rect x="1164.9" y="430.2" width="17.2" height="3" fill="none"/></clipPath><clipPath id="clippath-24"><rect x="939.5" y="553.5" width="89" height="69.1" fill="none"/></clipPath><linearGradient id="linear-gradient3" x1="993.2" y1="161.5" x2="995.4" y2="167.4" gradientTransform="translate(0 767) scale(1 -1)" xlink:href="#linear-gradient"/><linearGradient id="linear-gradient4" x1="980.8" y1="165" x2="982.6" y2="169.8" gradientTransform="translate(0 767) scale(1 -1)" xlink:href="#linear-gradient"/><clipPath id="clippath-25"><rect x="378.2" y="50.2" width="300" height="172.2" fill="none"/></clipPath><clipPath id="clippath-26"><rect x="378.2" y="50.2" width="300" height="172.2" fill="none"/></clipPath><clipPath id="clippath-27"><path d="M500.6,109.7c0,4.7,3.8,8.4,8.4,8.4s8.4-3.8,8.4-8.4-3.8-8.4-8.4-8.4-8.4,3.8-8.4,8.4" fill="none"/></clipPath><linearGradient id="linear-gradient5" x1="5.6" y1="7.4" x2="5.7" y2="7.4" gradientTransform="translate(1563.7 -1271.3) rotate(-180) scale(187.7 -187.7)" gradientUnits="userSpaceOnUse"><stop offset="0" stop-color="#000"/><stop offset=".4" stop-color="#18122d"/><stop offset=".8" stop-color="#292861"/><stop offset="1" stop-color="#000"/></linearGradient><clipPath id="clippath-28"><rect x="378.2" y="50.2" width="300" height="172.2" fill="none"/></clipPath><clipPath id="clippath-29"><path d="M537.3,109.7c0,4.6,3.8,8.4,8.4,8.4s8.4-3.8,8.4-8.4-3.8-8.4-8.4-8.4-8.4,3.8-8.4,8.4" fill="none"/></clipPath><linearGradient id="linear-gradient6" x1="-6.8" y1="-7.5" x2="-6.7" y2="-7.5" gradientTransform="translate(1793.4 -1271.8) scale(183.7 -183.7)" xlink:href="#linear-gradient5"/><clipPath id="clippath-30"><rect x="378.2" y="50.2" width="300" height="172.2" fill="none"/></clipPath></defs><rect width="1903" height="767" fill="#170d54"/><path d="M277.4,578.2s67.4-215.6,341-255.2c114.9-16.6,208-91.3,300.8-159.4,155.9-114.4,406-206.1,563.9-33.2,114,124.8,115.6,329.6,98.5,489.8" fill="#63cae1"/><g><path d="M1048.5,264.2c-.4,0-.8,0-1.3,0-5.8-.3-6-7.3-6-7.3,0-.2.1-.3.3-.3.2,0,.3.1.3.3,0,.3.2,6.4,5.4,6.7,5.2.3,5.9-6.7,6-7,0-.2.2-.3.4-.3.2,0,.3.2.3.4,0,0-.7,6.7-5.4,7.5" fill="#221e54"/><path d="M1024.9,253.8s0,0,0,0c-.2,0-.3-.1-.4-.3,0,0-.4-7.1-4.5-7.3-4-.3-4.9,6.9-4.9,7,0,.2-.2.3-.4.3-.2,0-.3-.2-.3-.4,0-.3.9-7.9,5.6-7.6,4.7.3,5.1,7.6,5.1,8,0,.2-.1.3-.3.3" fill="#221e54"/><path d="M1082.6,252.7s0,0,0,0c-.2,0-.3-.1-.3-.3,0,0-.2-7.3-4.5-7.2-4.3.1-5.3,6.7-5.3,6.8,0,.2-.2.3-.4.3-.2,0-.3-.2-.3-.4,0-.3,1.1-7.3,6-7.4,4.9,0,5.1,7.5,5.1,7.8,0,.2-.1.3-.3.3" fill="#221e54"/><g><path d="M1134.3,248.1c7.1,41.2-20.6,80.5-61.8,87.6-41.2,7.1-80.5-20.6-87.6-61.8-7.1-41.2,20.6-80.5,61.8-87.6,41.2-7.1,80.5,20.6,87.6,61.8" fill="#f8c04f"/><path d="M1048.5,264.2c-.4,0-.8,0-1.3,0-5.8-.3-6-7.3-6-7.3,0-.2.1-.3.3-.3.2,0,.3.1.3.3,0,.3.2,6.4,5.4,6.7,5.2.3,5.9-6.7,6-7,0-.2.2-.3.4-.3.2,0,.3.2.3.4,0,0-.7,6.7-5.4,7.5Z" fill="none" stroke="#221f1f" stroke-miterlimit="10" stroke-width="1.1"/><path d="M1024.9,253.8s0,0,0,0c-.2,0-.3-.1-.4-.3,0,0-.4-7.1-4.5-7.3-4-.3-4.9,6.9-4.9,7,0,.2-.2.3-.4.3-.2,0-.3-.2-.3-.4,0-.3.9-7.9,5.6-7.6,4.7.3,5.1,7.6,5.1,8,0,.2-.1.3-.3.3Z" fill="none" stroke="#221f1f" stroke-miterlimit="10" stroke-width="1.1"/><path d="M1082.6,252.7s0,0,0,0c-.2,0-.3-.1-.3-.3,0,0-.2-7.3-4.5-7.2-4.3.1-5.3,6.7-5.3,6.8,0,.2-.2.3-.4.3-.2,0-.3-.2-.3-.4,0-.3,1.1-7.3,6-7.4,4.9,0,5.1,7.5,5.1,7.8,0,.2-.1.3-.3.3Z" fill="none" stroke="#221f1f" stroke-miterlimit="10" stroke-width="1.1"/><path d="M1085.4,261.4c.2,3.4-3.3,6.5-8,6.8-4.7.3-8.6-2.2-8.9-5.6-.2-3.4,3.3-6.5,8-6.8,4.7-.3,8.6,2.2,8.9,5.6" fill="#ee4498"/><path d="M1027.8,262.3c.2,3.4-3.3,6.5-8,6.8-4.7.3-8.6-2.2-8.9-5.6-.2-3.4,3.3-6.5,8-6.8,4.7-.3,8.6,2.2,8.9,5.6" fill="#ee4498"/></g></g><path d="M813.6,485.5l-14.6,3.3c-5-81.1-57.2-74.7-57.2-74.7-48.8,5.5-52.7,50.8-52.2,69l-18.3-3.9c4.4-22.2,21.2-81.9,71.7-81.1,56.7.9,68.9,74.7,70.6,87.5" fill="#c3e8f5"/><path d="M892.4,470.8l-43.5,6.9-20.6,4.6-8.2,1.8-5.8,1.3h-.4c0,0-14.6,3.3-14.6,3.3-5-81.1-57.3-74.7-57.3-74.7-48.9,5.5-52.8,50.8-52.3,69l-18.3-3.9-12.5-2.6-17.9-3.9-8.4-1.8-2.1,2.6-45.6-11.3c8.2-133,151.6-136.6,151.6-136.6,148.2-.9,156,145.2,156,145.2" fill="#59438f"/><path d="M868.3,455.2c.3,6.8-8.2,14.8-19.6,22.5l-20.6,4.6-8.2,1.8-5.8,1.3-.3.6v-.6l-14.6,3.3c-5-81.1-57.2-74.7-57.2-74.7-48.9,5.5-52.8,50.8-52.3,69l-18.3-3.9-12.5-2.6-17.9-3.9-8.4-1.8-17.8-3.8s10.5-126.1,122.6-124.1c112,2,130,92.4,130.9,112.2" fill="#ee4498"/><path d="M829.1,470.7c-3.5,5.3-6.9,10.2-9.2,13.4l-5.8,1.3-.3.6v-.6l-14.6,3.3c-5-81.1-57.3-74.7-57.3-74.7-49,5.5-52.9,50.8-52.4,69l-18.4-3.9-12.5-2.6-17.9-3.9-8.5-17.5,4.1-14.9s25.4-80.4,103.6-80.7c78.2-.4,102.5,74.8,104.8,81.1,1.3,3.5-7.6,18-15.6,30.1" fill="#f6a8c9"/><path d="M831.2,444.2l-2.1,26.5-.9,11.7-8.3,1.8-5.8,1.3-.3.6v-.6l-14.6,3.3c-5-81.2-57.2-74.8-57.2-74.8-48.9,5.5-52.8,50.9-52.3,69.1l-18.3-3.9-12.5-2.6-17.9-3.9-8.4-1.8,7-8.7,11.6-14.3s23.3-77.9,93.2-74.2c69.9,3.7,87,70.5,86.9,70.5" fill="#f8a16c"/><path d="M824.7,463.5l-10.7,22-.3.6v-.6l-14.6,3.3c-5-81.1-57.2-74.8-57.2-74.8-48.9,5.5-52.8,50.9-52.3,69.1l-18.3-3.9-12.5-2.6,2.5-17.2s23.5-73.9,80.6-75c57.1-1.1,82.9,79.1,82.9,79.1" fill="#00a998"/><path d="M827.8,477.3s144-83.5,272.5-72.7c151.7,12.7,220.3,86.8,220.3,86.8l-413.1,74.8-54.6-14.2-25.2-74.6Z" fill="#008066"/><path d="M443.2,412.5c77.2-18.5,357.5-32.5,440.1,118.4h-447s-2.8-18-35.8-6.5c-9.8,3.4-130.7,57.7-127.2,46.7,41.7-133.9,164-154.2,169.9-158.6" fill="#008066"/><path d="M1639,664.8c-.5.9-1,1.8-1.5,2.6-3,4.5-7.4,7.8-12,10.4-6.9,3.9-14.4,6.9-21.8,9.5-4,1.4-8,2.7-12,3.9-4.5,1.3-9,2.6-13.6,3.8-5,1.3-10,2.5-15.1,3.6-5.5,1.2-11,2.4-16.5,3.5-5.9,1.2-11.9,2.3-17.8,3.4-6.4,1.1-12.8,2.2-19.1,3.2-6.8,1.1-13.6,2.1-20.4,3.1-7.2,1-14.4,2-21.5,2.9-7.5,1-15.1,1.9-22.7,2.8-7.9.9-15.8,1.8-23.7,2.6-8.2.9-16.5,1.7-24.7,2.5-8.5.8-17.1,1.6-25.6,2.3-8.8.8-17.7,1.5-26.5,2.2-9.1.7-18.2,1.4-27.3,2-9.3.7-18.7,1.3-28,1.8-9.6.6-19.1,1.1-28.7,1.7-9.8.5-19.6,1-29.3,1.5-10,.5-19.9.9-29.9,1.3-10.1.4-20.3.8-30.4,1.1-10.3.4-20.5.7-30.8,1-10.4.3-20.8.5-31.2.8-10.5.2-21,.4-31.5.6-10.6.2-21.2.3-31.8.4-10.6,0-21.3.2-31.9.2-10.7,0-21.4,0-32.1,0-10.7,0-21.4-.1-32.1-.2-10.7-.1-21.4-.2-32.1-.4-10.7-.2-21.4-.4-32.1-.6-10.6-.2-21.3-.5-31.9-.8-10.6-.3-21.2-.7-31.8-1.1-10.5-.4-21-.8-31.5-1.3-10.4-.5-20.8-1-31.2-1.5-10.3-.5-20.6-1.1-30.8-1.7-10.1-.6-20.3-1.3-30.4-2-10-.7-19.9-1.4-29.9-2.2-9.8-.8-19.6-1.6-29.3-2.4-9.6-.8-19.2-1.7-28.7-2.7-9.4-.9-18.7-1.9-28-2.9-9.1-1-18.2-2-27.3-3.2-8.8-1.1-17.7-2.2-26.5-3.4-8.6-1.2-17.1-2.4-25.6-3.7-8.2-1.2-16.5-2.5-24.7-3.9-7.9-1.3-15.8-2.7-23.7-4.2-7.6-1.4-15.1-2.9-22.7-4.4-7.2-1.5-14.4-3.1-21.6-4.7-6.8-1.6-13.6-3.2-20.4-5-6.4-1.7-12.8-3.4-19.1-5.2-6-1.7-11.9-3.6-17.9-5.5-5.5-1.8-11-3.7-16.5-5.8-5.1-1.9-10.1-3.9-15.1-6.1-4.6-2-9.1-4.1-13.6-6.4-4.1-2.1-8.1-4.3-12-6.7-2.3-1.4-4.5-2.8-6.7-4.3-117.2-79.9,112.9-128.9,122.7-130l41.2-4.4s105.1-1.4,220.4,8c115.3,9.4,280.4,10.9,376.1-28.7,177.1-73.1,272,1.5,272,1.5,7.9,16.8,41.3,22.9,58.6,25.9,6.7,1.2,13.3,2.2,20,3.3,8.4,1.4,16.8,2.7,25.1,4.1,9.6,1.6,19.2,3.3,28.8,5.2,10.4,2,20.8,4.1,31.1,6.4,10.7,2.4,21.3,5,31.9,7.8,10.5,2.8,20.9,5.9,31.3,9.5,9.9,3.3,19.6,7,29.2,11.3,8.8,3.9,17.4,8.2,25.7,13.3,7.3,4.5,14.4,9.6,20.8,15.5,5.6,5.2,10.6,11.2,14.4,18,6.5,11.6,8.2,25,5.5,38.2-.3,1.3-.6,2.5-.9,3.8-.8,3-1.8,6-3.2,8.8" fill="#009f7e"/><path d="M636.1,536.4c-7.1-5,98.2-11.9,98.2-11.9,0,0-142-1.5-145.4,8.3-3.4,9.7,35.4,17.9,41.1,22.9,5.7,5-235.8,11.4-224.6,41.2,11.2,29.8,113.2,102.9,495.6,94.4,382.4-8.5,480.1-62.5,453.6-95.8-26.5-33.4-176.1-47.2-176.1-47.2v21.8s106.3,10,85.4,25.4c-31.8,26.4-97.8,46-353.4,50.9-255.6,5-337-40.3-372.6-56.6-35.6-16.3,121-12.1,137.3-20.6,16.4-8.5-31.9-27.7-39.1-32.7" fill="#dadcef"/><polygon points="894.8 382.2 798.8 474.1 798.8 616.4 990.8 616.4 990.8 474.1 894.8 382.2" fill="#ee8cba"/><rect x="990.8" y="472.1" width="187.8" height="144.4" fill="#f6a8c9"/><polygon points="895.6 384.1 1085.6 384.1 1179.4 474 991.7 474 895.6 384.1" fill="#59438f"/><g clip-path="url(#clippath)"><g><path d="M737.6,622c9.4,7.8,26.3,3.5,31.4,1.2.4-2.9,7.4-5.7,9.4-13.7,1.5-6,2.3-21.2-17.2-26.1-19.4-4.9-26.9,8.1-28.2,16.2-.9,6.2,2.5,11.7,2.4,14.9,1,1.3.9,6.5,2.1,7.5Z" fill="#ff48d8"/><path d="M741.6,625.2c-1.2,1.3-5.8,1.4-7.2,1.2-1.3-.3-2.8-3.4-2.7-5.5,0-2.1,3.7-11.3,3.7-11.3,0,0,7.4,14.4,6.2,15.7Z" fill="#ff48d8"/><path d="M751.9,622.9c-.3,1.2-3.1,8.6-7.9,11-4.8,2.4-9.4,0-9.4-1s1.3-1.4,2.8-2.2c1.7-1,6-9,6.1-10.7,0,0,3.2-.2,8.5,3Z" fill="#ff48d8"/><path d="M754.4,627.4c.3,1.2.8,4.1,5.5,6.5,4.8,2.4,9.4,0,9.4-1s-1.3-1.4-2.8-2.2c-1.7-1-2.7-3.4-2.8-5.2,0,0-4.1-1.2-9.4,1.9Z" fill="#ff48d8"/><path d="M757.3,626.3s-.4,4.4-.6,5.9c-.2,1.4-1,5.2-4.4,5.2s-4.2-3.3-4.7-5.3c-.6-2-1-5.4-1-5.4,5.5-5.1,10.8-.4,10.8-.4Z" fill="#ff48d8"/><path d="M769,611.1c0-3-2.4-5.5-5.4-5.5s-5.4,2.4-5.4,5.5,2.4,5.5,5.4,5.5,5.4-2.4,5.4-5.5Z" fill="#fff"/><path d="M766.8,611.8c0-2.1-1.7-3.8-3.8-3.8s-3.8,1.7-3.8,3.8,1.7,3.8,3.8,3.8,3.8-1.7,3.8-3.8Z" fill="url(#linear-gradient)"/><path d="M766.5,610.4c0-.5-.4-.9-.9-.9s-.9.4-.9.9.4.9.9.9.9-.4.9-.9Z" fill="#fff"/><path d="M752,606.9c0-2.8-2.2-5-5-5s-5,2.3-5,5,2.2,5,5,5,5-2.3,5-5Z" fill="#fff"/><path d="M750.6,607.7c0-2.1-1.7-3.8-3.8-3.8s-3.8,1.7-3.8,3.8,1.7,3.8,3.8,3.8,3.8-1.7,3.8-3.8Z" fill="url(#linear-gradient1)"/><path d="M750.7,607.8c0-2.1-1.7-3.8-3.8-3.8s-3.8,1.7-3.8,3.8,1.7,3.8,3.8,3.8,3.8-1.7,3.8-3.8Z" fill="url(#linear-gradient2)"/><path d="M750.1,606.1c0-.5-.4-.9-.9-.9s-.9.4-.9.9.4.9.9.9.9-.4.9-.9Z" fill="#fff"/><path d="M762,613c5.6,1.4,8.1,5.8,7.6,7.9-.5,2-3.8.9-9.4-.5-5.6-1.4-10.2-2.2-9.7-4.3.5-2,5.9-4.5,11.5-3.1Z" fill="#ff48d8"/><path d="M747.6,609.4c5.6,1.4,8.8,6,8.3,8.1-.5,2-4.5.7-10.1-.7-5.6-1.4-9.5-2.1-9-4.1.5-2,5.2-4.7,10.8-3.3Z" fill="#ff48d8"/><path d="M745.6,594.3h0c.1,0,.2,0,.3.2,0,0,0,.2,0,.3,0,.1,0,.2-.1.3,0,0-.2.1-.3.1h-.7c-.1,0-.2,0-.3,0,0,0-.2,0-.3,0h0c0,0-.1,0-.2,0,0,0,0,0,0,0,0,0,0,0,0,0,0,0,0,0,0-.1,0,0,0,0,0-.1,0,0,0,0,0,0,0,0,0,0,0,0,.1,0,.3-.2.4-.2.1,0,.3,0,.4-.1.1,0,.3,0,.4,0,.1,0,.2,0,.4,0h0Z" fill="#100030"/><path d="M769.7,601.5c0,0-.1-.2-.1-.3,0-.1,0-.2,0-.3s.2-.1.3-.2c.1,0,.2,0,.3,0,.1,0,.2.1.3.2,0,.1.2.2.3.3,0,0,.2.2.3.3,0,.1.2.2.2.4,0,0,0,.1,0,.1,0,0,0,0,0,.1,0,0,0,0-.1,0,0,0,0,0-.1,0h0c0,0-.1-.2-.2-.2,0,0-.2-.1-.3-.2l-.3-.2c-.1,0-.2,0-.3-.1,0,0,0,0,0,0Z" fill="#100030"/><path d="M762,629.6c-4.6-3.8-4.1-12.8-1.4-12.3,2.7.5,3.7,4.6,8.5,5.4,0,0-2.5,10.7-7.2,6.9Z" fill="#ff48d8"/><path d="M754.3,617.9c0,.4-.2.7-.4,1-.1.2-.3.4-.6.5-.2.1-.5.2-.8.2-.3,0-.5,0-.7-.2-.2-.1-.4-.3-.6-.5-.3-.6-.5-2.5,0-2,1.3,1.2,3,0,3,0,0,.4.1.7,0,1.1Z" stroke="#100030" stroke-linecap="round" stroke-miterlimit="10" stroke-width=".2"/><path d="M766.8,621.8c-.5,0-1-.3-1.5-.5-.5-.2-.9-.5-1.3-.9-.4-.4-.7-.8-.9-1.3-.2-.5-.5-.9-.9-1.3-.3-.4-.8-.6-1.3-.8-.2,0-.5,0-.7,0-.2.1-.4.3-.6.5-.3.4-.5.9-.7,1.4-.1.5-.2,1-.3,1.5,0,1,0,2.1.2,3.1.2,1,.5,2,1,2.9.2.4.5.9.9,1.2.4.4.7.7,1.2,1,.8.6,1.8,1,2.9,1.1h0c-1.1,0-2.1-.3-2.9-.9-.9-.6-1.6-1.4-2.2-2.3-1-1.9-1.4-4-1.2-6.1,0-.5.1-1,.3-1.5.1-.5.4-1,.7-1.4.2-.2.4-.4.6-.5.3-.1.5-.1.8,0,.5.1,1,.4,1.3.8.4.4.6.8.9,1.3.2.5.5.9.9,1.3.8.7,1.7,1.2,2.7,1.4h0Z"/></g></g><rect x="1115.4" y="508.9" width="29.3" height="35.6" fill="#2e2c74"/><rect x="1119.2" y="512.9" width="22.3" height="27" fill="#554696"/><rect x="1128.4" y="509.4" width="3.8" height="34.1" fill="#2e2c74"/><rect x="1118.1" y="525.1" width="24.4" height="3.8" fill="#2e2c74"/><rect x="1034.9" y="507.4" width="29.2" height="35.6" fill="#2e2c74"/><rect x="1038.5" y="511.4" width="22.3" height="27" fill="#554696"/><rect x="1047.8" y="507.9" width="3.8" height="34.1" fill="#2e2c74"/><rect x="1037.6" y="523.6" width="24.4" height="3.8" fill="#2e2c74"/><rect x="1034.9" y="563.5" width="29.2" height="35.6" fill="#2e2c74"/><rect x="1038.5" y="567.7" width="22.3" height="27" fill="#554696"/><rect x="1047.8" y="564" width="3.8" height="34.1" fill="#2e2c74"/><rect x="1037.6" y="579.9" width="24.4" height="3.8" fill="#2e2c74"/><rect x="1115.4" y="564" width="29.2" height="35.6" fill="#2e2c74"/><rect x="1119.2" y="568.1" width="22.3" height="27" fill="#554696"/><rect x="1128.4" y="564.4" width="3.8" height="34.1" fill="#2e2c74"/><rect x="1118.1" y="580.3" width="24.4" height="3.8" fill="#2e2c74"/><polygon points="1013.8 450.6 1127.5 451.2 1080.3 407.2 1038.6 407.2 967 408 1013.8 450.6" fill="#170d54"/><polygon points="1013.8 450.6 1127.5 451.2 1080.3 407.2 1038.6 407.2 967 408 1013.8 450.6" fill="none" stroke="#fff" stroke-miterlimit="10" stroke-width=".7"/><polygon points="967.4 407.8 966.5 408 1014.2 451.2 1014.9 450.4 967.4 407.8" fill="#fff"/><polygon points="990.3 407.4 989.3 407.6 1036.3 451.2 1037.5 450.9 990.3 407.4" fill="#fff"/><polygon points="998 436.6 999.6 437.8 1111.7 437.6 1112.4 436.5 998 436.6" fill="#fff"/><polygon points="979.7 420.3 981.3 421.5 1094.7 421.1 1094 420 979.7 420.3" fill="#fff"/><polygon points="1012.5 407.3 1010.9 407.2 1058.1 451.3 1059.6 451.1 1012.5 407.3" fill="#fff"/><polygon points="1034.8 407 1033 406.9 1080.5 451.7 1082 451.6 1034.8 407" fill="#fff"/><polygon points="1057.4 407 1055.8 406.8 1104.6 451.6 1105.3 450.8 1057.4 407" fill="#fff"/><polygon points="1080.3 407.2 1078.3 407 1126.8 451.2 1128.3 451.2 1080.3 407.2" fill="#fff"/><g isolation="isolate" opacity=".2"><g clip-path="url(#clippath-1)"><polygon points="1088.4 414.4 1077.8 407.2 967 408.3 975.9 414.9 1086.9 414.7 1088.4 414.4" fill="#dfb4d3"/></g></g><g isolation="isolate" opacity=".2"><g clip-path="url(#clippath-2)"><polygon points="1108.1 432.5 1102.7 427 989.6 427.2 999.5 436.7 1111.7 436.4 1108.1 432.5" fill="#dfb4d3"/></g></g><g isolation="isolate" opacity=".2"><g clip-path="url(#clippath-3)"><polygon points="1123.1 447.3 1117.8 441.8 1003.1 440.8 1013.1 450.4 1126.6 451.2 1123.1 447.3" fill="#dfb4d3"/></g></g><path d="M953.1,552.4c-.5,0-.9-.3-1.3-.7-.1-.3-4.3-5.6-4.3-11.4s1.1-4.2,2-6c1.6-3,2.8-5.5.8-9.3-4.4-7.8-.3-16.9-.1-17.3.4-.8,1.3-1.2,2.1-.8.8.4,1.2,1.3.8,2.1,0,.1-3.6,8.1-.1,14.4,3,5.2.9,9.3-.7,12.3-.8,1.6-1.6,3.2-1.6,4.6,0,4.6,3.6,9.4,3.6,9.4.5.7.4,1.7-.3,2.3-.3.3-.7.4-.9.4" fill="#f9f9fa"/><path d="M968.8,551c-.5,0-.9-.3-1.3-.7-.1-.3-4.3-5.6-4.3-11.4s1.1-4.2,2-6c1.6-3,2.8-5.5.8-9.3-4.4-7.8-.3-16.9-.1-17.3.4-.8,1.3-1.2,2.1-.8.8.4,1.2,1.3.8,2.1,0,.1-3.6,8-.1,14.4,3,5.2.9,9.3-.7,12.3-.8,1.6-1.6,3.2-1.6,4.6,0,4.6,3.6,9.4,3.6,9.4.5.7.4,1.7-.3,2.3-.3.4-.5.4-.9.4" fill="#f9f9fa"/><path d="M983.2,551c-.5,0-.9-.3-1.3-.7-.1-.3-4.3-5.6-4.3-11.4s1.1-4.2,2-6c1.6-3,2.8-5.5.8-9.3-4.4-7.8-.3-16.9-.1-17.3.4-.8,1.3-1.2,2.1-.8.8.4,1.2,1.3.8,2.1,0,.1-3.6,8-.1,14.4,3,5.2.9,9.3-.7,12.3-.8,1.6-1.6,3.2-1.6,4.6,0,4.6,3.6,9.4,3.6,9.4.5.7.4,1.7-.3,2.3-.3.4-.7.4-.9.4" fill="#f9f9fa"/><path d="M1208.9,570.6l-.4,42c-.1,7.1-7.9,10.3-17.6,10.2-9.7-.1-17.4-3.6-17.4-10.7l.4-42,35,.5Z" fill="#464392"/><path d="M1191.5,574.1c9.7.1,17.6-1.3,17.6-3.5s-7.8-3.9-17.4-4c-9.7-.1-17.6,1.3-17.6,3.5-.1,2,7.6,3.9,17.4,4" fill="#f9f9fa"/><path d="M1208.9,581.1v18.1c-3.2,7-13.3,7.5-19.2,6.3-7-1.3-11.1-9.4-8.5-13.8,2.7-4.4,8.6-3.8,12.3-4.3,8.5-1.2,15.2-6.2,15.3-6.3" fill="#3c5daa"/><path d="M1181.8,606.6c1.7-2.5,5.1-5.8,6.8-7.8.1,0,.1-.1,0-.3-.9-.8-2.1-2-3.1-2.8-.3-.1-.1-.3-.1-.4.1-.1.4-.3.4-.3,6.4-3.5,10.3-5.1,14-6.7.1,0,.3,0,.4.3.1.1.1.3,0,.5-1.3,1.7-3.8,4-5.4,5.6-.3.3-.5.7-.8.9-.1.3-.3.3-.1.4.5.4,1.1.8,1.7,1.2.9.7,1.7,1.1,2.7,1.6.7.5.1,1.1.1,1.1-4.8,2.5-16.1,7.9-16.8,7.8-.1-.5-.1-.8.1-1.2" fill="#f4d770"/><path d="M1191.5,571.2c3.9,0,7.1-.5,7.1-1.3s-3.1-1.5-7.1-1.6c-3.9,0-7.1.5-7.1,1.3s3.1,1.5,7.1,1.6" fill="#170d54"/><path d="M1191.2,569.6c1.1,0,2,0,2-.1s-.9-.1-2-.3c-1.1,0-2,0-2,.1s.9.3,2,.3" fill="#f9f9fa"/><path d="M1191.2,569.6c1.1,0,2,0,2-.1s-.9-.1-2-.3c-1.1,0-2,0-2,.1s.9.3,2,.3Z" fill="none" stroke="#f9f9fa" stroke-miterlimit="10" stroke-width=".3"/><rect x="908.2" y="503.8" width="31.9" height="39.6" fill="#dadbee"/><rect x="909.7" y="505.5" width="29" height="37.8" fill="#a29ec5"/><rect x="910.1" y="505.9" width="28.2" height="37" fill="#f1f9fa"/><rect x="906.2" y="543.4" width="36.4" height="4.6" fill="#f1f9fa"/><path d="M942.5,543.4v.5h-34.2c-.9,0-1.7.4-1.6,1.6v2.4h-.5v-4.6h36.4Z" fill="#dadbee"/><rect x="912.7" y="508.5" width="10.7" height="32.2" fill="#3c5daa"/><polygon points="936 508.5 936 540.7 925.5 540.7 925.7 508.5 936 508.5" fill="#3c5daa"/><g isolation="isolate" opacity=".3"><g clip-path="url(#clippath-4)"><rect x="912.7" y="508.5" width="10.7" height="1.6" fill="#2c2a68"/></g></g><g isolation="isolate" opacity=".3"><g clip-path="url(#clippath-5)"><rect x="925.5" y="508.5" width="10.5" height="1.6" fill="#2c2a68"/></g></g><line x1="913.2" y1="538" x2="913.7" y2="537.7" fill="none" stroke="#fff" stroke-miterlimit="10" stroke-width=".1"/><line x1="913.5" y1="538.4" x2="914" y2="538.1" fill="none" stroke="#fff" stroke-miterlimit="10" stroke-width=".1"/><path d="M923.1,540.7h-10.5v-29.8h8.3c1.1,0,2,.9,2,2v27.8Z" fill="#a39fc7"/><g isolation="isolate" opacity=".2"><g clip-path="url(#clippath-6)"><path d="M923.1,540.7h-1.9v-9.5c0-3.5,0-7.4-.1-10.7v-.3c0-4.8-.1-8.6-.3-8.7-.1-.3-.3-.4-.5-.5h.5c1.1,0,2,.9,2,2v21.6l.3,6.2Z" fill="#2c2a68"/></g></g><polygon points="923 520.2 923 520.4 921.1 520.4 912.5 520.4 912.5 520.2 921.1 520.2 923 520.2" fill="#2c2a68"/><g isolation="isolate" opacity=".2"><g clip-path="url(#clippath-7)"><path d="M918.2,515.7h-3.1s0,2.5.3,3.1h3.2c-.1,0-.7-2.1-.4-3.1" fill="#2c2a68"/></g></g><path d="M917.9,515.6h-3.1s0,2.5.3,3.1h3.2s-.5-2.1-.4-3.1" fill="#f8e59b"/><path d="M916.7,516.4c.4,0,.7-.3.7-.7s-.3-.7-.7-.7-.7.3-.7.7.3.7.7.7" fill="#59438f"/><g isolation="isolate" opacity=".3"><g clip-path="url(#clippath-8)"><path d="M935.9,520.8h-9.5q0-.1-.1-.1h-.1c-.1,0-.3.1-.3.3v1.3h.7v.9h.4v-.9h9.1v-.7h-.9c-.1.1-.4.1-.7.1s-.5-.1-.7-.1h-1.6c-.3.1-.5.3-.8.3s-.5-.1-.8-.3h-1.6c-.3.1-.5.3-.8.3s-.5-.1-.8-.3h-.8v-.4h9.7l-.3-.4Z" fill="#2c2a68"/></g></g><path d="M927.8,521.6c.8,0,1.5-.7,1.5-1.3s-.7-1.3-1.5-1.3-1.5.7-1.5,1.3.7,1.3,1.5,1.3" fill="#f1f9fa"/><path d="M931,521.6c.8,0,1.5-.7,1.5-1.3s-.7-1.3-1.5-1.3-1.3.7-1.3,1.3.5,1.3,1.3,1.3" fill="#f1f9fa"/><path d="M934.3,521.5c.8,0,1.3-.7,1.3-1.3s-.7-1.3-1.3-1.3-1.5.7-1.5,1.3.7,1.3,1.5,1.3" fill="#f1f9fa"/><path d="M935.9,520.7c0-.3.1-.4.3-.5v1.2q-.1-.1-.1-.3s0-.1-.1-.1v-.3Z" fill="#fff"/><path d="M928.5,519.6c-.1-.1-.4-.3-.5-.3s-.4.1-.5.3c-.1.1-.3.4-.3.7s.1.4.3.5h0c0,.1.1.3.1.3h.1c.1.1.3.1.4.1s.3,0,.4-.1h.1v-.3c.1-.1.1-.3.1-.5,0-.4-.1-.5-.3-.7M928.4,520.7q-.1.1-.3.1h-.5c-.1,0-.1-.1-.3-.1-.1-.1-.3-.3-.3-.5s.1-.4.3-.5c.1-.1.3-.3.5-.3s.4.1.5.3c.1.1.3.3.3.5s0,.4-.3.5" fill="#dfe2e5"/><path d="M931.7,519.5c-.1-.1-.4-.3-.5-.3s-.4.1-.5.3c-.1.1-.3.4-.3.7s.1.4.1.5h0c0,.1.1.3.1.3h.1c.1.1.3.1.4.1s.3,0,.4-.1h.1v-.3c.1-.1.1-.3.1-.5.1-.3,0-.4-.1-.7M931.6,520.7q-.1.1-.3.1h-.5c-.1,0-.1-.1-.3-.1-.1-.1-.3-.3-.3-.5s.1-.4.3-.5c.1-.1.3-.3.5-.3s.4.1.5.3c.1.1.3.3.3.5s-.1.4-.3.5" fill="#dfe2e5"/><path d="M934.1,519.2c-.3,0-.4.1-.5.3-.1.1-.3.4-.3.7s.1.4.1.5.1.1.1.1c.1.1.3.1.4.1s.3,0,.4-.1c0,0,.1,0,.1-.1h.1c.1-.3.1-.4.1-.7.3-.4-.1-.8-.7-.8M934.8,520.7q-.1.1-.3.1h-.5c-.1,0-.1-.1-.3-.1-.1-.1-.3-.3-.3-.5s.1-.4.3-.5c.1-.1.3-.3.5-.3.4,0,.8.3.8.8-.1.1-.3.4-.3.5" fill="#dfe2e5"/><rect x="926.4" y="521.8" width=".4" height="1.2" fill="#f7a16d"/><polygon points="935.9 520.7 936.1 520.7 936.1 520.8 929.2 520.8 928.4 520.8 926.2 520.8 926.2 520.7 926.6 520.7 927.3 520.7 935.9 520.7" fill="#f7a16d"/><path d="M926.1,521.6h-.1q-.1,0-.1-.1v-.8q0-.1.1-.1h.1q.1,0,.1.1v.9Z" fill="#f7a16d"/><g isolation="isolate" opacity=".2"><g clip-path="url(#clippath-9)"><rect x="911.4" y="507.8" width="24.6" height="32.2" fill="#fff"/></g></g><rect x="834.8" y="503.8" width="31.9" height="39.6" fill="#dadbee"/><rect x="836.3" y="505.5" width="29" height="37.8" fill="#a29ec5"/><rect x="836.7" y="505.9" width="28.2" height="37" fill="#f1f9fa"/><rect x="832.7" y="543.4" width="36.4" height="4.6" fill="#f1f9fa"/><path d="M869.1,543.4v.5h-34.2c-.9,0-1.7.4-1.6,1.6v2.4h-.7v-4.6h36.5Z" fill="#dadbee"/><rect x="839.3" y="508.5" width="10.7" height="32.2" fill="#41449a"/><polygon points="862.6 508.5 862.6 540.7 852.2 540.7 852.3 508.5 862.6 508.5" fill="#41449a"/><g isolation="isolate" opacity=".3"><g clip-path="url(#clippath-10)"><rect x="839.3" y="508.5" width="10.7" height="1.6" fill="#2c2a68"/></g></g><g isolation="isolate" opacity=".3"><g clip-path="url(#clippath-11)"><rect x="852.2" y="508.5" width="10.5" height="1.6" fill="#2c2a68"/></g></g><line x1="839.8" y1="538" x2="840.5" y2="537.7" fill="none" stroke="#fff" stroke-miterlimit="10" stroke-width=".1"/><line x1="840.1" y1="538.4" x2="840.7" y2="538.1" fill="none" stroke="#fff" stroke-miterlimit="10" stroke-width=".1"/><g isolation="isolate" opacity=".2"><g clip-path="url(#clippath-12)"><path d="M849.7,540.7h-1.9v-9.5c0-3.5,0-7.4-.1-10.7v-.3c0-4.8-.1-8.6-.3-8.7-.1-.3-.3-.4-.5-.5h.5c1.1,0,2,.9,2,2v21.6l.3,6.2Z" fill="#2c2a68"/></g></g><g isolation="isolate" opacity=".2"><g clip-path="url(#clippath-13)"><rect x="838.8" y="508.5" width="24.6" height="32.7" fill="#fff"/></g></g><line x1="863.2" y1="585.5" x2="863.2" y2="616.4" fill="none" stroke="#595ba8" stroke-miterlimit="10" stroke-width="1.3"/><path d="M859.5,616.4v-13c0-1.9-1.1-3.5-3.1-4.8-3.1-1.9-4.8-4.6-4.8-7.2v-5.9" fill="none" stroke="#595ba8" stroke-miterlimit="10" stroke-width="1.3"/><line x1="868.7" y1="585.5" x2="868.7" y2="616.4" fill="none" stroke="#595ba8" stroke-miterlimit="10" stroke-width="1.3"/><path d="M871.3,616.4s-.1-7.6.9-10.7c2.1-6.2,0-14.2,1.7-20.3" fill="none" stroke="#595ba8" stroke-miterlimit="10" stroke-width="1.3"/><path d="M874.2,616.4s0-7.1-.4-10.1c-.9-6.4.5-16.5,1.5-21.6" fill="none" stroke="#595ba8" stroke-miterlimit="10" stroke-width="1.3"/><path d="M879.5,566.6c-.1-.5-.4-.9-.8-1.3-.3-.3-.4-.4-.8-.5-.5-.3-1.2-.4-1.7-.4h-26c-.7,0-1.2.1-1.7.4h-.1c-.4.1-.8.4-.9.8-.3.3-.4.5-.5.9-1.3,3.1-1.2,3.1-1.2,3.1h1.2v25.8c0,.7.4,1.3,1.1,1.9.7.5,1.5.8,2.4.8h26c.9,0,1.7-.3,2.4-.8.7-.5,1.1-1.2,1.1-1.9v-25.8h1.1c-.1-.1,0,.1-1.3-3" fill="#82d1e1"/><path d="M879.6,569.4v4.3c-.1-.5-.7-2.7-2.1-3.1-1.5-.4-26.6-.3-30.9-.3v-1.1h33Z" fill="#c3e8f5"/><rect x="865.5" y="572" width="11.8" height="4.6" fill="#def1ef"/><g isolation="isolate" opacity=".2"><g clip-path="url(#clippath-14)"><path d="M877.3,575v1.5h-4.6c-1.9-1.3-4.6-3.5-6-4.6h7.2l3.4,3.1Z" fill="#aabcbc"/></g></g><polygon points="877.3 572 877.3 576.5 877.2 576.5 877.2 572.2 865.5 572.2 865.5 572.1 877.3 572.1 877.3 572" fill="#aabcbc"/><path d="M873.7,578.3v6c0,.1-.1.4-.3.5s-.3.1-.5.1h-6.7c-.1,0-.4-.1-.5-.1-.1-.1-.3-.3-.3-.5v-6.3c0-.1.1-.1.1-.3,0,0,.1-.1.3-.1h7.2c.1,0,.1.1.3.1s.1.1.1.3c.3.1.3.3.3.3" fill="#c3e8f5"/><path d="M873.7,578.3v2.1c-.1-.3-1.1-1.9-1.3-1.9-.4-.3-1.2.5-2.7.1-1.6-.4-2.8-.7-2.8-.1s.3.1.1,1.2c-.1,1.1-.7,1.1-.7,1.6s.7.7.8,1.3c.1.7-.8,1.1-.8,1.3s1.1.8,2.4.8h.8-3.4c-.1,0-.4-.1-.5-.1-.1-.1-.3-.3-.3-.5v-6.3c0-.1.1-.1.1-.3,0,0,.1-.1.3-.1h7.2c.1,0,.1.1.3.1s.1.1.1.3c.3.3.3.4.3.4" fill="#00a0c4"/><path d="M867.9,578.5h-.9c-.3,0-.4.1-.4.4v.4c0,.3.3.4.4.4h.9c.3,0,.4-.1.4-.4v-.4c0-.1-.1-.4-.4-.4" fill="#00a0c4"/><path d="M870.3,578.5h-.9c-.3,0-.4.1-.4.4v.4c0,.3.3.4.4.4h.9c.3,0,.4-.1.4-.4v-.4c0-.1-.1-.4-.4-.4" fill="#00a0c4"/><path d="M872.8,578.5h-.9c-.3,0-.4.1-.4.4v.4c0,.3.3.4.4.4h.9c.3,0,.4-.1.4-.4v-.4c.1-.1-.1-.4-.4-.4" fill="#00a0c4"/><path d="M867.9,580.1h-.9c-.3,0-.4.1-.4.4v.4c0,.3.3.4.4.4h.9c.3,0,.4-.1.4-.4v-.4c0-.3-.1-.4-.4-.4" fill="#00a0c4"/><path d="M870.3,580.1h-.9c-.3,0-.4.1-.4.4v.4c0,.3.3.4.4.4h.9c.3,0,.4-.1.4-.4v-.4c0-.3-.1-.4-.4-.4" fill="#00a0c4"/><path d="M872.8,580.1h-.9c-.3,0-.4.1-.4.4v.4c0,.3.3.4.4.4h.9c.3,0,.4-.1.4-.4v-.4c0-.3-.1-.4-.4-.4" fill="#00a0c4"/><path d="M867.9,581.6h-.9c-.3,0-.4.1-.4.4v.4c0,.3.3.4.4.4h.9c.3,0,.4-.1.4-.4v-.3c0-.3-.1-.5-.4-.5" fill="#00a0c4"/><path d="M870.3,581.6h-.9c-.3,0-.4.1-.4.4v.4c0,.3.3.4.4.4h.9c.3,0,.4-.1.4-.4v-.3c0-.3-.1-.5-.4-.5" fill="#00a0c4"/><path d="M872.8,581.6h-.9c-.3,0-.4.1-.4.4v.4c0,.3.3.4.4.4h.9c.3,0,.4-.1.4-.4v-.3c0-.3-.1-.5-.4-.5" fill="#00a0c4"/><path d="M867.9,583.2h-.9c-.3,0-.4.1-.4.4v.4c0,.3.3.4.4.4h.9c.3,0,.4-.1.4-.4v-.4c0-.3-.1-.4-.4-.4" fill="#00a0c4"/><path d="M870.3,583.2h-.9c-.3,0-.4.1-.4.4v.4c0,.3.3.4.4.4h.9c.3,0,.4-.1.4-.4v-.4c0-.3-.1-.4-.4-.4" fill="#00a0c4"/><path d="M872.8,583.2h-.9c-.3,0-.4.1-.4.4v.4c0,.3.3.4.4.4h.9c.3,0,.4-.1.4-.4v-.4c.1-.3-.1-.4-.4-.4" fill="#00a0c4"/><path d="M867.8,578.5h-.9c-.3,0-.4.1-.4.4v.4c0,.3.3.4.4.4h.9c.3,0,.4-.1.4-.4v-.4c0-.3-.1-.4-.4-.4" fill="#fff"/><path d="M870.2,578.5h-.9c-.3,0-.4.1-.4.4v.4c0,.3.3.4.4.4h.9c.3,0,.4-.1.4-.4v-.4c0-.3-.1-.4-.4-.4" fill="#fff"/><path d="M872.6,578.5h-.9c-.3,0-.4.1-.4.4v.4c0,.3.3.4.4.4h.9c.3,0,.4-.1.4-.4v-.4c0-.3-.1-.4-.4-.4" fill="#fff"/><path d="M867.8,580h-.9c-.3,0-.4.1-.4.4v.4c0,.3.3.4.4.4h.9c.3,0,.4-.1.4-.4v-.4c0-.1-.1-.4-.4-.4" fill="#fff"/><path d="M870.2,580h-.9c-.3,0-.4.1-.4.4v.4c0,.3.3.4.4.4h.9c.3,0,.4-.1.4-.4v-.4c0-.1-.1-.4-.4-.4" fill="#fff"/><path d="M872.6,580h-.9c-.3,0-.4.1-.4.4v.4c0,.3.3.4.4.4h.9c.3,0,.4-.1.4-.4v-.4c0-.1-.1-.4-.4-.4" fill="#fff"/><path d="M867.8,581.6h-.9c-.3,0-.4.1-.4.4v.4c0,.3.3.4.4.4h.9c.3,0,.4-.1.4-.4v-.4c0-.3-.1-.4-.4-.4" fill="#fff"/><path d="M870.2,581.6h-.9c-.3,0-.4.1-.4.4v.4c0,.3.3.4.4.4h.9c.3,0,.4-.1.4-.4v-.4c0-.3-.1-.4-.4-.4" fill="#fff"/><path d="M872.6,581.6h-.9c-.3,0-.4.1-.4.4v.4c0,.3.3.4.4.4h.9c.3,0,.4-.1.4-.4v-.4c0-.3-.1-.4-.4-.4" fill="#fff"/><path d="M867.8,583.1h-.9c-.3,0-.4.1-.4.4v.4c0,.3.3.4.4.4h.9c.3,0,.4-.1.4-.4v-.4c0-.1-.1-.4-.4-.4" fill="#171344"/><path d="M870.2,583.1h-.9c-.3,0-.4.1-.4.4v.4c0,.3.3.4.4.4h.9c.3,0,.4-.1.4-.4v-.4c0-.1-.1-.4-.4-.4" fill="#fff"/><path d="M872.6,583.1h-.9c-.3,0-.4.1-.4.4v.4c0,.3.3.4.4.4h.9c.3,0,.4-.1.4-.4v-.4c0-.1-.1-.4-.4-.4" fill="#8c3895"/><path d="M879.6,577.6h-13.1s-.7-.1-.7.9v8.1h0c0,.1,0,.3.1.3h.1c0,.1.3.1.3.1h13.4" fill="none" stroke="#0fc2ef" stroke-miterlimit="10" stroke-width="1"/><path d="M852.5,588.1v9.3h-3c-1.1,0-2-1.2-2.4-2.1h0c-.3-1.2,0-7.1,0-7.1h5.4Z" fill="#c3e8f5"/><rect x="852.8" y="588.1" width="6.3" height="9.3" fill="#c3e8f5"/><rect x="859.5" y="588.1" width="6.3" height="9.3" fill="#c3e8f5"/><rect x="866" y="588.1" width="6.4" height="9.3" fill="#c3e8f5"/><path d="M878.9,588.1v7c0,.1-.1.4-.3.5-.1.3-.3.4-.4.7-.4.5-.9.9-1.6,1.1-.3,0-.5.1-.9.1h-3v-9.3h6.2Z" fill="#c3e8f5"/><path d="M852.5,595v2.3h-3c-1.1,0-2-1.2-2.4-2.1h0c0-.1,5.4-.1,5.4-.1Z" fill="#00a0c4"/><rect x="852.8" y="595" width="6.3" height="2.3" fill="#00a0c4"/><rect x="859.5" y="595" width="6.3" height="2.3" fill="#00a0c4"/><rect x="866" y="595" width="6.4" height="2.3" fill="#00a0c4"/><path d="M878.9,588.1v7c0,.1-.1.4-.3.5-.1.3-.3.4-.4.7-.4.5-.9.9-1.6,1.1-.3,0-.5.1-.9.1h-3v-2.3h2.3c.4,0,1.1.1,1.5-.3.5-.5.3-1.3.3-2v-4.7h2.1Z" fill="#00a0c4"/><path d="M864,593.7c0,.7-.1,1.5-.3,2.1,0,.4-.5.8-1.6.8h-.4c-.1,0-.3-.1-.3-.1q-.1-.1-.3-.3c-.1-.1,0-.3,0-.4.3-.7.4-1.5.4-2.1s-.4-1.9-.7-2.8c-.3-.8-.4-1.9-.7-2.7h2.7c.1-.1,1.2,3.5,1.1,5.5" fill="#22c4f4"/><path d="M870.3,590.7c-.3,1.5-.5,3.2-.5,4.7v.3c0,.3-.3.7-.5.8-.3.1-.7.3-.9.3s-.5-.1-.8-.3c-.3-.1-.4-.4-.5-.7,0-1.9.3-3.8.8-5.6.4-1.6.5-2,.5-2h2.4c-.3.9-.3,1.6-.4,2.5" fill="#22c4f4"/><path d="M875.3,593.4c0,.9-.1,2-.3,3,0,.1-.1.1-.3.3-.1.1-.3.1-.3.1-.3,0-.3-.3-.3-.5.1-.5.1-1.1.3-1.6.1-2.1-.3-5.6-.3-6.4h.7c.1,1.6.3,3.5.4,5.2" fill="#22c4f4"/><path d="M876.8,593.2c0,1.1-.1,2-.3,3.1,0,.1-.1.3-.1.3-.1,0-.3.1-.4,0,0,0-.1,0-.1-.1h0c.1-.8.3-1.5.3-2.1.1-2-.1-5.1-.3-6.2h.7c0,1.7.1,3.4.3,5.1" fill="#22c4f4"/><path d="M850.5,595.3v.3c0,.3-.3.4-.4.5-.3.1-.7.1-1.3,0-.7-.1-.7-.8-.7-.8,0-1.2,0-2.4.1-3.5.4-2.3.4-3.8.4-3.8h2.4c.1,0-.5,4.6-.5,7.2" fill="#22c4f4"/><rect x="925.8" y="521.4" width="10.2" height=".7" fill="#f8a16c"/><path d="M740.1,626.3s-3.7,7,2.6,10.8c6.4,3.8,10.8,1.6,15.5,3.1.9.3,2.4.7,2.9,1.6.7,1.3-2,2.2-2.1.4-.1-1.6,1.3-2.2,2.7-2,3.4.4,8.5,5.4,14.4,1.6,5.9-3.8.2-4.9,6.7-9.9,2.3-1.8,3.8-4.2,5-6.8,2.5-5.5,7.5-9.7,13.4-11.3,10.6-2.9,14.7-17.9,12.2-23.9" fill="none" stroke="#f8a16d" stroke-linecap="round" stroke-linejoin="round" stroke-width="1.8"/><path d="M810.7,590.8h14.9c3.5,0,6.1-2.7,5.9-6.2l-.6-9.9c0-1.3-.2-2.6-1.1-3.7-2-2.5-5.8-2.8-8.8-3,0,0-.1,0-.2,0-2.1-.1-4.1-.1-6.2,0-1.8.2-3.6.3-5.2,1-2.5,1-4.1,3.1-4.1,5.9l-.6,9.9c-.2,3.3,2.5,6,5.9,6" fill="#464392"/><path d="M811.2,590h13.8c3.2,0,5.7-2.5,5.5-5.8l-.5-9.2c0-1.2-.2-2.4-1-3.5-1.8-2.4-5.4-2.6-8.1-2.8,0,0-.1,0-.2,0-1.9-.1-3.8-.1-5.7,0-1.6.1-3.3.3-4.8.9-2.4.9-3.8,2.9-3.8,5.4l-.5,9.2c-.2,3.1,2.3,5.5,5.5,5.6Z" fill="none" stroke="#595ba8" stroke-miterlimit="10" stroke-width=".3"/><path d="M809.7,581.5c.2,0,.3-.2.3-.3v-7.4c0-.2-.2-.3-.3-.3s-.3.2-.3.3v7.4c0,.2.2.3.3.3" fill="#f8a16d"/><path d="M826.5,581.5c.2,0,.3-.2.3-.3v-7.4c0-.2-.2-.3-.3-.3s-.3.2-.3.3v7.4c0,.2.2.3.3.3" fill="#f8a16d"/><path d="M813.7,583.2c.4,0,.7-.3.7-.7s-.3-.7-.7-.7-.7.3-.7.7.3.7.7.7" fill="#c1167b"/><path d="M818.1,583.2c.4,0,.7-.3.7-.7s-.3-.7-.7-.7-.7.3-.7.7.3.7.7.7" fill="#c1167b"/><path d="M822.4,583.2c.4,0,.7-.3.7-.7s-.3-.7-.7-.7-.7.3-.7.7.3.7.7.7" fill="#c1167b"/><rect x="813.1" y="574.1" width="10" height="6.7" fill="#3c5daa"/><polygon points="817.9 575.2 816.9 577.9 818.1 577.8 817.5 580 819.5 577 818.2 577 819.3 575.2 817.9 575.2" fill="#f1fafe"/><path d="M738.4,620.6v4.4c0,.2,0,.5.1.7,0,.2.2.4.4.6.2.2.4.3.6.4.2,0,.5.1.7.1.2,0,.5,0,.7-.1.2,0,.4-.2.6-.4.2-.2.3-.4.4-.6,0-.2.1-.5.1-.7v-7.8c0-.7-.2-1.3-.6-1.9-1-1.4-3-3.9-3.8-3.7-1.1.3-1.8,3.3-1.2,6.2,0,.2.1.4.3.6l1.2,1.2c.3.3.4.7.4,1" fill="#f8a16d"/><path d="M520.3,600.2s-1.5,4.6-1.3,6.2c.3,1.5.7,2.9.6,3.9,0,0,2.1-4.6,3.8-6.8,1.7-2.2,4.4-.4,4.4-.4,0,0,0-8.7-4.9-8.7s-2.7,5.8-2.7,5.8h0Z" fill="#3770b8"/><path d="M695.8,642.1s3.2,10.8,9.5,13.9c6.3,3.1,22.2,1.3,22.2,1.3,0,0,4.8-1.1,8.6-7.3,3.8-6.2,6.1-16,5.3-26.6-.8-10.5-9-18.3-9-18.3l-36.6,37h0Z" fill="#242177"/><path d="M627,640.5s2,7,5.7,7.3c3.7.2,12.2,0,12.2,0,0,0,4.4.1,6.1-5.9,1.7-6-23.9-1.4-23.9-1.4h0Z" fill="#312d7e"/><path d="M524.1,601s-5.1,1.9-5.1,17.9c0,16.1.2,22.6,1.2,24.2,1,1.7,1.4,4.9,4.7,5.1,2.4.2,8.5.3,11.6.3,2.1,0,4.2-1.1,5.1-3.1.2-.3.3-.7.4-1.1.8-3.1,2.2-10.3,2.2-10.3l-1.6-31.2s-8.5-3.9-15.5-2.5l-3,.6h0Z" fill="#242177"/><path d="M572.6,599.2s-9.1,4.7-9.8,20.5c-.6,15.8-.5,22.8,1.5,28.3,2,5.4,4,11,8.9,12.8,3.8,1.4,13.9.9,18.2.7,1.7-.1,3.2-.7,4.5-1.7,1.4-1.2,3.1-3,4.2-5.8,2.2-5.7,3.6-10.7,4.1-15.2.5-4.5-2.4-32.1-4.5-35.2-2.1-3.1-22.2-6.3-27.2-4.2h0Z" fill="#242177"/><path d="M565.1,608.9s3.3-6.7,6.7-8.7c3.5-2.1,6.7-1,6.7-1,0,0-1.6-7-4.6-7.6-3.9-.8-6.8,1.9-7.3,2.9-.5,1-1.5,7.8-1.5,11.2v3.3Z" fill="#3770b8"/><path d="M568.9,542.1c2.6-.5,5.3-.9,8-.9l20.5-.7s16.7-.4,33.3.4c16.6.8,26.2.8,30.9,3.6,4.7,2.8,10.6,6.8,15.9,11.2,5.2,4.4,12.1,10.6,12.1,10.6l4.3,4.4s1.7.4,2.2,1c.6.6.7,1.7,5.3,2.8,4.6,1.1,14.5,1.3,20.3,3.9,5.8,2.6,10.3,5.1,11.1,6.5,0,0,.2.7,0,1.1,0,0,4.2,4.4,4.3,5.1,0,.6,0,2.8,0,2.8,0,0,1.3.9,1.9,4.1.6,3.2,1.1,8.3,1.3,9.7.2,1.4.6,17.8-.3,23.8l-.2,2.5c-.2,2.7-1.7,5.2-3.9,6.8l-1.2.9c-.7.5-1.6.8-2.4.8l-48.2,1.5-40.4.4-50.7.2c-1.7,0-3.3-.6-4.6-1.7l-2-1.8c-1.5-1.3-2.3-3.1-2.3-5,0-5.4.1-16.6-1.1-23.1-1.7-8.7-5.5-17-7.6-18.9-2.1-1.9-4.6-2.1-6.6-.7-2,1.4-3.9,8.5-3.7,12.8v2.8s-2,7.1-2.2,10.8c-.2,3.7-.2,6.9-.3,10.1,0,3.4,0,9.9,0,9.9,0,0-17.8-3.9-22-4.3-4.2-.4-7.3-.8-8.2-2.6-.9-1.8-1.3-6.9-1.2-10.5,0-3.6-2.2-16.1-3.8-21-1.7-4.9-3.5-6.1-4.6-5.7-1.1.4-2.3,3.6-2.5,4.6-.3,1,.3-4.4,1.3-6.9,1.1-2.5,3.4-7.5,3.4-8.2s-.2-5.5.4-5.9c.6-.4,1.5-.6,1.5-.6,0,0,.4-2.2,1-2.6.5-.4,4.4-1.4,5.3-2.6.9-1.1,11.3-16.1,15.3-20.1,3.9-4,10.6-8.6,17.5-10.5,1-.3,2-.5,3.1-.7h0Z" fill="#2ac5f4"/><path d="M576.6,544.8s.3,13.5,1,18.2c.8,4.8,1.3,6.7,1.3,6.7,0,0,22.5-1.3,35.5-1.3s54.5.2,60.8.6c6.3.3,16.9,1.3,16.9,1.3,0,0-20.3-18.6-28.8-23.9,0,0-12.9-1.8-33.3-2.4-20.3-.6-53.5.7-53.5.7h0Z" fill="#eaeaea"/><path d="M576.6,544.8s.3,13.5,1,18.2c.8,4.8,1.3,6.7,1.3,6.7,0,0,22.5-1.3,35.5-1.3s54.5.2,60.8.6c6.3.3,16.9,1.3,16.9,1.3,0,0-41.7-25.8-62.1-26.3-20.3-.6-53.5.7-53.5.7h0Z" fill="#c4c4c4"/><path d="M584.9,584c-.5,0-1,.5-.8,1,1.2,3.3,5,13,9.2,13.5,4.1.4,13.9.7,17.9.8,1.1,0,2.2-.2,3.1-.7l6.2-3.3c.9-.5,1.8-.7,2.8-.7h7.1l-.4-2.4-8.7-1.1c-1.3-.2-2.5-.5-3.7-1l-5.5-2.5c-.6-.3-1.2-.4-1.9-.5l-25.4-2.9h0Z" fill="#170d54"/><path d="M633.9,592l.7,5.8c.3,2.3,1.7,4.3,3.7,5.4l6.9,3.7c1,.5,2,.8,3.1.9,4.9.3,19.7,1,31.5.7,11-.2,22.3-.9,27.1-1.1,1.5,0,3-.6,4.2-1.4l4.2-2.8c2-1.4,3.3-3.5,3.5-5.9l.5-4.9-85.4-.4h0Z" fill="#170d54"/><path d="M722,592v2.4h3.4c.7,0,1.4.3,1.9.8l3,3c.6.6,1.4.9,2.3.8l4.5-.5v-4.6c0,0,0-3.6,0-3.6l-4.2-4.3-3.3,1.9-1.1,1.6c-.5.7-1.2,1.2-2.1,1.5l-4.4,1.1h0Z" fill="#1b0f47"/><path d="M632.7,591.6l1,10.6c.1,1,.7,2,1.6,2.5l10.2,5.8c1.2.7,2.5,1,3.9,1h56.8c2.8,0,5.6-1,7.8-2.8l5.2-4.3c.7-.6,1.1-1.4,1.1-2.3v-9.9l-.9.4-.2,1.7c-.4,4.6-3.1,8.7-7.1,11l-.5.3c-2.1,1.2-4.4,1.8-6.8,1.8l-53.7.4c-2.4,0-4.8-.5-7-1.6l-4.6-2.3c-2.3-1.1-3.9-3.2-4.3-5.7l-1.1-6.1-1.2-.5h0Z" fill="#3c5daa"/><path d="M689.5,564.3s.5-1.6,3-1.1c2.5.5,8.4,3.1,8.9,4.9.5,1.8,0,2.3,0,2.3l-7.5.3-4.3-4.4v-1.9c0,0,0,0,0,0Z" fill="#22c4f4"/><path d="M698.7,573.6s2.8-1,2.8-3.2l-7.5.3,4.7,2.9Z" fill="#3770b8"/><path d="M594.6,606s-2.8,12.8,0,24.6h2.9l8.4-5.7,23.7,1.1-5.6,5.7s34.1.1,53.8,0c19.8-.1,49-1.5,49-1.5l-3.8-4.6,11.5-1.6,4.9,5s.4-20.6-.6-23.8l-4.8,14.6s-8.2,1.8-14.7,1.9c-6.5.1-30.3,1.1-44.2,1.1s-45.6-.4-45.6-.4l-23-.7-10-15.2-1.9-.4h0Z" fill="#170d54"/><path d="M530.7,594.7l2.7-2.3c1.7-1.4,3.8-2.2,6-2.1l17.3.8c2.7.1,5.1,1.7,6.4,4.1l1.3,2.5-1.2,18.4-.5,9.1s-.7-6.6-5.2-7.3l-14-2.7c-1.8-.3-3.6.3-4.8,1.6l-7.3,8.1s-.6-13.1-2.8-23.2c-.6-2.6.3-5.3,2.3-7h0Z" fill="#3c5daa"/><path d="M527.4,578.2l.6-1.3c.2-.6,1.1-1,1.8-1.1,1.7-.3,4.6-.7,10.1-.8,6.3-.1,22.5,0,27.5,0,.6,0,1.1.7.7,1.3-.8,1.4-2,3.6-2.2,4.9-.3,2,.1-3-2.8-4-2.9-1-25.6-1.1-31.9-.2-2.9.4-3.8,1.3-3.8,1.3h0Z" fill="#3c5daa"/><path d="M583.7,618.4s2,13.1,3.8,14c2.9,1.5,28.5,1.1,36.3,1.3,7.9.1,61.4,0,61.4,0,0,0,35.3-1.1,39.8-1.3,4.4-.1,13.4-.9,15.2-2.1,0,0,3.2,14.2-14.7,14.2-18.7,0-64.7-.4-64.7-.4l-43.4.3-17.1.2c-.6,0-1.2,0-1.8,0-2,.1-12.4,1-13.8-3.3-.8-2.2-.9-3.8-.9-6.2v-16.6h0Z" fill="#3c5daa"/><path d="M531.3,626.3l2.8-1.4c2.5-1.2,5.4-1.7,8.2-1.2l20.2,3.9v12.1s-19.2-3.9-23-4.4c-3.8-.6-7.4-.4-7.9-3.1s-.3-5.8-.3-5.8" fill="#3c5daa"/><path d="M707.6,575.4s8.8,5.9,9.5,9.3h3.9s4.9-3,3.1-5.2c0,0-4-2-7.2-2.7-3.3-.6-9.3-1.4-9.3-1.4h0Z" fill="#3c5daa"/><polygon points="544.7 580.3 548.4 580.3 549.9 581.6 545.8 581.6 544.7 580.3" fill="#3c5daa"/><polygon points="530.8 580.3 532.2 581.6 535 581.6 533.9 580.3 530.8 580.3" fill="#3c5daa"/><path d="M535.8,578.5h-2.4c-.1,0-.2-.1-.2-.2s.1-.2.2-.2h2.4c.1,0,.2.1.2.2s-.1.2-.2.2" fill="#3c5daa"/><path d="M551,578.5h-3.7c-.1,0-.2-.1-.2-.2s.1-.2.2-.2h3.7c.1,0,.2.1.2.2s-.1.2-.2.2" fill="#3c5daa"/><path d="M548.1,568.2l15.1.9s.1,3-2.2,2.7c-2.3-.2-8.9,0-8.9,0,0,0-4.1-.4-4-3.7h0Z" fill="#3770b8"/><polygon points="588.8 584.4 592.3 590.2 593.3 598.4 596.6 598.6 596 592.5 630.4 594.5 630 592 595.7 589.1 588.8 584.4" fill="#eaeaea"/><path d="M722,592s9,0,13.7-3.3l1.5,1.5v1.8s-8,2.3-15.2,2.4v-2.4h0Z" fill="#eaeaea"/><path d="M526.9,578.6h1s-2.9,5.1-2.9,5.8c0,0-.4-4.1.4-5.2.4-.6,1.5-.6,1.5-.6" fill="#ee2c59"/><path d="M571.8,544.6l.8,25.3c0,.2,0,.5-.1.7l-.3.7c-.3.8-1,1.3-1.8,1.3h-28.1c-.5,0-1-.4-1.1-.9l-.5-3.6c-.1-.8,0-1.6.3-2.4,1.5-3.4,6.3-13.1,12.4-16.3,7.4-3.9,11.4-4.9,18.3-4.9h0Z" fill="#3c5daa"/><path d="M564.4,547c1.1-.2,3.8-.5,5.5-.6.5,0,1,.4,1,.9l.4,14.1c0,.1,0,.3,0,.4-.3.8-1.8,4.2-2.3,7-.2.9-.9,1.5-1.8,1.5h-4s1.5-7.4,0-8.8c0,0-2.5-.6-5.5,0l6.1-14c.1-.3.4-.5.7-.6" fill="#c4c4c4"/><path d="M560.7,548.3c-1.3,2.4-6,10.7-7.6,14.4,0,0-3.8,1.3-4.6,3.6-.8,2.3,0,3.1,0,3.1l2.4,1.8h-5.8c-.6,0-1.1-.4-1.3-.9l-.3-1.1c-.2-.6-.1-1.1,0-1.7,1-2.6,4.1-10.5,7-13.2,2.9-2.6,8-5.3,9.8-6.3.2-.1.4.1.3.3h0Z" fill="#c4c4c4"/><path d="M548.1,568.2s-1.5-4.9,7.2-6.6c8.7-1.6,9.2,0,9,2.3-.1,2.3-1.1,5.2-1.1,5.2l-15.1-.9Z" fill="#22c4f4"/><path d="M557.5,571.8c0,.5.2.9.6,1.2l5.8,4.4s1.9-.8,2.3-2.3c.3-1.4,2.8-1.7,2.1-2.6-.7-.9-1.3.7-3.5,0-2.1-.7-1.9-.8-1.9-1.5,0-.5-3.2-.2-4.7,0-.4,0-.8.4-.8.9h0Z" fill="#170d54"/><path d="M576.4,607.7c-2-1.7-5-1.4-6.6.6-2.4,2.8-6.5,10-5.6,24.7,1.3,20.2,7,21.3,9.2,21,2.3-.4,7.2-3.4,8.2-14,1-10.7.4-17.6-1.4-24.6-.9-3.6-2.3-6.2-3.9-7.6h0Z" fill="#170d54"/><path d="M523.8,606.6c-.4.2-.7.6-.9,1-.7,1.6-2.6,6.9-2.6,19.9s2.7,15.4,3.9,14.6c1.2-.8,3.2-8,3.4-16.2.2-7.8-.1-20.9-3.7-19.2h0Z" fill="#170d54"/><path d="M576.7,609.6c-.3,2.8-.4,5.5-.7,8.3-.3,2.8-.3,5.5,0,8.3,0,0,0,0,0,0,0,0-.1-.1-.2-.1s0,0,0,0c1.3-.9,2.1-2.6,3.5-3.6.6-.4,1.1-.8,1.9-.8v.2c-1.2.3-2.1,1.5-2.8,2.5-.6.8-2,3.9-3.3,2.4-.1-.2-.1-.3-.2-.5h0c-.3-1.3-.5-2.8-.6-4.2-.3-2.8-.4-5.8.5-8.5.4-1.4.9-2.8,1.7-4h.2c0,0,0,0,0,0Z" fill="#3770b8"/><path d="M567.6,613.1c1.1,2,2,4,3.1,6,1.1,1.9,2,4,3.3,5.7.2.3.4.6.6.9.2.5.2,1.1.1,1.6,0,.6-.2,1.2-.6,1.6-1.3,1.2-2.6,0-3.8-.6-1-.6-2-1.2-2.9-1.9-.9-.7-1.9-1.4-2.4-2.5h.2c.6.9,1.6,1.4,2.6,2,1.5.8,3,1.5,4.6,2.2.2,0,.3,0,.5,0,.3,0,.6-.3.6-.6,0-.2,0-.6,0-.8q0-.4-.1-.6c0,0-.3-.4-.4-.4-2.4-2.6-4.1-5.8-4.9-9.2-.3-1.1-.5-2.3-.5-3.4h.2s0,0,0,0Z" fill="#3770b8"/><path d="M565,637c2-2.8,4.4-5.4,7.5-7,1.8-.8,3.2-.4,3.4,1.7.2,3.7-.7,7.4-1.2,11.1-.4,2.6-.8,5.2-.6,7.9h-.2c-.5-2.6-.3-5.3-.2-8,.2-3.6.8-7.2.4-10.7,0-.3-.2-.5-.2-.6,0,0,0,0,.1,0,0,0,0,0,0,0h0c-.8.2-1.6.7-2.4,1.2-2.2,1.4-4.3,3-6.5,4.5h-.1c0-.1,0,0,0,0Z" fill="#3770b8"/><path d="M581.2,631.4c-1.7,0-3.8,0-4.9-1.6,0,0,0,0,0,0h0c.2.3.8.3,1,0,0-.1,0-.1,0,0-.1,3.5.1,7,.7,10.5.3,1.8.6,3.5,1.1,5.2h-.1c-1.9-4.5-2.8-9.5-3.1-14.5,0-.6,0-1.2.2-1.8,0-.2.2-.4.4-.5.4-.2.9,0,1,.3,0,0,0,.2.2.3,1,1,2.4,1.3,3.6,1.9h0c0,.1,0,.1,0,.1h0Z" fill="#3770b8"/><path d="M522.8,609.5c1.5,2.7,2.4,5.6,3.1,8.5l.7,2.9h0c0,.8-.2,1.7-.9,2-.3.1-.6,0-.8-.2-.4-.4-.9-.7-1.3-1.1-.9-.9-1.9-1.8-2.3-3.1h.1c.8,1.5,2.5,2.6,3.9,3.6,0,0,.1.1.1,0,0,0,0,0,0,0,.2-.3.3-.7.3-1h0c-.9-2.7-2.2-5.6-2.7-8.5-.2-1-.3-2-.4-3h.1s0,0,0,0Z" fill="#3770b8"/><path d="M521.3,629.4c.8-1.8,1.8-3.6,3.2-5,.5-.4.8-.8,1.5-1,.8-.2,1.3.5,1.3,1.1,0,1.3-.5,2.5-.8,3.8-.5,1.9-1.1,3.8-1.6,5.6-.5,1.9-.9,3.8-.9,5.7h-.1c-.6-5.1,1.6-10.1,2-15.1,0,0,0-.1,0,0,0,0,.1.2.3.2.1,0,.3,0,.2,0-.3,0-.7.4-.9.6-1.4,1.2-2.7,2.7-4.1,4.1h-.1c0,0,0,0,0,0Z" fill="#3770b8"/><g opacity=".2"><g clip-path="url(#clippath-15)"><polygon points="523.3 647.7 576.7 662.6 729.4 658.2 642.1 644.7 520.3 643.2 523.3 647.7" fill="#1b0f47"/></g></g><path d="M657.7,324.7c1.2-.9,2.8-2.2,2.5-4.7-.3-2.5-2.6-3.6-5.1-3.7-2.5,0-8-.5-8-.5v9.3s2.3.1,4.7.2l-.8,116.4c2.8,1.7,5.5,1.8,7.9-.5l-2.3-116.1c.5,0,.8-.2,1-.3" fill="#f1f9fb"/><path d="M691.3,309c.6-.2.5-1-.2-1-10.1.5-32,1.7-32.8,1.9-.7.2-4.8,4.2-7.2,6.7-.3.3-.8.3-1.1,0-.8-.6-1.8-1-2.9-1s-2.2.4-3,1.1c-.3.3-.8.2-1.1,0l-26.8-28.2c-.7-.7-1.8.1-1.3,1,5.5,9.4,15.7,26.5,16.6,26.7.9.1,6.7,1.9,10.4,3,.4.1.6.5.6.9,0,.1,0,.2,0,.4,0,1.6.9,3.1,2.2,3.9.3.2.5.6.4.9l-10.4,37.8c-.3.9,1.1,1.5,1.5.6l13.5-27.3c0-.2.1-.3,0-.5l-1.6-10.1c0-.4.2-.8.5-.9,1.9-.6,3.2-2.3,3.2-4.4s0-.2,0-.4c0-.4.2-.8.6-.9,7.5-1.8,29.2-7.5,38.9-10.1h0Z" fill="#dbdcef"/><path d="M511.2,294.7c-1.7-1.3-4.1-3.3-3.7-6.9.4-3.7,3.8-5.3,7.5-5.5,3.7-.1,11.7-.7,11.7-.7v13.6s-3.4.2-7,.2l1.1,170.7c-4.1,2.5-8,2.7-11.7-.8l3.4-170.3c-.7-.1-1.2-.2-1.4-.4" fill="#f1f9fb"/><path d="M461.9,271.7c-.9-.2-.7-1.5.2-1.5,14.8.8,46.9,2.5,48.1,2.8,1.1.3,7,6.2,10.6,9.9.4.4,1.1.5,1.6.1,1.2-.9,2.6-1.5,4.3-1.5s3.2.6,4.4,1.6c.5.4,1.2.4,1.6-.1l39.3-41.4c1-1,2.6.2,1.9,1.4-8.1,13.8-23,38.9-24.4,39.1-1.3.2-9.8,2.7-15.2,4.4-.5.2-.9.7-.8,1.3,0,.2,0,.4,0,.5,0,2.4-1.3,4.5-3.2,5.7-.5.3-.7.8-.5,1.3l15.3,55.4c.4,1.4-1.6,2.1-2.2.8l-19.8-40c-.1-.2-.1-.5-.1-.7l2.4-14.8c0-.6-.2-1.1-.8-1.3-2.7-.9-4.7-3.4-4.7-6.5s0-.4,0-.5c0-.6-.3-1.2-.9-1.3-10.9-2.7-42.8-11.1-57.1-14.8h0Z" fill="#dbdcef"/><path d="M1199.4,391.7c.4-.3.9-.7.8-1.6,0-.8-.9-1.2-1.7-1.3-.8,0-2.7-.2-2.7-.2v3.1s.8,0,1.6,0l-.3,39.2c.9.6,1.8.6,2.7-.2l-.8-39.1c.2,0,.3,0,.3-.1" fill="#f1f9fb"/><path d="M1210.7,386.5c.2,0,.2-.4,0-.3-3.4.2-10.8.6-11.1.7-.2,0-1.6,1.4-2.4,2.3,0,.1-.3.1-.4,0-.3-.2-.6-.3-1-.3s-.7.1-1,.4c-.1,0-.3,0-.4,0l-9-9.5c-.2-.2-.6,0-.4.3,1.9,3.2,5.3,8.9,5.6,9,.3,0,2.2.6,3.5,1,.1,0,.2.2.2.3,0,0,0,0,0,.1,0,.6.3,1,.7,1.3.1,0,.2.2.1.3l-3.5,12.7c0,.3.4.5.5.2l4.6-9.2c0,0,0-.1,0-.2l-.5-3.4c0-.1,0-.3.2-.3.6-.2,1.1-.8,1.1-1.5s0,0,0-.1c0-.1,0-.3.2-.3,2.5-.6,9.8-2.5,13.1-3.4h0Z" fill="#dbdcef"/><g isolation="isolate" opacity=".5"><g clip-path="url(#clippath-16)"><polygon points="1190.1 439.3 1212.9 442.1 1221.6 440.1 1202.5 438.2 1190.1 439.3" fill="#17102f"/></g></g><polygon points="1199.6 437.3 1199.6 440.1 1199.9 440.1 1199.9 437.2 1199.6 437.3" fill="#a39fc7"/><polygon points="1199.9 440.1 1200.2 440 1200.2 437.4 1199.9 437.2 1199.9 440.1" fill="#565ca9"/><polygon points="1188 436.3 1188 436.7 1208.8 438.1 1211.9 428.6 1211.9 427.3 1188 436.3" fill="#464392"/><polygon points="1208.6 437.6 1188 436.3 1194.4 428.1 1211.9 427.3 1208.6 437.6" fill="#a39fc7"/><polygon points="1211.5 427.5 1211.1 428.7 1210.8 429.8 1210.4 430.9 1209.5 433.7 1208.8 435.9 1208.4 437.1 1202.6 436.7 1192.3 436.1 1188.7 435.9 1190.4 433.6 1191.3 432.5 1192.2 431.3 1194 429 1194.6 428.3 1201.6 428 1211.5 427.5" fill="#170d54"/><rect x="1199.5" y="424.8" width=".2" height="19.3" transform="translate(733.5 1622.1) rotate(-88.5)" fill="#6772b6"/><rect x="1200.4" y="423.3" width=".2" height="18.7" transform="translate(753.8 1628) rotate(-89.3)" fill="#6772b6"/><rect x="1192.4" y="430.8" width="18.1" height=".2" transform="translate(-3.8 10.6) rotate(-.5)" fill="#6772b6"/><rect x="1193.5" y="429.2" width="17.5" height=".2" transform="translate(-9 26.1) rotate(-1.2)" fill="#6772b6"/><polygon points="1207.5 427.6 1207.7 427.7 1203.7 436.9 1203.5 436.9 1207.5 427.6" fill="#6772b6"/><polygon points="1203.8 427.8 1204 427.9 1199.3 436.6 1199.1 436.5 1203.8 427.8" fill="#6772b6"/><rect x="1193" y="432.1" width="9.9" height=".2" transform="translate(198.7 1221.6) rotate(-58.1)" fill="#6772b6"/><polygon points="1197.3 428.1 1197.5 428.2 1191.8 436.2 1191.7 436.1 1197.3 428.1" fill="#6772b6"/><g isolation="isolate" opacity=".2"><g clip-path="url(#clippath-17)"><polygon points="1211.5 427.5 1211.1 428.7 1192.2 431.3 1194 429 1201.6 428 1211.5 427.5" fill="#e5bbd8"/></g></g><g isolation="isolate" opacity=".2"><g clip-path="url(#clippath-18)"><polygon points="1210.8 429.8 1210.4 430.9 1190.4 433.6 1191.3 432.5 1210.8 429.8" fill="#e5bbd8"/></g></g><g isolation="isolate" opacity=".2"><g clip-path="url(#clippath-19)"><polygon points="1209.5 433.7 1208.8 435.9 1202.6 436.7 1192.3 436.1 1209.5 433.7" fill="#e5bbd8"/></g></g><g isolation="isolate" opacity=".5"><g clip-path="url(#clippath-20)"><polygon points="1162.8 435.7 1185.5 438.5 1194.3 436.5 1175.2 434.7 1162.8 435.7" fill="#17102f"/></g></g><polygon points="1172.3 433.7 1172.3 436.6 1172.5 436.6 1172.5 433.7 1172.3 433.7" fill="#a39fc7"/><polygon points="1172.5 436.6 1172.8 436.4 1172.8 433.9 1172.5 433.7 1172.5 436.6" fill="#565ca9"/><polygon points="1160.7 432.8 1160.7 433.2 1181.5 434.5 1184.6 425 1184.6 423.7 1160.7 432.8" fill="#464392"/><polygon points="1181.3 434.1 1160.7 432.8 1167.1 424.6 1184.6 423.7 1181.3 434.1" fill="#a39fc7"/><polygon points="1184.1 424 1183.8 425.2 1183.4 426.2 1183.1 427.4 1182.1 430.2 1181.4 432.3 1181 433.5 1175.3 433.2 1164.9 432.6 1161.3 432.4 1163.1 430.1 1164 428.9 1164.9 427.8 1166.7 425.5 1167.2 424.8 1174.2 424.4 1184.1 424" fill="#170d54"/><rect x="1172.2" y="421.3" width=".2" height="19.3" transform="translate(710.5 1591.4) rotate(-88.5)" fill="#6772b6"/><rect x="1173.1" y="419.7" width=".2" height="18.7" transform="translate(730.3 1597.1) rotate(-89.3)" fill="#6772b6"/><rect x="1165" y="427.3" width="18.1" height=".2" transform="translate(-3 8.3) rotate(-.4)" fill="#6772b6"/><rect x="1166.2" y="425.6" width="17.5" height=".2" transform="translate(-8.9 25.5) rotate(-1.2)" fill="#6772b6"/><rect x="1173.2" y="428.6" width="10.1" height=".2" transform="translate(316 1339) rotate(-66.5)" fill="#6772b6"/><polygon points="1176.5 424.3 1176.6 424.3 1172 433.1 1171.8 433 1176.5 424.3" fill="#6772b6"/><rect x="1165.7" y="428.5" width="9.9" height=".2" transform="translate(189.5 1197.7) rotate(-58.2)" fill="#6772b6"/><polygon points="1170 424.5 1170.1 424.6 1164.5 432.7 1164.3 432.6 1170 424.5" fill="#6772b6"/><g isolation="isolate" opacity=".2"><g clip-path="url(#clippath-21)"><polygon points="1184.1 424 1183.8 425.2 1164.9 427.8 1166.7 425.5 1174.2 424.4 1184.1 424" fill="#e5bbd8"/></g></g><g isolation="isolate" opacity=".2"><g clip-path="url(#clippath-22)"><polygon points="1183.4 426.2 1183.1 427.4 1163.1 430.1 1164 428.9 1183.4 426.2" fill="#e5bbd8"/></g></g><g isolation="isolate" opacity=".2"><g clip-path="url(#clippath-23)"><polygon points="1182.1 430.2 1181.4 432.3 1175.3 433.2 1164.9 432.6 1182.1 430.2" fill="#e5bbd8"/></g></g><path d="M944.1,238.7h-140.6c-6.6,0-11.3-6.5-9.1-12.8,3.1-9.1,10.6-19.6,29-19.1,17.6.5,25.2,13,25.2,13,0,0,2.6-31.4,36-31.4,35,0,36.8,37.2,36.8,37.2,0,0,22.9-9.6,28.8,4.1,1.8,4.3-1.3,9.1-6,9.1" fill="#f1f9fb"/><path d="M1513.7,304.2h-140.6c-6.6,0-11.3-6.5-9.1-12.8,3.1-9.1,10.6-19.6,29-19.1,17.6.5,25.2,13,25.2,13,0,0,2.6-31.4,36-31.4,35,0,36.8,37.2,36.8,37.2,0,0,22.9-9.6,28.8,4.1,1.8,4.3-1.3,9.1-6,9.1" fill="#f1f9fb"/><path d="M1162.1,331.3h62.1c5,0,8.3-4.7,7.4-9.6-.9-4.7-3.8-9.5-11.7-9.7-8.5-.3-13.3,7-13.3,7,0,0,.7-15.7-17.7-15.7-13.6,0-14.6,17.6-14.6,17.6,0,0-6.7-3.6-12.5-3.2-8.8.5-8.4,13.7.5,13.7" fill="#f1f9fb"/><path d="M1151.8,162.4h84.2c4.7,0,7.3-5.3,4.5-9-2.5-3.3-6.4-6.5-12.6-7.6-14.4-2.6-21.1,7.4-21.1,7.4,0,0,4.4-17.7-17.3-16.6-21.7,1-18.3,17.1-18.3,17.1,0,0-9.9-5.8-19.8-2.3-6.8,2.4-6.8,11.1.4,11.1" fill="#f7f8f9"/><path d="M1441.8-7.9s-1.9,130.5,183.9,131.7c180.2,1.2,135.2,225.8,86.3,200.5-14.6-7.5,5.8-58,42.5-4.2,36.7,53.8,14.5,281.2,148.5,281.4" fill="none" stroke="#242177" stroke-dasharray="10.5 10.5" stroke-miterlimit="10" stroke-width="2.1"/><path d="M130.9,67.4s55.2,38.8,76.4,109.3c21.1,70.5-11.7,119.1,24.7,208.2,36.4,89.1,13.6,179.9-91.9,220.3" fill="none" stroke="#242177" stroke-dasharray="10.5 10.5" stroke-miterlimit="10" stroke-width="2.1"/><g clip-path="url(#clippath-24)"><g><path d="M1002.5,618.7h-4.8c.2-.3,1.2-1.3,3.1-1.1,1,.1,1.5.7,1.8,1.1h0Z" fill="#6018c8" isolation="isolate" opacity=".6"/><path d="M1013,616.4c.8-.2,1.5.5,1.8.7-.1,0-.3.1-.4.2-.3-.2-.8-.6-1.3-.5-.4,0-.5.8-.5,1.2-.1,0-.3.1-.4.2,0-.4,0-1.6.8-1.8h0Z" fill="#6018c8"/><path d="M1009.2,619.6c.2,0,.4.1.6.2.2,0,.5,0,.7-.1.2,0,.4-.2.5-.4.1-.2.2-.4.2-.6,0-.8-.3-1.6-1.2-1.7-1.3,0-1.5,1.2-1.5,1.2,0,0-.1,1,.7,1.4h0Z" fill="#a4ffe8"/><path d="M1006.2,616.1c0,0,.1,0,.2,0,0,0,0,0,.1.1.1.3,0,.8-.1,1.1-.1.4-.8.6-.8-.3,0,0,0-1.1.6-1h0Z" fill="#18f0b8"/><path d="M1003.5,616.7s.1-.8.5-.7c0,0,.1,0,.2,0,0,0,0,0,0,.1,0,.3,0,.7-.2,1-.2.3-.7.3-.6-.4Z" fill="#18f0b8"/><path d="M1006.2,616.1c0,0,.1,0,.2,0,0,0,0,0,.1.1,0,0-.3-.2-.4-.1-.3.3-.4.8-.3,1.2.1.5.5.2.6,0-.1.4-.8.6-.8-.3,0,0,0-1.1.6-1Z" fill="#048e6b"/><path d="M1003.5,616.7s.1-.8.5-.7c0,0,.1,0,.2,0,0,0,0,0,0,.1,0,0-.3-.2-.5,0-.1.4-.2.8-.1.9,0,0,.1,0,.2,0s.1,0,.2,0c-.2.3-.7.3-.6-.4h0Z" fill="#048e6b"/><path d="M939.8,563.7c0,0,0-.2,0-.2.2-.6.4-.7.4-.7,1.6-2.7,5-4.7,5-4.7,6.4-4.5,16.8-4.6,21.5-4.5,4.4,0,15.5,1,21.6,8.1.4.4.7.9,1,1.3,5.8,8.3,5.5,25.7,5.5,25.7v27.3c0,.7-.4,1.4-1.1,1.6,0,0,0,0,0,0-1.5.4-3.8.8-6.6,1.1-1.4.1-3,.3-4.6.4-6.8.4-15.1.5-22.1.5h-4.6c-5,0-8.7-.2-9.6-.3,0,0-.2,0-.3,0-.2,0-.3,0-.5,0-2.7-.5-5-2.1-5.7-2.6-.1,0-.2-.2-.2-.4,0-3.5,0-44.5,0-48.5,0-2,.1-3.2.3-4h0Z" fill="#5840ff"/><path d="M939.5,567.6c0-2,.1-3.2.3-4,0,0,0-.2,0-.2,5.7.9,5.3,25.5,5.3,25.5l.8,30.2c-.2,0-.3,0-.5,0-2.7-.5-5-2.1-5.7-2.6-.1,0-.2-.2-.2-.4,0-3.6,0-44.5,0-48.5h0s0,0,0,0Z" fill="#2d19be" isolation="isolate" opacity=".6"/><path d="M984.9,617.8c.9,0,1.9.5,2.3.9-1.4.1-3,.3-4.6.4.1-.3.7-1.2,2.3-1.2Z" fill="#6018c8" isolation="isolate" opacity=".6"/><path d="M993.6,583.5c-.6-14.7-4.7-20.3-5.3-21.9.4.4.7.9,1,1.3,5.8,8.3,5.5,25.7,5.5,25.7v27.3c0,.7-.4,1.4-1.1,1.6,0,0,0,0,0,0-.2-7.6.2-27.6,0-34.1Z" fill="#2d19be" isolation="isolate" opacity=".6"/><path d="M941,593.1l4.3,2.1,49.2-1" fill="none" isolation="isolate" opacity=".4" stroke="#180048" stroke-linecap="square" stroke-miterlimit="10" stroke-width=".5"/><path d="M971.7,574.6c.2,0,.3-.1.3-.3,0-.2-.1-.3-.3-.3-.2,0-.3.1-.3.3,0,.2.1.3.3.3h0Z" fill="#949fff"/><path d="M971.9,574.3c0-.1,0-.2-.2-.2-.1,0-.2,0-.2.2s0,.2.2.2c.1,0,.2,0,.2-.2Z" fill="#949fff"/><path d="M971.8,574.2s0,0,0,0,0,0,0,0,0,0,0,0,0,0,0,0Z" fill="#949fff"/><path d="M971,574.2c0-.2-.1-.3-.3-.3s-.3.1-.3.3c0,.2.1.3.3.3s.3-.1.3-.3Z" fill="#949fff"/><path d="M970.9,574.3c0-.1,0-.2-.2-.2-.1,0-.2,0-.2.2s0,.2.2.2c.1,0,.2,0,.2-.2Z" fill="#949fff"/><path d="M970.8,574.2s0,0,0,0,0,0,0,0,0,0,0,0,0,0,0,0h0Z" fill="#949fff"/><path d="M970.4,573.6h0s0,0,0,0,0,0,0,0c0,0,0,0,0,0,0,0,0,0,0,0h0s0,0,0,0c0,0,0,0,0,0,0,0,0,0,0,0,0,0,0,0,0,0,0,0,0,0,0,0,0,0,0,0,0,0,0,0,0,0,0,0h0s0,0,0,0c0,0,0,0,0,0,0,0,0,0,0,0s0,0,0,0c0,0,0,0,0,0,0,0,0,0,0,0,0,0,0,0,0,0,0,0,0,0,0,0h0s0,0,0,0Z" fill="#949fff"/><path d="M971.3,574.7h0s0,0,0,0c0,0,0,0,0,0,0,0,0,0,0,0,0,0,0,0,0,0,0,0,0,0,0,0,0,0,0,0,0,0,0,0,0,0-.1,0,0,0,0,0-.1,0,0,0,0,0,0,0,0,0,0,0,0,0h0s0,0,0,0c0,0,0,0,0,0,0,0,0,0,0,0,0,0,0,0,0,0,0,0,0,0,0,0h0s0,0,0,0h0s0,0,0,0c0,0,0,0,0,0,0,0,0,0,0,0,0,0,0,0,0,0,0,0,0,0,0,0h0Z" fill="#949fff"/><path d="M987.2,574.8c0-8.5-7.4-15.4-16.6-15.4s-16.6,6.9-16.6,15.4,7.4,15.4,16.6,15.4,16.6-6.9,16.6-15.4Z" fill="#2d19be"/><path d="M985.9,574.8c0-7.8-6.9-14.1-15.3-14.1s-15.3,6.3-15.3,14.1,6.9,14.1,15.3,14.1,15.3-6.3,15.3-14.1Z" fill="none" stroke="#180048" stroke-miterlimit="10" stroke-width=".5"/><path d="M964.4,572.2c1.1-3.5,5-5.5,8.5-4.4,3.6,1.1,5.5,5,4.4,8.5-1.1,3.5-5,5.5-8.5,4.4-3.6-1.1-5.5-5-4.4-8.5Z" fill="#180048"/><path d="M969.3,576.3s.6-.2,1.4.3c0,.2-.1.6-.8.9-.7.3-1.4,0-1.4-.2,0-.1.2-.2.4-.3.2-.1.4-.5.4-.7h0Z" fill="#f050f8"/><path d="M973.5,575.9c0-.4.8-1,.9-2.2,0-.9-.4-3.1-3.3-3.1-2.9,0-3.5,2.1-3.4,3.2,0,.9.8,1.6.8,2,1.6,1.3,4.3.6,5,0Z" fill="#f050f8"/><path d="M971.4,576.6c0,.2.1.6.8.9.7.3,1.4,0,1.4-.1,0-.1-.2-.2-.4-.3-.2-.1-.4-.5-.4-.7,0,0-.6-.2-1.4.3Z" fill="#f050f8"/><path d="M970.2,576.5c.8-.7,1.6,0,1.6,0,0,0,0,.6,0,.8,0,.2-.2.7-.6.7s-.6-.5-.7-.8c0-.3-.1-.8-.1-.8h0Z" fill="#f050f8"/><path d="M968.5,575.9s1.3,0,1,.5c-.3.6-1.4.6-1.4.3,0-.3.5-.3.4-.8h0Z" fill="#f050f8"/><path d="M973.5,575.9s-1.3,0-1,.5c.3.6,1.4.6,1.4.3,0-.3-.5-.3-.4-.8h0Z" fill="#f050f8"/><path d="M940.8,593.3l4.5,2.3,49.7-1" fill="none" isolation="isolate" opacity=".2" stroke="azure" stroke-linecap="round" stroke-miterlimit="10" stroke-width="0"/><path d="M989.2,617.3s-8.6-1-10.8-.9c-5.9-2.6-4.5-10.6-2.5-10.3,2.1-1,2.5,5.4,5.3,4.9,2.8-.5,10.5.5,10.5.5,7.8,2-2.5,5.9-2.5,5.9Z" fill="#ff48d8"/><path d="M1012.9,603.1c-.6,5.6-4.9,16-17.4,16.8-4.6-.6-9.1-1.3-13.2-4.2-.4-.3-.8-.6-1.2-.9-.3-.3-.6-.7-.8-1.2-3-4.7-6.6-15.3-.2-24,7.6-10.2,22.3-5.7,26.3-1.6,7.2,6.8,4.3,13.2,6.4,15h0Z" fill="#ff48d8"/><path d="M1009,615.8c1.2-.2,12.5-2.2,15.6-6.8,3.1-4.6,1.4-9.8.4-9.9-.9-.1-1.5,1.1-2.6,2.6-1.2,1.6-1.7,2.4-3.4,2.2,0,0-12.3,6.1-10,11.9h0Z" fill="#ff48d8"/><path d="M1012.6,614.4c1.2-.5,6.2-7.2,8.2-12.4,1.9-5.2-.9-9.8-1.8-9.8-1,0-1.5,1.4-2,3.1-.8,1.9-2.5,8.9-4,7.7,0,0-9.2,3.8-.3,11.3h0Z" fill="#ff48d8"/><path d="M1016,610s4.2,1.1,5.5,1.6c1.3.4,7.7-1.2,6.8,1.4-.9,2.6-5.9,5.4-9.4,5.5-2.1,0-12.5,1.2-12.5,1.2-3.5-5.1,9.5-9.7,9.5-9.7h0Z" fill="#ff48d8"/><path d="M999.3,603.2c0-.9-.4-1.7-.9-2.5-.5-.7-1.3-1.2-2.1-1.5-.8-.3-1.8-.3-2.6,0-.9.2-1.7.7-2.2,1.4-.6.7-1,1.5-1.1,2.4-.1.9,0,1.8.4,2.6.4.8,1,1.5,1.8,1.9.8.4,1.7.7,2.6.6.6,0,1.2-.2,1.7-.4.5-.3,1-.6,1.4-1.1.4-.4.7-1,.9-1.5.2-.6.3-1.1.2-1.7Z" fill="#fff"/><path d="M997.4,602.4c0-.6-.3-1.2-.6-1.7-.4-.5-.9-.9-1.5-1.1-.6-.2-1.2-.2-1.8,0-.6.2-1.2.5-1.6,1-.4.5-.7,1.1-.8,1.7,0,.6,0,1.3.3,1.8.3.6.7,1,1.3,1.3.5.3,1.2.5,1.8.4.8,0,1.6-.4,2.2-1.1.6-.6.8-1.5.8-2.3Z" fill="url(#linear-gradient3)"/><path d="M993.6,601c0-.1,0-.3-.2-.4,0-.1-.2-.2-.3-.2-.1,0-.3,0-.4,0-.1,0-.3.1-.3.2,0,.1-.2.2-.2.4,0,.1,0,.3,0,.4,0,.1.2.2.3.3.1,0,.3.1.4,0,0,0,.2,0,.3,0,0,0,.2-.1.2-.2,0,0,.1-.1.1-.2,0,0,0-.1,0-.3Z" fill="#fff"/><path d="M985.9,600.2c0-.7-.3-1.4-.8-2-.5-.6-1.1-1-1.7-1.3-.7-.2-1.4-.3-2.2,0-.7.2-1.3.6-1.8,1.1-.5.6-.8,1.2-.9,1.9,0,.7,0,1.5.3,2.1.3.7.8,1.2,1.5,1.6.6.4,1.4.5,2.1.5.5,0,1-.2,1.4-.4.4-.2.8-.5,1.1-.9.3-.4.6-.8.7-1.2.2-.4.2-.9.2-1.4h0Z" fill="#fff"/><path d="M998.6,596.9c-.1,0-.2-.2-.2-.3,0-.1,0-.3,0-.4,0-.1.2-.2.3-.3.1,0,.3,0,.4,0h0c.1,0,.2.1.3.2,0,0,.2.1.3.2,0,0,.2.1.3.2.1,0,.2.2.3.3,0,0,0,0,0,.1,0,0,0,0,0,.1,0,0,0,0,0,0,0,0,0,0,0,0,0,0,0,0-.1,0s0,0-.1,0h-.1c0,0-.1-.1-.2-.1,0,0-.2,0-.3,0h-.3c0,0-.3,0-.3,0,0,0-.2,0-.2,0Z" fill="#100030"/><path d="M982,593.8s.1,0,.2,0c0,0,.2,0,.2,0,0,0,.1,0,.2.1,0,0,.1.1.1.2,0,0,0,.1,0,.2s0,.1,0,.2c0,0,0,.1-.1.2,0,0-.1,0-.2.1,0,0-.2,0-.2,0s-.2,0-.3,0c0,0-.2,0-.3,0,0,0-.2,0-.2,0,0,0-.2,0-.2,0h-.2c0,0-.1,0-.2,0,0,0,0,0-.1,0,0,0,0,0,0-.1,0,0,0,0,0-.1s0,0,0-.1c0,0,0,0,0-.1,0-.1.2-.2.3-.3,0,0,.2-.1.3-.2.1,0,.2-.1.3-.1.1,0,.2,0,.3-.1h0Z" fill="#100030"/><path d="M1006.7,604.1l12.1,14.3c-11.7,2.9-31.6,1.5-31.6,1.5l5.3-5.2,14.2-10.6h0Z" fill="#ff48d8"/><path d="M999.5,612.9l-15.6,3.5s-.8-.2-1.6-.6c-.3-.2-3.9.7-4.2.5-.2-.2,2.5-.7,2.5-1.8-.3-1-3.2-7.2-3.4-7.5,0,0,3.3,6.8,3.6,7.1,2.4,1.5,17.8-1.1,18.6-1.1Z" isolation="isolate" opacity=".2"/><path d="M987.9,607.7s-1.6.6-2.5-.7c-.3-.4-.6,1.1-.5,1.7,0,.2.2.4.3.6.2.2.4.3.6.3.2,0,.5,0,.7,0,.2,0,.4-.1.6-.3.2-.2.4-.5.6-.7.1-.3.2-.6.2-.9h0Z" stroke="#100030" stroke-linecap="round" stroke-miterlimit="10" stroke-width="0"/><path d="M984.3,599.5c0-.5-.2-1-.5-1.4-.3-.4-.8-.7-1.2-.9-.5-.2-1-.2-1.5,0-.5.1-1,.4-1.3.8-.3.4-.6.9-.6,1.4,0,.5,0,1,.2,1.5.2.5.6.9,1.1,1.1.5.3,1,.4,1.5.3.7,0,1.4-.4,1.8-.9.5-.5.7-1.2.7-1.9Z" fill="url(#linear-gradient4)"/><path d="M981.8,598.1c0-.1,0-.2-.1-.3,0,0-.2-.2-.3-.2-.1,0-.2,0-.3,0-.1,0-.2,0-.3.2,0,0-.1.2-.2.3,0,.1,0,.2,0,.3,0,.1.1.2.2.3.1,0,.2,0,.3,0,0,0,.2,0,.2,0,0,0,.1,0,.2-.1,0,0,0-.1.1-.2,0,0,0-.2,0-.2Z" fill="#fff"/><path d="M992.6,620.1s-9.6,0-11.7.1c-2,0-7.5.2-7.8-1.5-.3-1.7,4.5-2.5,7.3-3,2.8-.5,14.7-1.5,14.7-1.5,7.8,2-2.5,5.9-2.5,5.9Z" fill="#ff48d8"/><path d="M1010.9,612.7c3-.9,7.7,1.7,8.1,2-.1,0-.3.2-.4.3-1-.5-5-2.6-7.6-1.9-2.2.7-2.4,4.5-2.4,6.2-.1,0-.3,0-.4,0,0-1.7.2-5.9,2.7-6.7Z" fill="#6018c8"/><path d="M1011.9,614.6c1.7-.4,3.7.4,4.9,1.4-.1,0-.3.1-.4.2-1.1-.9-2.9-1.6-4.4-1.2-1.2.3-1.4,2.6-1.4,3.8-.1,0-.3,0-.4.1,0-.8.1-3.9,1.8-4.3h0Z" fill="#6018c8"/></g></g><g id="Artwork_2"><g clip-path="url(#clippath-25)"><g clip-path="url(#clippath-26)"><path d="M553.7,136.8c.1,3.8,2.4,9.2,6.2,11.3,3.4,1.9,6.2,2.8,6.2,4.9s-10.2,7.4-20.7,2.2c-10.5-5.2-11.5-11.6-12.2-14.3,11.5-6.9,20.6-4.2,20.6-4.2" fill="#ff48d8"/><path d="M566.1,130.2c1.5-6.9,11.7-16.8,13-30.4,1.7-17.8-7.3-49.5-51.4-49.5s-50.5,32.7-50.5,46.4,13.4,27.7,12.8,34.2c10.9,8.6,52.2,18.7,76.1-.6" fill="#ff48d8"/><path d="M501.8,136.8c-.1,3.8-2.4,9.2-6.2,11.3-3.4,1.9-6.2,2.8-6.2,4.9s10.2,7.4,20.7,2.2c10.5-5.2,11.5-11.6,12.2-14.3-11.5-6.9-20.6-4.2-20.6-4.2" fill="#ff48d8"/><path d="M539.6,139.4s-.8,7.4-2.1,11.8c-1.3,4.3-2.8,11.6-10.3,11.6s-9.3-8.3-9.8-11.3c-.6-3.2-1.4-12.9-1.4-12.9,0,0,11.6-10.5,23.6.8" fill="#ff48d8"/><path d="M565.8,130.1c-1,7.8,7,8.1,6.6,12.6-.4,4.5-17.1,4.5-21.5-4.3-4.5-8.8,15-8.2,15-8.2" fill="#ff48d8"/><path d="M490.1,130.1c1,7.8-7,8.1-6.6,12.6.4,4.5,17.1,4.5,21.5-4.3,4.5-8.8-15-8.2-15-8.2" fill="#ff48d8"/><path d="M520.2,107.8c0,6.6-5.4,12-12,12s-12-5.4-12-12,5.4-12,12-12,12,5.4,12,12" fill="#fff"/></g><g clip-path="url(#clippath-27)"><rect x="500.6" y="101.3" width="16.9" height="16.9" fill="url(#linear-gradient5)"/></g><g clip-path="url(#clippath-28)"><path d="M506,105.2c0,1-.9,1.9-1.9,1.9s-1.9-.9-1.9-1.9.9-1.9,1.9-1.9,1.9.9,1.9,1.9" fill="#fff"/><path d="M556.8,107.8c0,6.1-4.9,11-11,11s-11-4.9-11-11,4.9-11,11-11,11,4.9,11,11" fill="#fff"/></g><g clip-path="url(#clippath-29)"><rect x="537.3" y="101.3" width="16.8" height="16.8" fill="url(#linear-gradient6)"/></g><g clip-path="url(#clippath-30)"><path d="M543.3,104.8c0,1.1-.9,1.9-1.9,1.9s-1.9-.9-1.9-1.9.9-1.9,1.9-1.9,1.9.9,1.9,1.9" fill="#fff"/><path d="M557.6,85.7c.8.4,1.6.8,2.3,1.3.3.2.6.5.8.8.5.7-.2,1.6-.9,1.3h-.4c-.1-.2-.3-.3-.5-.3-.5-.2-1.1-.3-1.7-.4,0,0-.3,0-.3,0-.7,0-1.3-.7-1.2-1.4,0-.9,1.1-1.5,1.9-1.1" fill="#18122d"/><path d="M498.1,89.5c-.8,0-1.7.2-2.5.5-.1,0-.4.1-.5.2-.6.2-1.1-.5-.8-1,.4-.5.9-.9,1.5-1.3.5-.3,1-.6,1.5-.9.7-.4,1.6-.2,2,.6.4.9-.3,1.9-1.3,1.9" fill="#18122d"/><path d="M522.7,126.6c.4.4.8.6,1.4.8,1.3.4,3,.3,4.3-.2.5-.2.9-.4,1.2-.6.2,0,1.3-.7,1.5-.8.5-.2,1,0,1.3.4,0,0,0,.2.1.3,0,.5,0,1-.1,1.4-.3.8-.8,1.4-1.3,2-2.3,2.1-6.1,2.5-8.7.8-1.3-.8-2.5-2.5-2.1-4.1.2-.9,1.4-1.3,2-.5l.4.5" fill="#18122d"/><path d="M403.4,198.4c0,6.8-5,12.3-12.7,12.3s-12.4-5.3-12.4-12.1,5.6-12.1,12.6-12.1,12.6,5.2,12.6,12M390.8,206.1c4.2,0,7.1-3.4,7.1-7.5s-2.7-7.5-7.1-7.5-7.1,3.4-7.1,7.5,2.9,7.5,7.1,7.5" fill="#fff"/><path d="M464.4,198.4c0,6.8-5,12.3-12.7,12.3s-12.4-5.3-12.4-12.1,5.6-12.1,12.6-12.1,12.6,5.2,12.6,12M451.8,206.1c4.2,0,7.1-3.4,7.1-7.5s-2.7-7.5-7.1-7.5-7.1,3.4-7.1,7.5,2.9,7.5,7.1,7.5" fill="#fff"/><path d="M492.1,200.8s0-9.3,0-11.7c.4-3.4,5.2-1.6,5.2-1.6v12.5h0c0,3.9,2.7,5.8,6,5.8s6-1.8,6-5.8c0,0,0-8.6,0-11,.4-3.4,5.2-1.6,5.2-1.6v8.1c.7,9.9,10.2,10.7,10.2,10.7,9.5,1.3,8.6-2.6,8.6-2.6-.2-2-1.7-2.4-4.2-2.7-1.6-.2-2.9-.3-2.9-.3-10.1-.6-9.1-7.3-9.1-7.3.1-5.7,6.2-6.5,6.2-6.5,5.3-1,9.1,0,9.1,0,8.3,1.7,4.2,5.7,3.5,5.9,0,0-2.2-2-7.4-2.3-6.4-.4-6.3,2.6-6.3,2.6-.2,2.2,2.6,2.6,2.6,2.6l6.8,1c8.1,1.1,7.1,6.9,7.1,6.9-.5,7.2-9.1,7.2-9.1,7.2-11.7.7-16.1-5.4-16.1-5.4-1.6,3.3-4.9,5.4-10.3,5.4-6.5,0-11-3.6-11-10.1" fill="#fff"/><path d="M416.2,186.8c-9.3.7-11.5,9.4-11.2,11.9-.1,3.8,2.5,12,12.9,12,1.4,0,2.6-.1,3.7-.4v-4.6c-1,.2-2.2.3-3.6.3-4.8.1-7.6-3.8-7.5-7.3,0-4,3.3-7.4,7.5-7.3h8.3s0,11.4,0,11.4c0,0-.6,9.7,11.6,7.7v-4.6c-6.8,1.5-6.4-2.8-6.4-2.8v-11.7h6.4v-4.6h-6.4v-5.4h-5.2v5.4h-10.1Z" fill="#fff"/><path d="M471.1,217.6c-.4,3.4-5.2,1.6-5.2,1.6v-20.6c.3-6.6,4.2-11.9,12.3-12.1,7.2-.2,12.3,5.2,12.3,12,0,7.2-5,12.5-12.4,12.2-2.7-.1-5.2-1.2-7-3.5,0,0,0,8.1,0,10.5M478.1,206.1c4.1,0,7.1-3.4,7.1-7.5s-2.6-7.5-7.1-7.5-7.1,3.4-7.1,7.5,2.9,7.5,7.1,7.5" fill="#fff"/><path d="M564.9,205.5c-2,2.3-4.8,3.6-8.1,3.6s-5.6-1.1-7.4-3.1c-1.7-1.9-2.6-4.6-2.6-7.5v-.4h20v-.2c-.1-3.1-1.2-5.9-3.1-7.9-2-2.1-4.6-3.3-7.6-3.3-6.2,0-10.7,4.9-10.7,11.8s4.7,11.9,11.4,11.9,6.8-1.4,9-3.9h.1c0-.1-1-1.1-1-1.1h-.1ZM546.9,196.8c.7-5.4,4.3-8.8,9.2-8.8s4.7.9,6.4,2.6c1.5,1.6,2.5,3.8,2.8,6.2h-18.4Z" fill="#fff"/><path d="M588.1,189.7c-1.8-1.9-4.3-2.9-7.1-2.9,0,0,0,0,0,0-2.7,0-5.3,1.1-7.1,2.9-1.7,1.8-2.5,4.1-2.5,7.4v12.8h1.4v-12.8c0-2.8.7-4.9,2.2-6.5,1.5-1.6,3.8-2.5,6-2.5,2.2,0,4.5,1,6,2.5,1.5,1.6,2.2,3.7,2.2,6.5v12.8h1.4v-12.8c0-3.2-.8-5.6-2.5-7.4" fill="#fff"/><path d="M630.8,186.7c-2.7,0-5.3,1.1-7.1,2.9-1.7,1.8-2.5,4.1-2.5,7.4v12.8h1.4v-12.8c0-2.8.7-4.9,2.2-6.5,1.5-1.6,3.8-2.5,6-2.5h.2v-1.3h-.2Z" fill="#fff"/><path d="M614.6,205.5c-2,2.3-4.8,3.6-8.1,3.6s-5.6-1.1-7.4-3.1c-1.7-1.9-2.6-4.6-2.6-7.5v-.4h20v-.2c-.1-3.1-1.2-5.9-3.1-7.9-2-2.1-4.6-3.3-7.6-3.3-6.2,0-10.7,4.9-10.7,11.8s4.7,11.9,11.4,11.9,6.8-1.4,9-3.9h.1c0-.1-1-1.1-1-1.1h-.1ZM596.6,196.8c.7-5.4,4.3-8.8,9.2-8.8s4.7.9,6.4,2.6c1.5,1.6,2.5,3.8,2.8,6.2h-18.4Z" fill="#fff"/><polygon points="676.7 187.2 668 205.6 658.3 187.2 656.8 187.2 667.3 207.2 660.3 222.1 661.8 222.1 678.2 187.2 676.7 187.2" fill="#fff"/><path d="M643.9,186.7c-3.2,0-6.2,1.2-8.3,3.5-2.1,2.2-3.3,5.2-3.3,8.4s1.2,6.2,3.3,8.4c2.2,2.2,5.1,3.5,8.3,3.5s7.6-2.1,9.5-5.7v4.9c0,2.7,0,5.8-1.2,7.8-1.5,2.6-4.2,4-7.8,4s-8-2.5-9.4-4.7v-.2c-.1,0-1.2.8-1.2.8h0c.8,1.3,4,5.3,10.5,5.3s7.2-1.6,9-4.5c1.3-2.2,1.4-5.5,1.4-8.5v-10.7h0c0,0,0-.1,0-.1,0-7-4.5-11.8-10.8-11.8M653.3,198.5c0,6.2-3.9,10.5-9.5,10.5s-10.2-4.6-10.2-10.5,4.5-10.5,10.2-10.5,9.5,4.3,9.5,10.5" fill="#fff"/></g></g></g></svg>